<?xml version="1.0" encoding="utf-8"?>
<!-- Generator: Adobe Illustrator 25.2.1, SVG Export Plug-In . SVG Version: 6.00 Build 0)  -->
<svg version="1.1" id="_x31_" xmlns="http://www.w3.org/2000/svg" xmlns:xlink="http://www.w3.org/1999/xlink" x="0px" y="0px"
	 viewBox="0 0 3904.5 3346.71" style="enable-background:new 0 0 3904.5 3346.71;" xml:space="preserve">
<style type="text/css">
	.st0{fill-rule:evenodd;clip-rule:evenodd;fill:#92DEDB;}
	.st1{fill-rule:evenodd;clip-rule:evenodd;fill:#72C2BF;stroke:#72C2BF;stroke-width:0.5669;stroke-miterlimit:22.9256;}
	.st2{fill-rule:evenodd;clip-rule:evenodd;fill:#FFFFFF;stroke:#FFFFFF;stroke-width:0.5669;stroke-miterlimit:22.9256;}
	.st3{fill-rule:evenodd;clip-rule:evenodd;fill:#6FD9CB;stroke:#6FD9CB;stroke-width:0.5669;stroke-miterlimit:22.9256;}
	.st4{fill-rule:evenodd;clip-rule:evenodd;fill:#88EBDE;}
	.st5{fill-rule:evenodd;clip-rule:evenodd;fill:#54B3B0;stroke:#54B3B0;stroke-width:0.5669;stroke-miterlimit:22.9256;}
	.st6{fill-rule:evenodd;clip-rule:evenodd;fill:#80D9D6;}
	.st7{fill-rule:evenodd;clip-rule:evenodd;fill:#5298A1;stroke:#5298A1;stroke-width:0.5669;stroke-miterlimit:22.9256;}
	.st8{fill-rule:evenodd;clip-rule:evenodd;fill:#44868F;stroke:#44868F;stroke-width:0.5669;stroke-miterlimit:22.9256;}
	.st9{fill-rule:evenodd;clip-rule:evenodd;fill:#C7E9ED;stroke:#DEF4F7;stroke-width:0.5669;stroke-miterlimit:22.9256;}
	.st10{fill-rule:evenodd;clip-rule:evenodd;fill:#95B4BD;stroke:#95B4BD;stroke-width:0.5669;stroke-miterlimit:22.9256;}
	.st11{fill-rule:evenodd;clip-rule:evenodd;fill:#50737D;stroke:#50737D;stroke-width:0.5669;stroke-miterlimit:22.9256;}
	.st12{fill-rule:evenodd;clip-rule:evenodd;fill:#6AA9BA;stroke:#6AA9BA;stroke-width:0.5669;stroke-miterlimit:22.9256;}
	.st13{fill-rule:evenodd;clip-rule:evenodd;fill:#F06060;stroke:#F06060;stroke-width:0.5669;stroke-miterlimit:22.9256;}
	.st14{fill-rule:evenodd;clip-rule:evenodd;fill:#E85A5A;stroke:#E85A5A;stroke-width:0.5669;stroke-miterlimit:22.9256;}
	.st15{fill-rule:evenodd;clip-rule:evenodd;fill:#FB8585;stroke:#FB8585;stroke-width:0.5669;stroke-miterlimit:22.9256;}
	.st16{fill-rule:evenodd;clip-rule:evenodd;fill:#FFFFFF;}
	.st17{fill-rule:evenodd;clip-rule:evenodd;fill:#FFED7A;stroke:#FFED7A;stroke-width:0.5669;stroke-miterlimit:22.9256;}
	.st18{fill-rule:evenodd;clip-rule:evenodd;fill:#F7D65E;stroke:#F7D65E;stroke-width:0.5669;stroke-miterlimit:22.9256;}
	.st19{fill-rule:evenodd;clip-rule:evenodd;fill:#FADF57;stroke:#FADF57;stroke-width:0.5669;stroke-miterlimit:22.9256;}
	.st20{fill-rule:evenodd;clip-rule:evenodd;fill:#FFF4B0;}
	.st21{fill-rule:evenodd;clip-rule:evenodd;fill:#B9EBE9;stroke:#B9EBE9;stroke-width:0.5669;stroke-miterlimit:22.9256;}
</style>
<g>
	<path class="st0" d="M2868.54,1932.73c-1.44,1.4-2.86,2.83-4.28,4.27c-14.19-5.78-28.07-12.15-41.72-19.18
		c-1.29-0.7-1.83-2.1-1.33-3.48c0.63-1.56,2.37-2.23,3.88-1.48C2839.25,1920.16,2853.75,1926.8,2868.54,1932.73L2868.54,1932.73z
		 M720.05,1793.86c-1.07,3.07-5.69,2.15-5.41-1.2c0.03-0.22,0.07-0.41,0.14-0.62c6.03-17.56,10.51-35.52,15.4-53.42
		c0.17-0.61,0.5-1.08,0.99-1.47c2.15-1.62,5.09,0.38,4.39,2.94C730.61,1758.12,726.13,1776.17,720.05,1793.86L720.05,1793.86z
		 M743.43,1713.51c-1.09,3.13-5.7,2.17-5.42-1.17c0.03-0.21,0.06-0.38,0.13-0.59c5.92-17.95,13.35-35.27,23.84-51.07
		c1.61-2.46,5.56-0.99,5.07,2.02c-0.08,0.41-0.2,0.72-0.43,1.08C756.43,1679.09,749.17,1696.1,743.43,1713.51L743.43,1713.51z
		 M783.67,1642.36c-2.12,2.22-5.79-0.11-4.58-3.04c0.14-0.31,0.3-0.55,0.53-0.8c9.99-10.62,21.48-20.17,33.59-28.51
		c-8.72-13.58-16.76-27.62-24.14-41.97c-0.63-1.26-0.27-2.73,0.87-3.55c1.43-0.97,3.27-0.51,4.09,1c7.3,14.16,15.2,28,23.81,41.4
		c1.9-1.24,3.81-2.46,5.73-3.65c2.79-1.7,5.8,1.99,3.37,4.41c-0.15,0.13-0.28,0.24-0.45,0.34c-1.88,1.16-3.75,2.35-5.61,3.57
		l1.16,1.76c1.75,2.7-1.65,5.77-4.19,3.62c-0.18-0.16-0.32-0.33-0.46-0.53l-1.15-1.73C804.51,1622.8,793.38,1632.05,783.67,1642.36
		L783.67,1642.36z M850.74,1594.92c-2.63,1.26-5.28-2-3.26-4.38c0.28-0.3,0.53-0.49,0.9-0.67c17.11-8.01,34.92-14.07,53.46-17.73
		c3.07-0.56,4.65,3.53,1.9,5.17c-0.27,0.14-0.53,0.25-0.83,0.31C884.86,1581.15,867.38,1587.13,850.74,1594.92L850.74,1594.92z
		 M930.14,1574.35c-3.17,0.09-4.05-4.33-1-5.43c0.26-0.08,0.52-0.14,0.79-0.14c19-0.74,37.83,1.73,55.97,7.41
		c2.83,0.88,2.5,5.08-0.56,5.44c-0.4,0.03-0.73,0-1.12-0.12C966.75,1576.01,948.44,1573.63,930.14,1574.35L930.14,1574.35z
		 M1009.4,1592.1c-2.5-1.36-1.62-5.25,1.46-5.23c0.46,0.04,0.8,0.12,1.21,0.34c16.71,9.06,32.02,21.66,41.81,38.15
		c1.49,2.45-1.42,5.4-3.99,3.71c-0.34-0.23-0.61-0.53-0.82-0.88C1039.78,1612.56,1025.22,1600.68,1009.4,1592.1L1009.4,1592.1z
		 M1057.56,1653.29c-0.31-3.09,3.91-4.35,5.31-1.45c0.12,0.29,0.2,0.55,0.23,0.86c2.13,19.53-3.81,38.84-15.98,54.2
		c-0.68,0.88-1.83,1.21-2.89,0.95c-1.97-0.55-2.72-2.83-1.47-4.44c11.12-13.91,16.69-31.97,14.83-49.72L1057.56,1653.29
		L1057.56,1653.29z M1022.53,1720.72c3-1.62,5.84,2.53,2.95,4.73l-0.24,0.15c-4.39,2.45-8.8,4.38-13.58,5.94
		c-13.77,4.39-28.08,4.82-42.3,2.68c-3.23-0.51-3.14-5.3,0.31-5.54c0.18-0.01,0.35,0,0.53,0.03c13.37,2,26.79,1.66,39.75-2.47
		C1014.38,1724.78,1018.46,1722.99,1022.53,1720.72L1022.53,1720.72z M943.86,1721.71c2.98,1.2,2,5.53-1.14,5.39
		c-0.32-0.03-0.54-0.07-0.84-0.18c-17.75-6.7-33.99-16.28-49.13-27.65c-2.67-2.08-0.12-6.24,3-4.69c0.12,0.07,0.25,0.14,0.36,0.23
		C910.79,1705.86,926.64,1715.21,943.86,1721.71L943.86,1721.71z M875.02,1677.05c0.72,0.69,1.02,1.64,0.82,2.61
		c-0.43,2.11-3.08,2.95-4.64,1.45c-13.73-12.85-26.08-26.9-37.5-41.82c-0.63-0.83-0.75-1.94-0.31-2.88c0.89-1.89,3.48-2.16,4.74-0.5
		C849.37,1650.59,861.51,1664.4,875.02,1677.05L875.02,1677.05z M781.97,1540.52c0.5,1.13,0.23,2.41-0.69,3.23
		c-1.39,1.24-3.64,0.77-4.39-0.94c-7.7-17.07-14.52-34.4-20.56-52.12c-0.98-2.86,2.79-5.17,4.9-2.54c0.17,0.25,0.28,0.45,0.39,0.74
		C767.56,1506.43,774.37,1523.65,781.97,1540.52L781.97,1540.52z M753.3,1462.42c0.16,0.55,0.14,1.12-0.04,1.66
		c-0.88,2.58-4.56,2.5-5.32-0.12c-5.16-17.99-9.47-36.12-12.91-54.52c-0.56-3.06,3.6-4.65,5.2-1.83c0.13,0.25,0.23,0.52,0.28,0.81
		C743.93,1426.65,748.19,1444.59,753.3,1462.42L753.3,1462.42z M736.08,1381.02c0.42,3.06-3.77,4.45-5.25,1.64
		c-0.14-0.29-0.23-0.56-0.27-0.88c-2.62-18.72-3.98-36.95-5.12-55.78c-0.09-3.36,4.63-4.03,5.49-0.81c0.05,0.2,0.07,0.36,0.08,0.56
		C731.88,1344.17,733.52,1362.75,736.08,1381.02L736.08,1381.02z M730.28,1297.98c-0.03,3.35-4.8,3.87-5.53,0.55
		c-0.03-0.17-0.05-0.35-0.05-0.53c-0.11-18.83,0.74-37.19,2.03-55.96c0.11-1.29,1.08-2.35,2.37-2.54c1.76-0.27,3.34,1.2,3.19,2.98
		C731.11,1261.18,730.17,1279.22,730.28,1297.98L730.28,1297.98z M735,1214.84c-0.37,3.06-4.78,3.37-5.5,0.24
		c-0.06-0.31-0.08-0.59-0.04-0.91c2.17-18.52,5.13-37.02,8.83-55.29c0.56-2.86,4.72-3.06,5.46-0.03c0.08,0.4,0.09,0.74,0.01,1.14
		C740.09,1178.12,737.15,1196.48,735,1214.84L735,1214.84z M749.81,1132.89c-0.66,2.81-4.86,2.89-5.46-0.24
		c-0.06-0.38-0.04-0.73,0.05-1.11c4.47-18.12,9.65-36.1,15.68-53.76c1.06-3.02,5.57-2.2,5.42,1.08c-0.02,0.25-0.06,0.49-0.14,0.72
		C759.37,1097.08,754.24,1114.95,749.81,1132.89L749.81,1132.89z M774.89,1053.52c-0.47,1.18-1.66,1.9-2.92,1.75
		c-1.81-0.22-2.95-2.09-2.27-3.79c6.82-17.39,14.45-34.49,22.98-51.11c1.54-2.84,5.73-1.35,5.23,1.74
		c-0.06,0.31-0.13,0.53-0.27,0.81C789.19,1019.36,781.64,1036.32,774.89,1053.52L774.89,1053.52z M810.93,978.58
		c-0.58,0.99-1.71,1.53-2.85,1.35c-1.93-0.32-2.96-2.47-1.96-4.16c9.41-16.17,19.71-31.79,30.9-46.78c0.54-0.69,1.22-1.05,2.08-1.11
		c2.38-0.09,3.78,2.53,2.38,4.46C830.41,947.17,820.25,962.57,810.93,978.58L810.93,978.58z M858.74,910.64
		c-2.03,2.35-5.83,0.15-4.72-2.82c0.13-0.3,0.26-0.54,0.47-0.79c12.1-14.25,25.04-27.85,38.82-40.49c2.53-2.25,6.16,1.03,4.06,3.8
		c-0.09,0.11-0.19,0.22-0.29,0.31C883.45,883.2,870.73,896.51,858.74,910.64L858.74,910.64z M918.05,852.52
		c-2.43,1.96-5.82-0.96-4.08-3.71c0.16-0.23,0.34-0.44,0.57-0.62c14.59-11.81,29.76-22.61,45.67-32.56c2.61-1.58,5.5,1.51,3.72,4.02
		c-0.22,0.29-0.47,0.53-0.78,0.72C947.45,830.16,932.43,840.88,918.05,852.52L918.05,852.52z M987.09,806.39
		c-2.62,1.41-5.38-1.73-3.52-4.18c0.26-0.31,0.5-0.53,0.86-0.72c16.41-8.94,33.34-16.94,50.6-24.1c0.95-0.38,1.96-0.25,2.77,0.37
		c1.7,1.35,1.34,3.91-0.64,4.78C1020.08,789.63,1003.34,797.54,987.09,806.39L987.09,806.39z M1063.05,772.51
		c-2.98,1.03-5.14-2.83-2.64-4.84c0.24-0.17,0.47-0.31,0.75-0.41c17.59-6.34,35.38-11.88,53.44-16.73c2.94-0.75,4.8,3,2.44,4.89
		c-0.31,0.23-0.63,0.41-1.01,0.5C1098.14,760.72,1080.48,766.23,1063.05,772.51L1063.05,772.51z M1143.01,749.26
		c-3.16,0.69-4.8-3.67-1.87-5.21c0.22-0.1,0.41-0.18,0.65-0.23c18.23-4.12,36.54-7.51,55.02-10.28c3.28-0.45,4.49,4.13,1.42,5.36
		c-0.19,0.07-0.4,0.13-0.6,0.16C1179.28,741.81,1161.1,745.17,1143.01,749.26L1143.01,749.26z M1225.18,735.48
		c-3.34,0.34-4.33-4.41-1.13-5.44c0.17-0.05,0.35-0.09,0.52-0.11c18.56-2.07,37.16-3.45,55.81-4.18c2.1-0.06,3.52,2.09,2.62,3.99
		c-0.44,0.92-1.39,1.55-2.41,1.58C1262.07,732.05,1243.6,733.42,1225.18,735.48L1225.18,735.48z M1308.37,730.78
		c-3.3-0.03-3.87-4.76-0.56-5.52c0.19-0.04,0.37-0.06,0.56-0.06c18.68-0.02,37.32,0.67,55.95,2.09c3.28,0.27,3.49,5.06,0.13,5.55
		c-0.19,0.02-0.37,0.03-0.56,0.01C1345.4,731.45,1326.91,730.77,1308.37,730.78L1308.37,730.78z M1391.53,735.54
		c-0.67-0.08-1.29-0.4-1.74-0.9c-1.72-1.92-0.14-4.94,2.4-4.64c18.5,2.17,37.04,5.1,55.3,8.82c2.85,0.56,3.06,4.72,0.03,5.46
		c-0.4,0.08-0.73,0.08-1.14,0C1428.27,740.6,1409.87,737.69,1391.53,735.54L1391.53,735.54z M1473.47,750.36
		c-0.69-0.16-1.27-0.59-1.67-1.18c-1.36-2.17,0.53-4.82,3-4.24c17.99,4.32,36.26,9.73,53.76,15.7c3.02,1.06,2.2,5.57-1.08,5.42
		c-0.25-0.02-0.49-0.06-0.72-0.14C1509.41,760,1491.3,754.64,1473.47,750.36L1473.47,750.36z M1552.85,775.43
		c-2.93-1.17-1.98-5.52,1.16-5.38c0.31,0.03,0.58,0.07,0.87,0.19c17.33,6.74,34.6,14.35,51.2,22.73c2.7,1.35,1.59,5.53-1.53,5.27
		c-0.36-0.04-0.65-0.12-0.98-0.29C1587.08,789.66,1570.06,782.12,1552.85,775.43L1552.85,775.43z M1628.08,810.98
		c-2.74-1.61-1.19-5.79,2-5.15c0.28,0.07,0.5,0.15,0.75,0.29c16.28,9.17,32.1,19.17,47.35,29.98c0.78,0.55,1.25,1.52,1.17,2.48
		c-0.18,2.17-2.61,3.32-4.4,2.07C1659.84,829.95,1644.21,820.06,1628.08,810.98L1628.08,810.98z M1697.11,857.31
		c-0.83-0.64-1.22-1.79-0.98-2.8c0.5-2.02,2.82-2.82,4.46-1.55c14.63,11.68,28.56,24.12,41.8,37.35c2.26,2.29-0.5,6-3.39,4.37
		c-0.21-0.13-0.38-0.25-0.55-0.43C1725.31,881.15,1711.62,868.89,1697.11,857.31L1697.11,857.31z M1757.56,914.36
		c-2.18-2.44,0.92-6.02,3.67-4.15c0.17,0.12,0.33,0.26,0.47,0.42c12.5,13.84,24.32,28.42,35.42,43.41c1.89,2.61-1.38,5.82-3.96,3.85
		c-0.2-0.17-0.37-0.32-0.52-0.54C1781.69,942.53,1769.92,928.04,1757.56,914.36L1757.56,914.36z M1808.68,980.02
		c-1.71-2.52,1.37-5.65,3.96-3.81c0.27,0.2,0.47,0.41,0.66,0.69c10.46,15.46,20.3,31.32,29.61,47.49c1.41,2.62-1.48,5.29-3.95,3.72
		c-0.4-0.28-0.63-0.51-0.88-0.94C1828.83,1011.11,1819.07,995.38,1808.68,980.02L1808.68,980.02z M1851.59,1051.48
		c-0.48-0.9-0.42-1.91,0.08-2.78c1.16-1.83,3.81-1.75,4.83,0.15c8.82,16.41,17.18,33.08,25.21,49.9c0.49,1.02,0.31,2.28-0.48,3.1
		c-1.35,1.43-3.71,1.08-4.56-0.7C1868.65,1084.41,1860.38,1067.84,1851.59,1051.48L1851.59,1051.48z M1888.47,1126.38
		c-0.81-1.85,0.45-3.88,2.47-3.95c1.09-0.04,2.16,0.63,2.6,1.63c7.74,16.95,15.17,33.98,22.6,51.06c1.21,2.75-2.32,5.3-4.59,3.02
		c-0.23-0.24-0.4-0.51-0.53-0.81C1903.7,1160.27,1896.17,1143.26,1888.47,1126.38L1888.47,1126.38z M1922.01,1202.95
		c-1.18-2.7,2.24-5.24,4.53-3.08c0.27,0.27,0.45,0.54,0.6,0.89c7.32,17.08,14.57,34.2,22.01,51.23c1.25,2.86-2.51,5.36-4.67,2.94
		c-0.19-0.22-0.33-0.45-0.45-0.71C1936.59,1237.17,1929.34,1220.05,1922.01,1202.95L1922.01,1202.95z M1955.33,1279.76
		c-1.32-3.02,2.75-5.48,4.8-2.78c0.11,0.16,0.2,0.31,0.28,0.49l0.5,1.12c7.45,16.55,15.15,32.98,23.26,49.22
		c1.4,2.8-2.22,5.48-4.5,3.18c-0.2-0.21-0.36-0.43-0.48-0.69c-7.84-15.57-15.22-31.45-22.41-47.34L1955.33,1279.76L1955.33,1279.76z
		 M1992.06,1355.14c-0.52-0.95-0.43-2.14,0.23-3c1.23-1.62,3.72-1.43,4.68,0.36c8.77,16.31,18.1,32.33,28.15,47.88
		c1.65,2.55-1.44,5.57-3.98,3.77c-0.29-0.22-0.51-0.44-0.7-0.74C2010.31,1387.68,2000.92,1371.61,1992.06,1355.14L1992.06,1355.14z
		 M2036.14,1426.6c-0.38-0.52-0.56-1.19-0.51-1.83c0.22-2.6,3.53-3.52,5.05-1.41c10.78,15.12,22.13,29.59,34.31,43.61
		c1.95,2.19-0.49,5.63-3.3,4.35c-0.36-0.17-0.65-0.4-0.91-0.69C2058.49,1456.48,2047.02,1441.87,2036.14,1426.6L2036.14,1426.6z
		 M2089.74,1491.29c-0.47-0.48-0.7-1.05-0.77-1.7c-0.2-2.62,2.94-4.05,4.78-2.18c12.87,13.3,26.41,25.89,40.62,37.74
		c2.57,2.22-0.2,6.24-3.22,4.54c-0.12-0.07-0.24-0.16-0.35-0.25C2116.44,1517.5,2102.73,1504.71,2089.74,1491.29L2089.74,1491.29z
		 M2152.81,1546.81c-2.58-2-0.34-5.96,2.68-4.84c0.25,0.1,0.44,0.21,0.66,0.37c14.86,11.1,30.21,21.28,46.12,30.8
		c2.6,1.53,1.22,5.66-1.94,5.14c-0.33-0.07-0.61-0.17-0.91-0.34C2183.37,1568.39,2167.77,1557.99,2152.81,1546.81L2152.81,1546.81z
		 M2223.84,1591.68c-2.82-1.53-1.29-5.83,1.9-5.19c0.25,0.06,0.48,0.14,0.71,0.26c16.35,8.68,33.1,16.59,50.17,23.75
		c1.01,0.45,1.63,1.31,1.71,2.41c0.08,2.09-1.92,3.51-3.86,2.74C2257.23,1608.4,2240.36,1600.45,2223.84,1591.68L2223.84,1591.68z
		 M2300.54,1625.91c-2.83-1.02-2.22-5.31,0.91-5.41c0.37,0,0.67,0.05,1.01,0.17c17.38,6.39,35.01,12.06,52.88,16.9
		c1.14,0.31,1.97,1.3,2.05,2.48c0.13,1.92-1.65,3.41-3.51,2.9C2335.83,1638.04,2318.1,1632.37,2300.54,1625.91L2300.54,1625.91z
		 M2381.08,1649.69c-1.29-0.3-2.19-1.42-2.19-2.75c0.01-1.75,1.68-3.1,3.39-2.7c18.23,4.06,36.15,7.1,54.66,9.53
		c3.08,0.37,3.39,4.89,0.1,5.52c-0.26,0.04-0.51,0.04-0.77,0.01C2417.73,1657.02,2399.32,1653.75,2381.08,1649.69L2381.08,1649.69z
		 M2464.18,1662.04c-3.12-0.26-3.58-4.61-0.5-5.48c0.3-0.07,0.58-0.11,0.89-0.08c18.47,1.3,36.92,1.61,55.42,0.78
		c0.57-0.02,0.98,0.09,1.48,0.34c2.45,1.43,1.59,5.05-1.22,5.23C2501.57,1663.69,2482.82,1663.36,2464.18,1662.04L2464.18,1662.04z
		 M2548.22,1660.71c-1.84,0.19-3.35-1.4-3.05-3.23c0.2-1.22,1.22-2.19,2.45-2.32c17.37-1.83,34.68-4.75,51.68-8.79
		c-0.39-0.13-0.77-0.35-1.12-0.68c-0.35-0.37-0.59-0.76-0.72-1.26c-4.72-18.07-8.25-36.63-10.25-55.19
		c-0.17-1.72,1.18-3.17,2.91-3.09c1.35,0.06,2.5,1.13,2.63,2.48c1.97,18.33,5.47,36.55,10.1,54.39c0.27,1.07-0.07,2.03-0.71,2.67
		l0.02-0.01c1.22-0.31,2.54,0.28,3.13,1.4c0.85,1.62-0.03,3.56-1.8,4.02C2585.35,1655.56,2566.82,1658.75,2548.22,1660.71
		L2548.22,1660.71z M2630.52,1643.34c-2.76,0.95-5-2.59-2.77-4.7c0.31-0.27,0.61-0.45,1-0.59c17.51-5.82,34.36-12.96,50.44-22.04
		l0.09-0.05c2.67-1.44,5.38,1.61,3.61,4.1c-0.25,0.32-0.49,0.54-0.84,0.74c-2.26,1.3-4.58,2.54-6.88,3.76
		C2660.77,1632.11,2645.94,1638.21,2630.52,1643.34L2630.52,1643.34z M2705.68,1605.36c-0.62,0.47-1.45,0.67-2.21,0.52
		c-2.38-0.49-3.07-3.5-1.16-4.96c14.66-11.08,27.5-24.08,37.31-39.68c1.37-2.09,4.49-1.57,5.08,0.84c0.16,0.77,0.07,1.44-0.35,2.12
		C2734.08,1580.45,2720.98,1593.79,2705.68,1605.36L2705.68,1605.36z M2757.02,1538.79c-1.2,2.98-5.53,2-5.39-1.14
		c0.03-0.32,0.07-0.54,0.18-0.84c6.49-17.06,9.68-35.3,9.17-53.56c-0.09-3.12,4.32-4.05,5.44-0.96c0.08,0.26,0.13,0.52,0.14,0.79
		C2767.1,1502.02,2763.75,1521.09,2757.02,1538.79L2757.02,1538.79z M2762.61,1454.89c0.32,1.26-0.24,2.57-1.4,3.18
		c-1.57,0.83-3.55-0.02-4-1.76c-4.06-15.74-12.1-31.37-25.14-41.47c-1.15-0.88-2.32-1.7-3.53-2.49c-2.88-1.88-0.53-6.34,2.74-4.85
		l0.25,0.14c1.36,0.87,2.66,1.79,3.94,2.77C2749.5,1421.27,2758.24,1437.95,2762.61,1454.89L2762.61,1454.89z M2704.18,1398.25
		c2.95,0.36,3.42,4.35,0.67,5.39c-0.44,0.15-0.78,0.19-1.25,0.15c-18-1.9-36.1,3.64-51.41,12.9l-0.01,0
		c-2.74,1.67-5.69-1.86-3.51-4.27c0.17-0.18,0.37-0.35,0.58-0.48c8.03-4.97,17.13-8.87,26.25-11.3
		C2684.9,1398.22,2694.51,1397.23,2704.18,1398.25L2704.18,1398.25z M2626.98,1429.74c2.05-2.14,5.71,0.07,4.58,2.99
		c-0.14,0.35-0.33,0.63-0.59,0.9c-11.3,11.56-19.83,24.98-26.1,39.85c-0.85,2.05-1.67,4.12-2.43,6.21
		c-1.07,2.97-5.56,2.15-5.41-1.12c0.02-0.28,0.07-0.51,0.16-0.77c0.82-2.18,1.64-4.32,2.53-6.47
		C2606.27,1455.83,2615.2,1441.79,2626.98,1429.74L2626.98,1429.74z M2589.69,1505.08c0.3-1.51,1.76-2.5,3.27-2.21
		c1.51,0.3,2.5,1.76,2.21,3.27c-3.54,18.02-4.7,36.56-4.27,54.9c0.08,3.03-4.16,4.02-5.38,1.11c-0.12-0.33-0.19-0.62-0.2-0.97
		C2584.89,1542.4,2586.07,1523.54,2589.69,1505.08L2589.69,1505.08z M2605.48,1671.35c-0.97-2.82,2.69-5.03,4.74-2.73
		c0.25,0.3,0.42,0.58,0.54,0.95c5.88,17.51,12.91,34.62,21.09,51.19c0.44,0.87,0.38,1.97-0.17,2.78c-1.18,1.8-3.87,1.62-4.83-0.29
		C2618.57,1706.43,2611.44,1689.1,2605.48,1671.35L2605.48,1671.35z M2640.16,1747.96c-1.45-2.38,1.29-5.29,3.85-3.79
		c0.42,0.27,0.7,0.55,0.96,0.98c9.3,15.97,19.73,31.23,31.1,45.79c1.84,2.29-0.79,5.59-3.49,4.19c-0.36-0.19-0.63-0.42-0.89-0.74
		C2660.14,1779.51,2649.63,1764.24,2640.16,1747.96L2640.16,1747.96z M2689.7,1815.9c-0.91-1.02-0.95-2.55-0.09-3.62
		c1.08-1.33,3.1-1.38,4.24-0.1c12.31,13.78,25.55,26.72,39.5,38.83c2.37,2.05,0.03,5.94-2.97,4.65c-0.25-0.11-0.47-0.26-0.68-0.43
		C2715.58,1842.96,2702.17,1829.86,2689.7,1815.9L2689.7,1815.9z M2751.48,1872.93c-2.43-1.89-0.49-5.75,2.5-4.89
		c0.32,0.1,0.61,0.25,0.88,0.45c14.72,11.2,30.03,21.56,45.96,30.95c1.16,0.68,1.66,2.09,1.21,3.35c-0.61,1.64-2.53,2.34-4.04,1.45
		C2781.86,1894.72,2766.39,1884.28,2751.48,1872.93z"/>
	<g>
		<ellipse class="st1" cx="1931.49" cy="3036.18" rx="745.97" ry="141.44"/>
		<path class="st2" d="M2018.16,2702.95L2018.16,2702.95c0.15,0,0.28,0.12,0.28,0.28c0.15,12.53,10.33,22.71,22.86,22.86
			c0.15,0,0.28,0.13,0.28,0.28v0c0,0.15-0.12,0.28-0.28,0.28c-12.53,0.15-22.71,10.33-22.86,22.86c0,0.15-0.13,0.28-0.28,0.28h0
			c-0.15,0-0.28-0.12-0.28-0.28c-0.15-12.53-10.33-22.71-22.86-22.86c-0.15,0-0.28-0.13-0.28-0.28v0c0-0.15,0.12-0.28,0.28-0.28
			c12.53-0.15,22.71-10.33,22.86-22.86C2017.88,2703.08,2018.01,2702.95,2018.16,2702.95z"/>
		<g>
			<path class="st3" d="M1410.94,2830.22c-44.62-20.66-128.26-60.24-198.09-102.3c-69.83-42.06-125.84-86.6-173.63-146.64
				c-47.79-60.04-87.36-135.57-118.93-210.01c-31.57-74.44-55.15-147.78-74.34-211.42c-19.19-63.63-34-117.56-41.41-144.52
				c-7.41-26.96-7.41-26.96-5.3-27.06c2.11-0.1,6.32-0.29,63.71,35.25c57.39,35.54,167.94,106.82,254.89,173.66
				c86.95,66.84,150.29,129.25,199.06,210.37c48.77,81.12,82.96,180.95,105.53,258.67c22.57,77.71,33.53,133.31,38.98,160.98
				c5.46,27.67,5.41,27.41,2.59,26.41C1461.18,2852.61,1455.57,2850.88,1410.94,2830.22z"/>
			<path class="st4" d="M842.8,2051.49c-0.95-1.22-0.72-2.98,0.5-3.93c1.22-0.95,2.98-0.72,3.93,0.5l113.12,145.95
				c0.06,0.07,0.12,0.15,0.17,0.22l91.38,117.9l-12.61-137.62c-0.14-1.54,0.99-2.91,2.54-3.05c1.54-0.14,2.91,0.99,3.05,2.54
				l13.41,146.38l224.25,289.34l-8.81-171.92c-0.08-1.54,1.1-2.86,2.65-2.94c1.54-0.08,2.86,1.1,2.94,2.65l9.22,179.93l0,0.02
				l103.58,133.65c0.05,0.06,0.1,0.12,0.15,0.19l53.26,68.72c0.95,1.22,0.72,2.98-0.5,3.93c-1.22,0.94-2.98,0.72-3.93-0.5
				l-52.72-68.01l-112.56-26.23c-1.51-0.35-2.44-1.86-2.09-3.37c0.35-1.51,1.86-2.44,3.36-2.09l105.85,24.67l-217.18-280.21
				l-166.31-42.38c-1.5-0.38-2.4-1.9-2.03-3.4c0.38-1.5,1.9-2.4,3.4-2.02l159.36,40.61l-106.71-137.68
				c-0.09-0.1-0.18-0.21-0.25-0.32l-96.84-124.94l-77.55-39.95c-1.37-0.71-1.91-2.4-1.2-3.78c0.71-1.37,2.4-1.91,3.78-1.2
				l66.84,34.43L842.8,2051.49z"/>
		</g>
		<g>
			<path class="st5" d="M1366.78,2965.48c-44.7,1.06-129.08,2.38-211.98-8.93c-13.75-1.88-27.45-4.1-41.07-6.66l101.3-47.11
				l-146.87,37.24c-52.21-12.85-102.35-30.55-147.72-52.28c-70.06-33.55-128.77-76.71-173.97-118.05
				c-4.33-3.96-8.54-7.91-12.63-11.83l83.71-43.85l-106.85,20.58c-27.2-28.66-48.81-56.24-67.95-82.32
				c-26.85-36.58-48.88-70.21-59.89-87.03c-11.01-16.82-11.01-16.82-9.42-17.7c1.59-0.88,4.78-2.65,25.52-4.76
				c20.73-2.11,59-4.58,103.42-5.27c2.47-0.04,4.96-0.07,7.48-0.1l71.87,82.22l-25.13-81.69c30.58,1.12,64.04,4.04,101.27,10.57
				c34.81,6.11,72.91,15.37,112.46,28.51l87.1,152.61l-42.74-136.41c14.87,5.93,29.85,12.43,44.84,19.52
				c70.71,33.46,141.66,80.23,202.1,140.89c60.44,60.66,110.35,135.21,135.24,172.39c24.89,37.18,24.76,37,22.19,37.31
				C1416.48,2963.62,1411.48,2964.42,1366.78,2965.48z"/>
			<path class="st6" d="M602.95,2563.92c-1.2-0.59-1.69-2.04-1.1-3.24c0.59-1.2,2.04-1.69,3.24-1.1l188.49,92.09
				c0.11,0.04,0.21,0.09,0.3,0.15l114.21,55.8l-65.59-123.96c-0.63-1.18-0.18-2.64,1-3.27c1.18-0.63,2.64-0.18,3.27,1l68.7,129.83
				l124.5,60.83c0.06,0.02,0.11,0.05,0.16,0.08l121.4,59.31l-67.7-145.03c-0.56-1.21-0.04-2.65,1.17-3.21
				c1.21-0.56,2.65-0.04,3.21,1.17l70.23,150.45l229.29,112.03c1.2,0.59,1.69,2.04,1.1,3.24c-0.59,1.2-2.04,1.69-3.24,1.1
				l-102.04-49.85l-96.33,37.06c-1.24,0.48-2.65-0.14-3.13-1.38c-0.48-1.25,0.14-2.65,1.38-3.13l92.14-35.45l-122-59.61
				c-0.05-0.02-0.11-0.05-0.16-0.08l-126.68-61.89l-145.81,45.76c-1.27,0.4-2.63-0.31-3.03-1.58c-0.4-1.27,0.31-2.63,1.58-3.03
				l140.95-44.23l-119.77-58.52c-0.05-0.02-0.09-0.04-0.14-0.07l-120.2-58.73l-88.5,19.21c-1.31,0.28-2.6-0.55-2.88-1.85
				c-0.28-1.31,0.55-2.6,1.86-2.88l82.5-17.91L602.95,2563.92z"/>
		</g>
		<path class="st5" d="M812.49,2340.45c-15.13-18.31-40.55-47.13-57.76-58.81c-17.21-11.68-26.23-6.22-29.81,1.62
			c-3.58,7.84-1.74,18.08,17.9,33.66c19.64,15.58,57.07,36.52,73.36,43.08C832.48,2366.57,827.63,2358.76,812.49,2340.45z"/>
		<path class="st5" d="M824.06,2487.65c-9.54-5.89-25.26-14.91-34.72-17.51c-9.46-2.61-12.66,1.2-13.07,5.24
			c-0.41,4.05,1.96,8.34,13.1,12.33c11.14,3.99,31.03,7.66,39.3,8.13C836.95,2496.29,833.6,2493.53,824.06,2487.65z"/>
		<g>
			<path class="st3" d="M2495.13,2880.65c41.45-21.73,119.09-63.28,183.49-106.54c64.4-43.26,115.55-88.23,158.16-147.54
				c42.61-59.31,76.68-132.96,103.19-205.2c26.52-72.24,45.48-143.06,60.74-204.45c15.26-61.39,26.8-113.34,32.58-139.31
				c5.77-25.98,5.77-25.98,3.76-25.97c-2.01,0.01-6.02,0.02-58.9,36.5c-52.88,36.48-154.62,109.42-234.13,177.03
				c-79.51,67.62-136.79,129.91-179.33,209.3c-42.55,79.4-70.36,175.9-88.17,250.82c-17.81,74.93-25.61,128.29-29.5,154.85
				c-3.89,26.56-3.86,26.31-1.22,25.23C2448.44,2904.3,2453.69,2902.39,2495.13,2880.65z"/>
			<path class="st4" d="M3005.73,2109.83c0.84-1.21,0.54-2.87-0.66-3.71c-1.21-0.84-2.87-0.54-3.71,0.66l-100.67,144.04
				c-0.06,0.07-0.11,0.14-0.15,0.22l-81.32,116.36l5.53-131.4c0.06-1.47-1.08-2.72-2.56-2.78s-2.72,1.08-2.78,2.56l-5.88,139.77
				l-199.58,285.55l0.3-163.83c0.01-1.47-1.18-2.67-2.65-2.67c-1.47,0-2.67,1.18-2.67,2.65l-0.32,171.46l0,0.02l-92.19,131.9
				c-0.05,0.06-0.09,0.12-0.13,0.19l-47.4,67.82c-0.84,1.21-0.54,2.87,0.66,3.71c1.21,0.84,2.87,0.54,3.71-0.66l46.92-67.12
				l105.76-30.22c1.42-0.4,2.24-1.88,1.83-3.3c-0.4-1.42-1.88-2.24-3.3-1.83l-99.45,28.41l193.28-276.54l156.1-48.09
				c1.41-0.43,2.2-1.92,1.77-3.33s-1.92-2.2-3.33-1.77l-149.57,46.08l94.97-135.87c0.08-0.1,0.16-0.21,0.22-0.32l86.18-123.3
				l71.84-41.62c1.27-0.74,1.7-2.37,0.96-3.65c-0.74-1.27-2.37-1.7-3.65-0.96l-61.91,35.87L3005.73,2109.83z"/>
		</g>
		<g>
			<path class="st5" d="M2559.19,2971.84c43.01,2.01,124.22,5.16,204.28-3.89c13.28-1.5,26.52-3.34,39.69-5.5l-96.48-47.61
				l140.57,39.11c50.55-11.21,99.21-27.14,143.38-47.05c68.19-30.75,125.68-70.99,170.1-109.78c4.26-3.72,8.4-7.42,12.42-11.11
				l-79.61-44.08l102.41,22.18c26.83-26.99,48.23-53.06,67.25-77.74c26.66-34.62,48.61-66.51,59.59-82.46
				c10.98-15.95,10.98-15.95,9.46-16.83c-1.52-0.88-4.55-2.65-24.46-5.15c-19.91-2.5-56.7-5.72-99.45-7.37
				c-2.38-0.09-4.78-0.18-7.2-0.26l-71.01,77.56l26.01-78.09c-29.47,0.4-61.74,2.47-97.73,7.93
				c-33.65,5.11-70.54,13.18-108.91,24.95l-87.24,144.98l44.17-130.38c-14.45,5.38-29.02,11.3-43.6,17.8
				c-68.81,30.64-138.17,74.09-197.7,131.15c-59.53,57.06-109.24,127.72-134.03,162.96c-24.79,35.25-24.66,35.07-22.19,35.43
				C2511.38,2968.94,2516.18,2969.82,2559.19,2971.84z"/>
			<path class="st6" d="M3303.46,2602.2c1.17-0.54,1.67-1.93,1.13-3.09c-0.54-1.17-1.93-1.67-3.09-1.13l-183.51,84.47
				c-0.1,0.04-0.2,0.08-0.3,0.14l-111.19,51.19l65.9-117.88c0.63-1.12,0.23-2.54-0.89-3.17c-1.12-0.63-2.54-0.23-3.17,0.89
				l-69.02,123.47l-121.21,55.8c-0.05,0.02-0.11,0.05-0.16,0.07l-118.19,54.41l68.4-138.12c0.57-1.15,0.1-2.55-1.06-3.12
				c-1.15-0.57-2.55-0.09-3.12,1.06l-70.96,143.29l-223.24,102.76c-1.17,0.54-1.67,1.93-1.13,3.09c0.54,1.17,1.93,1.67,3.09,1.13
				l99.34-45.73l91.92,37.82c1.19,0.49,2.55-0.08,3.04-1.26c0.49-1.19-0.08-2.55-1.26-3.04l-87.92-36.17l118.78-54.68
				c0.05-0.02,0.1-0.05,0.15-0.07l123.33-56.77l139.36,47.29c1.22,0.41,2.54-0.24,2.96-1.46c0.41-1.22-0.24-2.54-1.46-2.96
				l-134.71-45.72l116.61-53.68c0.04-0.02,0.09-0.04,0.13-0.06l117.03-53.87l84.77,20.46c1.25,0.3,2.51-0.47,2.82-1.72
				c0.3-1.25-0.47-2.51-1.72-2.82l-79.03-19.07L3303.46,2602.2z"/>
		</g>
		<path class="st5" d="M3029.69,2429.8c13.54-16.4,36.27-42.21,51.67-52.67s23.47-5.58,26.69,1.44c3.21,7.02,1.56,16.18-16.01,30.14
			c-17.57,13.96-51.06,32.72-65.64,38.6C3011.82,2453.2,3016.16,2446.2,3029.69,2429.8z"/>
		<rect x="1303.66" y="2140.73" class="st7" width="1270.64" height="905.59"/>
		<path class="st8" d="M2574.29,2140.73V2434c-73.4-20.87-153.73-39.96-269.9-57.28c-138.3-20.62-327.39-38.72-527.55-50.79
			c-166.35-10.03-340.34-15.89-473.19-18.74v-162.55c18.53-1.36,37.77-2.66,57.72-3.91H2574.29z"/>
		<polygon class="st9" points="1289.23,2088.29 1264.54,2051.77 1411.19,1870.55 2466.75,1869.12 2613.4,2051.77 2582.24,2085.43 		
			"/>
		<g>
			<path class="st10" d="M1567.18,1912.49c63.38,0,126.59,0,189.36,0c62.51,0,124.76,0,186.74,0c61.72,0,123,0,184.11,0
				c60.84,0,121.34,0,181.75,0c10.33,0,21.16,2.67,30.22,6.96c4.58,2.17,8.79,4.76,12.33,7.69c3.48,2.87,6.39,6.08,8.22,9.45l0,0
				c1.88,3.45,2.5,6.75,2.09,9.78c-0.41,3.01-1.82,5.77-4.09,8.08c-4.63,4.72-13.15,7.65-24.11,7.67
				c-63.75,0.12-127.75,0.24-192.09,0.36c-64.58,0.12-129.5,0.25-194.76,0.37c-65.59,0.12-131.6,0.25-197.77,0.37
				c-66.59,0.13-133.44,0.25-200.62,0.38c-11.54,0.02-21.01-3-26.67-7.82c-2.83-2.41-4.66-5.21-5.58-8.32
				c-0.93-3.12-0.55-6.55,0.89-10.1c0,0-0.01,0-0.01-0.01c1.41-3.48,3.94-6.8,7.12-9.77c3.24-3.02,7.29-5.7,11.82-7.94
				C1545.12,1915.23,1556.24,1912.49,1567.18,1912.49z"/>
			<path class="st11" d="M1584.38,1913.39c60.45,0,120.74,0,180.61,0c59.62,0,118.98,0,178.1,0c58.87,0,117.31,0,175.59,0
				c58.03,0,115.73,0,173.34,0c9.85,0,20.18,1.93,28.82,5.04c4.37,1.57,8.38,3.45,11.76,5.57c3.32,2.08,6.1,4.41,7.84,6.84l0,0
				c1.79,2.5,2.38,4.89,1.99,7.08c-0.39,2.18-1.74,4.18-3.9,5.85c-4.41,3.42-12.54,5.54-22.99,5.56
				c-60.8,0.09-121.84,0.18-183.2,0.26c-61.6,0.09-123.51,0.18-185.75,0.27c-62.55,0.09-125.51,0.18-188.62,0.27
				c-63.51,0.09-127.27,0.18-191.34,0.28c-11.01,0.02-20.04-2.17-25.43-5.66c-2.7-1.75-4.44-3.78-5.32-6.03
				c-0.89-2.26-0.52-4.74,0.85-7.32c0,0-0.01,0,0-0.01c1.34-2.52,3.76-4.93,6.79-7.07c3.09-2.19,6.96-4.13,11.27-5.75
				C1563.34,1915.37,1573.95,1913.39,1584.38,1913.39z"/>
		</g>
		<rect x="1264.54" y="2050.07" class="st12" width="1348.86" height="224.55"/>
		<path class="st13" d="M1774.53,2406.9c-34.07,6.82-63.79,24.05-83.37,52.71c-19.58,28.66-29.01,68.74-21.92,109.95
			c7.09,41.21,30.72,83.55,60.29,118.29c29.57,34.75,65.08,61.9,99.37,81.95c34.29,20.05,67.35,32.99,84.81,39.46
			c17.46,6.47,19.31,6.47,36.36-0.64c17.05-7.11,49.31-21.32,84.98-44.51c35.67-23.19,74.75-55.36,103-92.06
			c28.25-36.7,45.67-77.93,47.39-117.59c1.72-39.66-12.25-77.74-35.75-104.64c-23.5-26.9-56.51-42.62-90.05-46.54
			c-33.54-3.93-67.59,3.93-89.82,16.4c-22.23,12.47-32.62,29.55-37.82,38.08c-5.2,8.54-5.2,8.54-5.65,7.61
			c-0.45-0.92-1.34-2.77-8.23-12.61c-6.89-9.83-19.78-27.65-45.44-38.36C1847.03,2403.69,1808.6,2400.08,1774.53,2406.9z"/>
		<path class="st14" d="M1667.26,2553.03c0.37,5.47,1.02,10.98,1.98,16.52c7.09,41.21,30.72,83.55,60.29,118.29
			c29.57,34.75,65.08,61.9,99.37,81.95c34.29,20.05,67.36,32.99,84.81,39.46c17.46,6.47,19.31,6.47,36.36-0.64
			c17.05-7.11,49.31-21.32,84.98-44.51c35.67-23.19,74.75-55.36,103-92.06c28.25-36.7,45.67-77.93,47.39-117.59
			c1.72-39.66-12.25-77.74-35.75-104.64c-1.87-2.14-3.8-4.21-5.79-6.21c0.74,1.45,1.47,2.94,2.17,4.48
			c13.39,29.1,19.61,72.54,7.43,115.87c-12.18,43.33-42.75,86.56-81.55,116.4c-38.8,29.84-85.82,46.29-130.21,52.3
			c-44.39,6.01-86.14,1.58-125.31-14.92c-39.17-16.5-75.76-45.07-100.64-71.75c-24.88-26.68-38.06-51.45-45.44-79.39
			C1669.18,2562.14,1668.15,2557.61,1667.26,2553.03z"/>
		<path class="st15" d="M1778.22,2432.11c-15.81,3.95-35.32,12.92-50.61,27.94c-15.29,15.02-26.36,36.11-30.84,57.73
			c-4.48,21.61-2.37,43.76,6.85,58.52c9.23,14.76,25.57,22.14,36.9,11.6c11.33-10.54,17.66-39.01,27.15-57.99
			c9.49-18.98,22.14-28.47,32.95-37.17c10.81-8.7,19.77-16.61,22.4-26.89c2.64-10.28-1.05-22.93-8.96-29.79
			C1806.16,2429.21,1794.03,2428.16,1778.22,2432.11z"/>
		<path class="st16" d="M1721.88,2898.97c0,6.82-0.87,12.78-2.62,17.87c-1.75,5.11-4.3,9.33-7.65,12.68
			c-3.35,3.35-7.46,5.86-12.32,7.52c-4.88,1.66-10.68,2.49-17.42,2.49h-16.69c-0.94,0-1.83-0.31-2.66-0.93
			c-0.83-0.64-1.25-1.75-1.25-3.32v-70.28c0-1.58,0.42-2.68,1.25-3.33c0.83-0.62,1.73-0.94,2.66-0.94h17.83
			c6.84,0,12.59,0.87,17.31,2.64c4.7,1.77,8.64,4.32,11.85,7.63c3.18,3.3,5.59,7.31,7.23,12.03
			C1721.05,2887.73,1721.88,2893.05,1721.88,2898.97L1721.88,2898.97z M1710.9,2899.43c0-4.26-0.52-8.23-1.58-11.91
			c-1.06-3.68-2.72-6.86-4.97-9.54c-2.26-2.68-5.11-4.76-8.58-6.28c-3.45-1.5-7.9-2.24-13.34-2.24h-10.68v61.35h10.79
			c5.05,0,9.29-0.62,12.76-1.89c3.45-1.25,6.34-3.18,8.64-5.78c2.33-2.6,4.07-5.86,5.22-9.79
			C1710.32,2909.45,1710.9,2904.79,1710.9,2899.43L1710.9,2899.43z M1803.95,2899.22c0,6.38-0.75,12.12-2.24,17.23
			c-1.52,5.11-3.76,9.46-6.73,13.05c-2.99,3.57-6.73,6.34-11.24,8.27c-4.51,1.93-9.77,2.89-15.77,2.89
			c-5.92,0-11.03-0.87-15.36-2.64c-4.34-1.77-7.9-4.34-10.72-7.71c-2.83-3.37-4.93-7.54-6.3-12.53c-1.39-4.99-2.08-10.72-2.08-17.21
			c0-6.21,0.75-11.87,2.25-16.94c1.52-5.07,3.76-9.37,6.77-12.93c2.99-3.53,6.75-6.28,11.26-8.21c4.49-1.93,9.75-2.89,15.77-2.89
			c5.8,0,10.85,0.87,15.15,2.62c4.3,1.75,7.9,4.28,10.74,7.63c2.87,3.35,5.01,7.48,6.4,12.43
			C1803.24,2887.21,1803.95,2892.86,1803.95,2899.22L1803.95,2899.22z M1792.85,2899.95c0-4.45-0.39-8.6-1.18-12.43
			c-0.79-3.82-2.1-7.15-3.95-9.98c-1.85-2.81-4.3-5.01-7.38-6.59c-3.1-1.58-6.9-2.37-11.43-2.37c-4.55,0-8.35,0.85-11.43,2.56
			c-3.08,1.7-5.59,3.97-7.5,6.8c-1.93,2.85-3.3,6.15-4.14,9.95c-0.83,3.78-1.25,7.75-1.25,11.93c0,4.63,0.39,8.87,1.16,12.76
			c0.77,3.91,2.06,7.25,3.89,10.08c1.81,2.81,4.26,4.99,7.32,6.55c3.05,1.56,6.9,2.35,11.51,2.35c4.59,0,8.44-0.85,11.56-2.56
			c3.12-1.7,5.63-3.99,7.54-6.9c1.89-2.89,3.26-6.25,4.07-10.06C1792.45,2908.24,1792.85,2904.21,1792.85,2899.95L1792.85,2899.95z
			 M1880.15,2935.15c0,0.81-0.15,1.52-0.42,2.08c-0.27,0.56-0.62,1.04-1.06,1.39c-0.44,0.37-0.93,0.62-1.48,0.79
			c-0.56,0.17-1.1,0.25-1.64,0.25h-3.47c-1.08,0-2.04-0.1-2.87-0.33c-0.81-0.23-1.58-0.62-2.33-1.21c-0.73-0.58-1.48-1.37-2.2-2.37
			c-0.73-1-1.52-2.31-2.35-3.89l-24.07-44.83c-1.27-2.31-2.54-4.74-3.8-7.27c-1.29-2.53-2.47-5.01-3.57-7.4h-0.12
			c0.08,2.91,0.15,5.9,0.19,8.96c0.04,3.03,0.06,6.07,0.06,9.06v47.57c0,0.29-0.08,0.56-0.25,0.83c-0.19,0.25-0.48,0.46-0.87,0.6
			c-0.42,0.15-0.93,0.27-1.6,0.37c-0.66,0.1-1.52,0.15-2.54,0.15c-1.04,0-1.89-0.04-2.56-0.15c-0.67-0.1-1.18-0.23-1.56-0.37
			c-0.4-0.15-0.66-0.35-0.85-0.6c-0.17-0.27-0.25-0.54-0.25-0.83v-72.72c0-1.62,0.46-2.78,1.39-3.47c0.91-0.69,1.91-1.04,3.01-1.04
			h5.15c1.2,0,2.22,0.1,3.03,0.31c0.83,0.19,1.56,0.54,2.2,1c0.64,0.46,1.29,1.12,1.89,1.95c0.6,0.83,1.25,1.87,1.91,3.14
			l18.5,34.58c1.14,2.12,2.24,4.18,3.3,6.19c1.06,2.02,2.1,3.99,3.08,5.94c0.98,1.93,1.95,3.87,2.91,5.76
			c0.98,1.87,1.91,3.78,2.87,5.69h0.06c-0.08-3.22-0.15-6.55-0.17-10.02c-0.02-3.47-0.02-6.82-0.02-10.02v-42.71
			c0-0.29,0.08-0.56,0.25-0.79c0.19-0.25,0.48-0.46,0.87-0.64c0.42-0.19,0.96-0.31,1.6-0.4c0.66-0.08,1.54-0.12,2.62-0.12
			c0.94,0,1.75,0.04,2.43,0.12c0.69,0.08,1.23,0.21,1.6,0.4c0.4,0.19,0.67,0.4,0.85,0.64c0.17,0.23,0.25,0.5,0.25,0.79V2935.15
			L1880.15,2935.15z M1960.04,2935.84c0.31,0.89,0.5,1.6,0.52,2.16c0.02,0.54-0.15,0.96-0.46,1.25c-0.33,0.27-0.87,0.46-1.62,0.54
			c-0.75,0.08-1.75,0.12-3.01,0.12c-1.25,0-2.27-0.02-3.01-0.08c-0.75-0.06-1.31-0.17-1.7-0.31c-0.39-0.14-0.67-0.33-0.85-0.58
			c-0.19-0.25-0.35-0.54-0.52-0.91l-6.75-19.18h-32.75l-6.46,18.93c-0.12,0.37-0.27,0.69-0.48,0.96c-0.21,0.27-0.5,0.48-0.89,0.66
			c-0.37,0.19-0.93,0.31-1.64,0.4c-0.71,0.08-1.62,0.12-2.76,0.12c-1.18,0-2.14-0.04-2.89-0.15c-0.75-0.1-1.29-0.29-1.58-0.58
			c-0.31-0.29-0.46-0.71-0.44-1.25c0.02-0.56,0.19-1.27,0.52-2.16l26.41-73.21c0.17-0.46,0.39-0.83,0.64-1.1
			c0.27-0.29,0.64-0.52,1.16-0.66c0.5-0.17,1.14-0.29,1.95-0.35c0.79-0.06,1.79-0.08,3.01-0.08c1.29,0,2.37,0.02,3.22,0.08
			c0.85,0.06,1.54,0.19,2.06,0.35c0.54,0.14,0.93,0.39,1.23,0.69c0.29,0.31,0.52,0.69,0.67,1.12L1960.04,2935.84L1960.04,2935.84z
			 M1926.12,2871.21h-0.06l-13.57,39.28h27.39L1926.12,2871.21L1926.12,2871.21z M2012.83,2865.22c0-0.77-0.04-1.45-0.12-2.04
			c-0.08-0.58-0.21-1.06-0.4-1.41c-0.19-0.37-0.39-0.64-0.66-0.79c-0.27-0.17-0.56-0.25-0.87-0.25h-54.74
			c-0.31,0-0.6,0.08-0.87,0.25c-0.27,0.15-0.48,0.42-0.64,0.79c-0.15,0.35-0.29,0.83-0.39,1.41c-0.1,0.58-0.15,1.27-0.15,2.04
			c0,0.77,0.04,1.43,0.15,1.99c0.1,0.56,0.25,1.02,0.39,1.37c0.17,0.33,0.37,0.6,0.64,0.75c0.27,0.17,0.56,0.25,0.87,0.25h22.13
			v68.37c0,0.33,0.08,0.6,0.25,0.85c0.17,0.25,0.44,0.44,0.85,0.58c0.4,0.15,0.96,0.27,1.64,0.37c0.69,0.1,1.52,0.15,2.49,0.15
			c1.02,0,1.85-0.04,2.54-0.15c0.66-0.1,1.2-0.23,1.6-0.37c0.42-0.15,0.69-0.33,0.85-0.58c0.17-0.25,0.25-0.52,0.25-0.85v-68.37
			h22.13c0.31,0,0.6-0.08,0.87-0.25c0.27-0.15,0.48-0.42,0.66-0.75c0.19-0.35,0.31-0.81,0.4-1.37
			C2012.78,2866.66,2012.83,2865.99,2012.83,2865.22L2012.83,2865.22z M2034.69,2937.96c0,0.33-0.08,0.62-0.25,0.85
			c-0.17,0.25-0.44,0.44-0.85,0.58c-0.4,0.15-0.94,0.27-1.6,0.37c-0.69,0.1-1.52,0.15-2.54,0.15c-0.98,0-1.81-0.04-2.49-0.15
			c-0.69-0.1-1.25-0.23-1.64-0.37c-0.42-0.15-0.69-0.33-0.85-0.58c-0.17-0.23-0.25-0.52-0.25-0.85v-75.65
			c0-0.33,0.08-0.62,0.27-0.85c0.19-0.25,0.5-0.44,0.91-0.58c0.44-0.15,0.98-0.27,1.64-0.37c0.67-0.1,1.48-0.15,2.41-0.15
			c1.02,0,1.85,0.04,2.54,0.15c0.67,0.1,1.21,0.23,1.6,0.37c0.42,0.15,0.69,0.33,0.85,0.58c0.17,0.23,0.25,0.52,0.25,0.85V2937.96
			L2034.69,2937.96z M2121.6,2899.22c0,6.38-0.75,12.12-2.24,17.23c-1.52,5.11-3.76,9.46-6.73,13.05
			c-2.99,3.57-6.73,6.34-11.24,8.27c-4.51,1.93-9.77,2.89-15.77,2.89c-5.92,0-11.03-0.87-15.36-2.64c-4.34-1.77-7.9-4.34-10.72-7.71
			s-4.93-7.54-6.3-12.53c-1.39-4.99-2.08-10.72-2.08-17.21c0-6.21,0.75-11.87,2.24-16.94c1.52-5.07,3.76-9.37,6.77-12.93
			c2.99-3.53,6.75-6.28,11.26-8.21c4.49-1.93,9.75-2.89,15.77-2.89c5.8,0,10.85,0.87,15.15,2.62s7.9,4.28,10.74,7.63
			c2.87,3.35,5.01,7.48,6.4,12.43C2120.89,2887.21,2121.6,2892.86,2121.6,2899.22L2121.6,2899.22z M2110.5,2899.95
			c0-4.45-0.4-8.6-1.19-12.43c-0.79-3.82-2.1-7.15-3.95-9.98c-1.85-2.81-4.3-5.01-7.38-6.59c-3.1-1.58-6.9-2.37-11.43-2.37
			c-4.55,0-8.35,0.85-11.43,2.56c-3.08,1.7-5.59,3.97-7.5,6.8c-1.93,2.85-3.3,6.15-4.14,9.95c-0.83,3.78-1.25,7.75-1.25,11.93
			c0,4.63,0.39,8.87,1.16,12.76c0.77,3.91,2.06,7.25,3.89,10.08c1.81,2.81,4.26,4.99,7.32,6.55c3.05,1.56,6.9,2.35,11.51,2.35
			c4.59,0,8.44-0.85,11.55-2.56c3.12-1.7,5.63-3.99,7.54-6.9c1.89-2.89,3.26-6.25,4.07-10.06
			C2110.11,2908.24,2110.5,2904.21,2110.5,2899.95L2110.5,2899.95z M2197.81,2935.15c0,0.81-0.15,1.52-0.42,2.08
			c-0.27,0.56-0.62,1.04-1.06,1.39c-0.44,0.37-0.93,0.62-1.48,0.79c-0.56,0.17-1.1,0.25-1.64,0.25h-3.47c-1.08,0-2.04-0.1-2.87-0.33
			c-0.81-0.23-1.58-0.62-2.33-1.21c-0.73-0.58-1.48-1.37-2.2-2.37s-1.52-2.31-2.35-3.89l-24.07-44.83c-1.27-2.31-2.53-4.74-3.8-7.27
			c-1.29-2.53-2.47-5.01-3.57-7.4h-0.12c0.08,2.91,0.14,5.9,0.19,8.96c0.04,3.03,0.06,6.07,0.06,9.06v47.57
			c0,0.29-0.08,0.56-0.25,0.83c-0.19,0.25-0.48,0.46-0.87,0.6c-0.42,0.15-0.94,0.27-1.6,0.37c-0.66,0.1-1.52,0.15-2.54,0.15
			c-1.04,0-1.89-0.04-2.56-0.15c-0.66-0.1-1.18-0.23-1.56-0.37c-0.4-0.15-0.67-0.35-0.85-0.6c-0.17-0.27-0.25-0.54-0.25-0.83v-72.72
			c0-1.62,0.46-2.78,1.39-3.47c0.91-0.69,1.91-1.04,3.01-1.04h5.15c1.2,0,2.22,0.1,3.03,0.31c0.83,0.19,1.56,0.54,2.2,1
			c0.64,0.46,1.29,1.12,1.89,1.95c0.6,0.83,1.25,1.87,1.91,3.14l18.49,34.58c1.14,2.12,2.24,4.18,3.3,6.19
			c1.06,2.02,2.1,3.99,3.08,5.94c0.98,1.93,1.95,3.87,2.91,5.76c0.98,1.87,1.91,3.78,2.87,5.69h0.06
			c-0.08-3.22-0.15-6.55-0.17-10.02c-0.02-3.47-0.02-6.82-0.02-10.02v-42.71c0-0.29,0.08-0.56,0.25-0.79
			c0.19-0.25,0.48-0.46,0.87-0.64c0.42-0.19,0.96-0.31,1.6-0.4c0.66-0.08,1.54-0.12,2.62-0.12c0.93,0,1.75,0.04,2.43,0.12
			c0.69,0.08,1.23,0.21,1.6,0.4c0.4,0.19,0.67,0.4,0.85,0.64c0.17,0.23,0.25,0.5,0.25,0.79V2935.15z"/>
	</g>
	<g>
		<path class="st13" d="M1490.12,1278.11c-34.89,6.98-65.32,24.63-85.36,53.97c-20.05,29.34-29.71,70.38-22.44,112.58
			c7.26,42.2,31.45,85.55,61.73,121.12c30.28,35.58,66.64,63.38,101.75,83.91c35.11,20.53,68.97,33.78,86.84,40.41
			c17.87,6.62,19.77,6.62,37.23-0.65c17.46-7.28,50.49-21.83,87.01-45.57c36.52-23.74,76.54-56.68,105.47-94.26
			c28.93-37.58,46.76-79.79,48.52-120.4c1.76-40.61-12.55-79.6-36.6-107.15c-24.06-27.54-57.87-43.64-92.21-47.66
			c-34.34-4.02-69.21,4.02-91.97,16.79c-22.76,12.77-33.4,30.25-38.72,38.99c-5.32,8.74-5.32,8.74-5.78,7.8
			c-0.46-0.95-1.37-2.84-8.43-12.91c-7.05-10.07-20.25-28.31-46.52-39.28C1564.36,1274.82,1525.01,1271.13,1490.12,1278.11z"/>
		<path class="st14" d="M1380.29,1427.74c0.38,5.6,1.05,11.25,2.03,16.92c7.26,42.2,31.45,85.55,61.73,121.12
			c30.28,35.58,66.64,63.38,101.75,83.91c35.11,20.53,68.97,33.78,86.84,40.41c17.87,6.62,19.77,6.62,37.23-0.65
			c17.46-7.28,50.49-21.83,87.01-45.57c36.52-23.74,76.54-56.68,105.47-94.26c28.93-37.58,46.76-79.79,48.52-120.4
			c1.76-40.61-12.55-79.6-36.6-107.15c-1.91-2.19-3.89-4.31-5.93-6.36c0.76,1.49,1.5,3.01,2.22,4.58
			c13.71,29.8,20.08,74.27,7.61,118.65c-12.47,44.37-43.78,88.63-83.51,119.19c-39.73,30.55-87.88,47.39-133.33,53.55
			c-45.45,6.15-88.2,1.62-128.31-15.28c-40.11-16.9-77.57-46.15-103.05-73.47c-25.48-27.31-38.97-52.68-46.53-81.29
			C1382.25,1437.07,1381.2,1432.43,1380.29,1427.74z"/>
	</g>
	<g>
		<circle class="st17" cx="2344.2" cy="1209.6" r="236.01"/>
		
			<ellipse transform="matrix(0.7071 -0.7071 0.7071 0.7071 -168.7201 2011.8811)" class="st18" cx="2344.2" cy="1209.6" rx="206.97" ry="206.97"/>
		<path class="st19" d="M2523.74,1106.57c17.45,30.34,27.43,65.52,27.43,103.04c0,114.31-92.66,206.97-206.97,206.97
			c-58.08,0-110.57-23.94-148.16-62.47c-17.45-30.34-27.43-65.52-27.43-103.04c0-114.31,92.66-206.97,206.97-206.97
			C2433.66,1044.1,2486.15,1068.03,2523.74,1106.57z"/>
		<path class="st20" d="M2415.25,1156.04h-62.49v-10.32c0-11.01-0.74-18.17-2.17-21.54c-1.43-3.42-4.49-5.11-9.25-5.11
			c-3.81,0-6.66,1.48-8.57,4.37c-1.9,2.95-2.85,7.32-2.85,13.22c0,9.74,1.95,16.59,5.87,20.49c3.81,3.9,15.07,11.48,33.73,22.81
			c15.86,9.59,26.7,16.91,32.46,21.96c5.76,5.11,10.63,12.27,14.59,21.59c3.97,9.32,5.97,20.91,5.97,34.76
			c0,22.17-5.34,39.61-16.07,52.25c-10.73,12.64-26.86,20.44-48.32,23.44v23.39h-28.87v-24.02c-16.71-1.63-31.3-8.06-43.78-19.22
			c-12.48-11.11-18.72-30.6-18.72-58.36v-12.17h62.49v15.22c0,16.75,0.64,27.13,1.96,31.18c1.27,4.06,4.39,6.06,9.31,6.06
			c4.23,0,7.4-1.42,9.46-4.21c2.06-2.84,3.07-7.06,3.07-12.59c0-13.96-1-23.96-2.96-29.97c-1.96-6-8.62-12.59-20.09-19.65
			c-19.09-11.96-32.04-20.7-38.91-26.28c-6.82-5.64-12.79-13.48-17.76-23.7c-5.02-10.17-7.51-21.65-7.51-34.5
			c0-18.59,5.29-33.18,15.86-43.77c10.57-10.59,26.44-17.12,47.58-19.59v-19.91h28.87v19.91c19.3,2.48,33.73,8.9,43.35,19.33
			c9.57,10.43,14.38,24.86,14.38,43.24C2415.89,1146.87,2415.68,1150.82,2415.25,1156.04z"/>
	</g>
	<path class="st21" d="M1704.06,938.07L1704.06,938.07c1.8,0,3.27,1.47,3.27,3.27v294.41c0,1.8-1.47,3.27-3.27,3.27l0,0
		c-1.8,0-3.27-1.47-3.27-3.27V941.34C1700.79,939.54,1702.26,938.07,1704.06,938.07L1704.06,938.07z M1588.47,940.25L1588.47,940.25
		c1.8,0,3.27,1.47,3.27,3.27v285.69c0,1.8-1.47,3.27-3.27,3.27l0,0c-1.8,0-3.27-1.47-3.27-3.27V943.52
		C1585.2,941.72,1586.67,940.25,1588.47,940.25L1588.47,940.25z M1646.26,891.18L1646.26,891.18c1.8,0,3.27,1.47,3.27,3.27v370.75
		c0,1.8-1.47,3.27-3.27,3.27l0,0c-1.8,0-3.27-1.47-3.27-3.27V894.45C1642.99,892.65,1644.46,891.18,1646.26,891.18z"/>
	<path class="st21" d="M2261.24,562.87L2261.24,562.87c1.84,0,3.35,1.51,3.35,3.35v292.27c0,1.84-1.51,3.35-3.35,3.35l0,0
		c-1.84,0-3.35-1.51-3.35-3.35V566.22C2257.89,564.38,2259.4,562.87,2261.24,562.87L2261.24,562.87z M2320.36,512.67L2320.36,512.67
		c1.84,0,3.35,1.51,3.35,3.35v379.29c0,1.84-1.51,3.35-3.35,3.35l0,0c-1.84,0-3.35-1.51-3.35-3.35V516.02
		C2317.01,514.18,2318.52,512.67,2320.36,512.67z"/>
</g>
</svg>
