<?xml version="1.0" encoding="utf-8"?>
<!-- Generator: Adobe Illustrator 25.2.1, SVG Export Plug-In . SVG Version: 6.00 Build 0)  -->
<svg version="1.1" id="Ñëîé_1" xmlns="http://www.w3.org/2000/svg" xmlns:xlink="http://www.w3.org/1999/xlink" x="0px" y="0px"
	 viewBox="0 0 2327.5 2043.6" style="enable-background:new 0 0 2327.5 2043.6;" xml:space="preserve">
<style type="text/css">
	.st0{fill-rule:evenodd;clip-rule:evenodd;fill:#E8EDFF;}
	.st1{fill-rule:evenodd;clip-rule:evenodd;fill:#29297D;}
	.st2{fill-rule:evenodd;clip-rule:evenodd;fill:#F2BF24;}
	.st3{fill-rule:evenodd;clip-rule:evenodd;fill:#29B5C9;}
	.st4{fill:#29297D;}
	.st5{fill-rule:evenodd;clip-rule:evenodd;fill:#FFA8BF;}
	.st6{fill-rule:evenodd;clip-rule:evenodd;fill:#A3CCFC;}
	.st7{fill-rule:evenodd;clip-rule:evenodd;fill:#EDB39E;}
	.st8{fill-rule:evenodd;clip-rule:evenodd;fill:#70ABEB;}
	.st9{fill-rule:evenodd;clip-rule:evenodd;fill:#D69680;}
	.st10{fill-rule:evenodd;clip-rule:evenodd;fill:#EDF0FA;}
	.st11{fill-rule:evenodd;clip-rule:evenodd;fill:#171A5C;}
	.st12{fill-rule:evenodd;clip-rule:evenodd;fill:#AD7554;}
	.st13{fill-rule:evenodd;clip-rule:evenodd;fill:#96C7FF;}
	.st14{fill-rule:evenodd;clip-rule:evenodd;fill:#F7CCBF;}
	.st15{fill-rule:evenodd;clip-rule:evenodd;fill:#C78A73;}
	.st16{fill:#C78A73;}
	.st17{fill:#D69680;}
	.st18{fill-rule:evenodd;clip-rule:evenodd;fill:#590505;}
	.st19{fill-rule:evenodd;clip-rule:evenodd;fill:#940505;}
	.st20{fill-rule:evenodd;clip-rule:evenodd;fill:#E6E6E6;}
	.st21{fill-rule:evenodd;clip-rule:evenodd;fill:#009933;}
	.st22{fill-rule:evenodd;clip-rule:evenodd;fill:#037D2B;}
	.st23{fill-rule:evenodd;clip-rule:evenodd;fill:#0A6E2B;}
	.st24{fill-rule:evenodd;clip-rule:evenodd;fill:#96E3FA;}
	.st25{fill-rule:evenodd;clip-rule:evenodd;fill:#F5F7FA;}
	.st26{fill-rule:evenodd;clip-rule:evenodd;fill:#478FA6;}
	.st27{fill-rule:evenodd;clip-rule:evenodd;fill:#57C7ED;}
	.st28{fill-rule:evenodd;clip-rule:evenodd;fill:#63ABBA;}
	.st29{fill-rule:evenodd;clip-rule:evenodd;fill:#2B7D91;}
	.st30{fill-rule:evenodd;clip-rule:evenodd;fill:#C9EDFF;}
	.st31{fill-rule:evenodd;clip-rule:evenodd;fill:#ABABAB;}
	.st32{fill-rule:evenodd;clip-rule:evenodd;fill:#C7C4C4;}
	.st33{fill-rule:evenodd;clip-rule:evenodd;fill:#ABBDC9;}
	.st34{fill-rule:evenodd;clip-rule:evenodd;fill:#EDEDED;}
	.st35{fill-rule:evenodd;clip-rule:evenodd;fill:#F7C738;}
	.st36{fill-rule:evenodd;clip-rule:evenodd;fill:#E3B521;}
	.st37{fill-rule:evenodd;clip-rule:evenodd;fill:#996633;}
	.st38{fill-rule:evenodd;clip-rule:evenodd;fill:#FCAB2E;}
	.st39{fill-rule:evenodd;clip-rule:evenodd;fill:#F59412;}
	.st40{fill-rule:evenodd;clip-rule:evenodd;fill:#FFC46B;}
	.st41{fill-rule:evenodd;clip-rule:evenodd;fill:#78C4EB;}
	.st42{fill-rule:evenodd;clip-rule:evenodd;fill:#54A3C9;}
	.st43{fill-rule:evenodd;clip-rule:evenodd;fill:#CCCCCC;}
	.st44{fill-rule:evenodd;clip-rule:evenodd;fill:#54AD54;}
	.st45{fill-rule:evenodd;clip-rule:evenodd;fill:#CF300F;}
	.st46{fill-rule:evenodd;clip-rule:evenodd;fill:#F0A394;}
	.st47{fill:none;stroke:#B08C5C;stroke-width:2.5918;stroke-linejoin:round;stroke-miterlimit:22.9256;}
	.st48{fill-rule:evenodd;clip-rule:evenodd;fill:#F0D9B0;}
	.st49{fill-rule:evenodd;clip-rule:evenodd;fill:#FCFCFC;}
	.st50{fill:#AD7554;}
	.st51{fill:none;stroke:#FFFFFF;stroke-width:2.0408;stroke-miterlimit:22.9256;}
</style>
<path class="st0" d="M1845.6,1954.8c-132.4,42.1-280.4,26.9-395.6,42.6c-214.6,29.1-384.4-31.1-590.5,27.1
	c-220.2-109.2-378.7-63.8-598.9-172.9C-16.9,1629.2-25,1140.7,73.3,804c66.3-227,181-414,357.3-369.2c53.5,13.6,73.1-73.2,80-93.6
	C612,40,1035.1-86.5,1166.5,132.4c69.9,116.6,180.4,180.9,256.2,102.4c119.4-95.2,309.1-82.1,350.1,62.6
	c44.8,157.9,42.9,174.2,191,238.8c243.1,105.9,320.1,426.8,308.4,736C2261.1,1564.4,2101.8,1873.4,1845.6,1954.8L1845.6,1954.8z"/>
<polygon class="st1" points="842.6,1663.7 1421.4,1663.7 1421.4,1853.8 842.6,1853.8 "/>
<path class="st2" d="M1361.1,1580.9c-15.2-6-17.5-237.8-135.4-403.9c-55.1-77.7,41-144.6,107-41.9c-9.3-17-15.1-33.9-17.9-50.4
	c-24.8-145.5,182.1-251.9,180.8,3.8c13.1-14.8,24.8-26.2,36.2-34.2c47.2-33.2,183.8-8.2,96.4,85.7c-23.9,25.7-56.8,51.9-79.6,76
	C1414.2,1302.1,1427.9,1573.8,1361.1,1580.9L1361.1,1580.9z"/>
<path class="st2" d="M1554.7,1721.2c32.5-41.3,77.1-73.5,131-134.5c12.9-14.6,2.2,44.3,20.7,44.5c10.4,0.1,7.3-53.9,16.1-60.1
	c28.8-20.3,48.9-23.9,72.9-25.6c17-1.2,3.4,41.8,19.4,37c15-4.4,28-45.9,42.2-49.2c49.5-11.4,91.4-14.7,109.2-4.9
	c-107.6,43.3-322.1,180.3-407.6,235l-3.9,2.5c-9.6,6.1-18.4,12.3-26.5,19.2C1530.3,1754,1561.7,1724.7,1554.7,1721.2L1554.7,1721.2z
	 M1971.9,1532.9c-12.2,36.6-43.9,89.9-78.8,91c-43.3,1.4-53.9,1.4-51.7,4.7c3.2,4.7,32.4,16.1,29.6,47.8
	c-50.7,86.6-58.4,69.3-130.9,30.6c6,35.5,25.4,34.9,37.3,60.2c-26,54.4-182,94.2-229.2,58.1c-13-9.9-18.6-20.9-19.8-32
	c1.1-1,2.3-2.1,3.5-3.1c8-6.9,16.8-13,26.2-19.1l3.9-2.5C1648.3,1713.5,1866.2,1574.3,1971.9,1532.9L1971.9,1532.9z"/>
<path class="st3" d="M1407.3,1842.8c-53.7-49.8-154.9-114.2-143.6-220.3c-7.3-17.4,50.7-308.8,189.6-112.8
	C1349.4,1377,1566,1106,1732.9,1012.4c155.2-87,79.4,136.3,21.3,273.7c-2.1,5.1-4,10.9-4.3,13.4c1.4-0.1,133.9-88.6,130.1,71.4
	C1876.1,1537.4,1539.4,1775.1,1407.3,1842.8L1407.3,1842.8z"/>
<path class="st4" d="M1479.9,1617.3c78.1-60.9,128.7-108.5,149.4-152.8c56.2-120.6-51.7-204.8,11.2-375.2
	c12.7-34.5,24.2-72,39.9-104.9l4.2,4.2c-11.4,24-24.4,75.8-34.3,105.5c-78.9,237.2,148,323.2-169.3,536.5
	C1478.4,1632.4,1393.3,1684.8,1479.9,1617.3L1479.9,1617.3z"/>
<path class="st1" d="M1678,997.8c7.2-7.6,32-32,12.3-37.8c-7.4-2.2-12.9,14.9-12.7,23.2C1677,985.2,1678.1,997.7,1678,997.8
	L1678,997.8z"/>
<path class="st1" d="M1669.8,1025.5l2.2-2.2c4.6-4.7,22.7-22.6,29.1-12.8c5.7,8.7-10.5,17.8-19.6,18.7c-0.4,0.1-11-2.8-12.1-2.6
	L1669.8,1025.5L1669.8,1025.5z"/>
<path class="st1" d="M1651.8,1069.8c9.8-3.7,16.2-12.2,31.5-17.4c21-7.1,25.6,23.8-0.3,23.2c-6.3-0.1-14.8,0.8-20.4-4.1
	C1661.9,1071.7,1652.7,1069.4,1651.8,1069.8L1651.8,1069.8z"/>
<path class="st1" d="M1640.2,1127.3c1.8-0.8,13.8-15,21.3-19.1c33.6-18.3,45.2,17.9,19.4,18.7c-13.3,0.4-29.8-4.8-42,1.1
	C1639.4,1127.7,1640,1127.4,1640.2,1127.3L1640.2,1127.3z"/>
<path class="st1" d="M1628.7,1183.8c7.8-7.7,24.8-21,39.7-28.3c41-20.1,33,24.4-3.7,25.8c-8.6,0.3-16.6-3.6-26.4,0.1
	C1638.3,1181.4,1628.9,1183.7,1628.7,1183.8L1628.7,1183.8z"/>
<path class="st1" d="M1629.5,1240.4c2.5-1.2,18.2-20.5,28.4-26.7c45.8-27.3,65,16.4,28.8,20.8c-18.7,2.3-42.3-2.2-59.1,6.8
	C1628.4,1241,1629.2,1240.6,1629.5,1240.4L1629.5,1240.4z"/>
<path class="st1" d="M1638.2,1293.6c11.5-6.5,22-16.3,35.4-21.8c41.3-17,41.5,19.3,18.7,22.9c-24.8,4-23.7,0.6-42.9-0.7
	C1647.2,1293.8,1638.8,1293.2,1638.2,1293.6L1638.2,1293.6z"/>
<path class="st1" d="M1652,1363.7c6.3-9,22-24.3,38-32.8c44.2-23.2,56.9,28.6,8.7,30c-11.3,0.3-24-4.2-35.2-0.1
	C1663.4,1360.9,1652.1,1363.5,1652,1363.7L1652,1363.7z"/>
<path class="st1" d="M1642.1,1438.8c7.1-9.8,25-25.6,43.7-32.9c51.4-19.9,69,46,11.6,38.5c-13.4-1.8-28.8-9.8-41.8-6.9
	C1655.6,1437.5,1642.2,1438.5,1642.1,1438.8L1642.1,1438.8z"/>
<path class="st1" d="M1616,1504.6c9.2-7.3,30.7-17.4,51.1-19.3c56.3-5.2,60.8,60.8,4,38.9c-13.3-5.1-27.2-16.6-41.1-17.3
	C1630,1506.9,1616.2,1504.4,1616,1504.6L1616,1504.6z"/>
<path class="st1" d="M1665.8,1021.2l-0.5-3.1c-1.1-6.5-5.8-31.5-16.6-27.1c-9.6,3.9-1.5,20.6,5.4,26.5c0.3,0.4,10.6,4,11.4,4.8
	L1665.8,1021.2L1665.8,1021.2z"/>
<path class="st1" d="M1649,1064.8c-4.9-9.2-4.1-19.8-12.1-33.9c-11-19.2-34.9,0.9-15.1,17.6c4.8,4.1,10.6,10.4,18,10.4
	C1640.2,1059.6,1648.5,1064,1649,1064.8L1649,1064.8z"/>
<path class="st1" d="M1633.6,1123.9c-1.2-1.5-4.9-19.8-9.5-27c-20.6-32.2-48.2-6-26,7.1c11.5,6.8,28.4,10,36.4,21.1
	C1634.1,1124.7,1633.7,1124.1,1633.6,1123.9L1633.6,1123.9z"/>
<path class="st1" d="M1629.5,1177.3c-6.8-8.6-22.1-23.8-36-32.8c-38.3-24.8-35.6,20.3,0.6,26c8.5,1.3,16.9-1.6,26.2,3.2
	C1620.3,1173.7,1629.3,1177.1,1629.5,1177.3L1629.5,1177.3z"/>
<path class="st1" d="M1636.9,1293.5c-2.3-1.5-15.6-22.5-25.1-29.8c-42.2-32.5-66.5,8.6-31,17.3c18.3,4.4,42.2,2.8,57.9,13.8
	C1637.9,1294.2,1637.2,1293.7,1636.9,1293.5L1636.9,1293.5z"/>
<path class="st1" d="M1626,1233.7c-10.6-7.8-19.9-18.8-32.6-25.9c-39-21.7-43.5,14.2-21.3,20.6c24.1,6.9,23.4,3.4,42.7,4.3
	C1617,1232.8,1625.4,1233.2,1626,1233.7L1626,1233.7z"/>
<path class="st1" d="M1651.7,1362.4c-5.2-9.7-18.9-26.8-33.9-37.1c-41.1-28.3-59.9,21.7-12.2,28.8c11.2,1.7,24.4-1.4,35,4.1
	C1640.7,1358.2,1651.6,1362.1,1651.7,1362.4L1651.7,1362.4z"/>
<path class="st1" d="M1642.1,1439.3c0.2-12.1-4.5-35.5-15-52.6c-29-47-82.8-5-32.5,23.7c11.8,6.7,28.9,9.5,37.5,19.8
	C1632.1,1430.1,1642.1,1439,1642.1,1439.3L1642.1,1439.3z"/>
<path class="st1" d="M1614.8,1504.9c0.9-11.7-2.7-35.1-12.5-53.2c-27.1-49.7-84.4-16.5-34.5,18.4c11.7,8.2,29,13.3,37.3,24.5
	C1605,1494.6,1614.8,1504.6,1614.8,1504.9L1614.8,1504.9z"/>
<path class="st1" d="M1552.6,1575.8c9.2-7.3,30.6-17.4,51.1-19.3c56.3-5.2,60.8,60.8,4,38.9c-13.3-5.1-27.2-16.6-41.2-17.3
	C1566.6,1578.2,1552.8,1575.7,1552.6,1575.8L1552.6,1575.8z"/>
<path class="st1" d="M1551.4,1576.1c0.9-11.7-2.7-35.1-12.5-53.2c-27.1-49.7-84.4-16.5-34.5,18.4c11.7,8.2,29,13.3,37.3,24.5
	C1541.6,1565.8,1551.4,1575.8,1551.4,1576.1L1551.4,1576.1z"/>
<path class="st2" d="M547,1526c-70-93.9-212.9-109.3-283.5-166.4c32,99.6,40.1,152.2,136.3,251.8
	C497.7,1712.6,630.7,1638.3,547,1526L547,1526z"/>
<path class="st2" d="M936.9,1855.7c-133.6-127.7-191.3-150.6-429.3-136.1c-45.5,2.8-85.1,6.2-96.9,8.9c18.5,0.7,43.5,25.9,72.9,55.1
	c81.5,81,184.3,144.9,314.8,113.8C846,1886.1,893.2,1867.8,936.9,1855.7L936.9,1855.7z"/>
<path class="st3" d="M834.7,1804.3c-115.1,27.8-238,12.6-347.3-55.4c-177-110.1-166.9-286.2,11-183.1c35.8,20.8,100.3-8.8,18.4-37.9
	l-28.1-10c-44.9-16-31.2-13.2-74.9-39c-144.8-85.6-85-293.4,32.7-163.4c114.5,127.4,12-0.7-37.1-81.2
	C308.4,911,522.9,911.3,534,1060.6c1.1,14.6,26.4,202.1,63.3,38.4c26.1-115.8,88.3-145.6,137.4,26.3
	c29.5,103.2-71.5,486.5,120.9,144.7c86.8-92.9,137.8,333.1,89.8,433.1C905.8,1785.4,899.8,1744.2,834.7,1804.3L834.7,1804.3z"/>
<path class="st5" d="M1155.3,1482.5l-286.8-3.3l-12.7-29.9c-59.2-45.1-136.1-209.3-176.2-298.7c-10.1-84.9-20.6-163.1,108.3-165.1
	c19.2-0.3,63.3,41,91.2,97.5c34.7,70.3,35.7,5,4.8-101.9c-9.9-34.3-30.7-132.4-14.7-155.5c99.9-144,203.8,115.1,189.5,230.7
	c-2.7,22,2.2,16.2,5.1,46.1c18.7-143.3,185.3-221.8,185.3,90.3C1249.1,1292.5,1212.6,1405.3,1155.3,1482.5L1155.3,1482.5z"/>
<path class="st6" d="M821.4,1771.2c-34.9-29.9-5.5-10.6-62-54.2c-66.8-51.6-302.7-92.8-324.1-59.2c16.9,27.9,53.7,69.3,82.9,65.2
	c42.7-5.9,34.4-8,80.7-7c-8.7-0.2-8.5-1.5-16.6,1.6c-1.8,8-35.8,42.7-36.1,44.9c58.3,64.1,73.5,37.2,127.8,0.6
	c1.3,28.5-27,42.2-32.4,63.2c31.7,40.7,170.6,58.9,204,26.4C883,1816.2,813.8,1776,821.4,1771.2L821.4,1771.2z"/>
<path class="st4" d="M811,1790.8c0-44.8-15.6-73-37.9-95.7c-55-55.9-98-74.6-152.8-147c-77.5-102.6-70.2-151.5-58.3-230.4
	c5.2-34.4,11.2-74.5,11.2-127.6h8.9c0,53.7-6.1,94.2-11.3,128.9c-11.7,77.4-18.8,125.1,59.4,227.5
	c51.1,66.8,132.3,114.9,165.4,161.1c14.7,20.5,24.2,46.3,24.2,83.1L811,1790.8L811,1790.8z"/>
<path class="st1" d="M577.3,1201.2c4.7-9.5,21.2-40.5,0.5-40.2c-7.8,0.1-7.9,18.3-5.3,26.2C572.6,1189.3,577.4,1201.1,577.3,1201.2
	L577.3,1201.2z"/>
<path class="st1" d="M575.7,1216.1l-1.3-2.9c-2.7-6.1-13.5-29.4-23-22.4c-8.5,6.2,3.6,20.5,11.9,24.6c0.3,0.3,11.4,1.3,12.4,1.8
	L575.7,1216.1L575.7,1216.1z"/>
<path class="st1" d="M571.8,1254.4c-7.9-6.9-11-17.3-23.7-27.7c-17.3-14.2-32.6,13.4-7.9,22.1c6,2.1,13.7,6,20.7,3.4
	C561.5,1252.6,571,1253.7,571.8,1254.4L571.8,1254.4z"/>
<path class="st1" d="M566.6,1299c-1.5-1.3-7.7-19.1-13.4-25.6c-25.2-29.2-49.1,0.9-25,10.8c12.4,5.1,29.9,5.9,39.4,15.9
	C567.2,1299.6,566.8,1299.1,566.6,1299L566.6,1299z"/>
<path class="st1" d="M556.2,1374.2c-5.6-6.9-19.1-18.5-32.5-24.4c-37-16.3-44.4,26.3-5.3,24.8c9.2-0.3,19.2-4.8,28.5-2
	C546.8,1372.6,556.1,1374,556.2,1374.2L556.2,1374.2z"/>
<path class="st1" d="M559.5,1333c-9.7-7.3-18-17.6-29.6-24.2c-35.5-20.5-40.1,12.4-19.8,18.6c22.1,6.7,21.5,3.5,39.1,4.6
	C551.2,1332,559,1332.6,559.5,1333L559.5,1333z"/>
<path class="st1" d="M556.8,1411.2c-12.8-3.2-22-12.9-42-17.3c-27.3-5.9-28.5,33.4,3.8,29c7.9-1.1,18.6-1.2,24.9-8
	C544.5,1415.1,555.7,1410.9,556.8,1411.2L556.8,1411.2z"/>
<path class="st1" d="M576.3,1463.6c-2.7-0.7-22-16.8-33.3-20.8c-50.6-18.1-61.1,28.9-24.4,26.2c18.9-1.4,41.4-10.4,59.8-4.7
	C577.5,1464,576.6,1463.7,576.3,1463.6L576.3,1463.6z"/>
<path class="st1" d="M614.5,1539.4c-10.2-4.5-31.7-9.6-50-8.6c-50.3,2.9-34.4,54.4,8.1,30.5c10-5.6,18.6-16.2,30.4-18.4
	C603.1,1542.9,614.3,1539.3,614.5,1539.4L614.5,1539.4z"/>
<path class="st1" d="M585.2,1494.5c-14.9-2.6-30-9.2-46.6-10.1c-51.1-2.6-37.5,36.6-11.5,31.9c28.3-5.1,25.8-8.3,46.1-17.1
	C575.5,1498.1,584.4,1494.3,585.2,1494.5L585.2,1494.5z"/>
<path class="st1" d="M648.6,1568.7c-13-2.8-39.7-3.8-61,1.9c-58.7,15.5-27.5,72.4,16.9,34c10.4-9,18.1-23.6,31.5-29
	C636,1575.6,648.3,1568.7,648.6,1568.7L648.6,1568.7z"/>
<path class="st1" d="M683.7,1610c-13.3-0.1-39.6,4.6-59.3,14.5c-54.2,27.3-11.9,76.6,23.6,29.8c8.3-10.9,12.8-26.8,24.8-34.9
	C672.8,1619.4,683.4,1610,683.7,1610L683.7,1610z"/>
<path class="st1" d="M584.5,1217.9l2.1-2.4c4.4-5,21.5-24.1,28.6-14.7c6.2,8.4-9.5,18.6-18.6,20c-0.4,0.2-11.2-2.1-12.4-1.9
	L584.5,1217.9L584.5,1217.9z"/>
<path class="st1" d="M577,1255.6c9.6-4.3,15.6-13.3,30.8-19.5c20.7-8.4,27.2,22.4,1,23.4c-6.4,0.2-14.9,1.7-20.8-2.9
	C587.2,1257,577.9,1255.2,577,1255.6L577,1255.6z"/>
<path class="st1" d="M568.7,1299.8c1.8-0.9,13-15.9,20.3-20.5c32.7-20.5,46.6,15.3,20.7,17.7c-13.4,1.2-30.3-3.1-42.3,3.6
	C568,1300.2,568.5,1299.9,568.7,1299.8L568.7,1299.8z"/>
<path class="st1" d="M556.5,1374.7c7.4-8.3,23.7-22.7,38.3-30.9c40.2-22.7,34.7,22.6-2.2,26.2c-8.6,0.8-16.9-2.6-26.6,1.6
	C566,1371.7,556.7,1374.5,556.5,1374.7L556.5,1374.7z"/>
<path class="st1" d="M561.4,1330.2c11.4-6.3,22.4-15.8,35.4-21.3c40-16.9,34.7,17,13.5,21c-23,4.3-21.5,1.1-38.8,0.3
	C569.6,1330.2,562,1329.9,561.4,1330.2L561.4,1330.2z"/>
<path class="st1" d="M555.2,1414.7c12.6-9,18.5-20.8,38.6-34.4c27.4-18.6,46.4,8.4,8.8,22.4c-9.2,3.4-21.1,9.1-31,7.6
	C570.5,1410.9,556.4,1413.9,555.2,1414.7L555.2,1414.7z"/>
<path class="st1" d="M573.5,1458.2c1.5-1.8,7.3-22.2,13.2-30.5c26.6-36.8,56.4-9.2,29.5,6.6c-13.9,8.1-33.8,12.6-43.9,25.4
	C572.9,1459,573.4,1458.4,573.5,1458.2L573.5,1458.2z"/>
<path class="st1" d="M621.2,1542.1c-0.5-11.1,2.5-33,10.2-49.7c21-45.8,63.2-12.3,25.5,18.7c-8.8,7.2-21.8,11.4-28.2,21.7
	C628.6,1532.7,621.2,1541.8,621.2,1542.1L621.2,1542.1z"/>
<path class="st1" d="M591.1,1489.6c6.7-11.5,10.8-25.5,19.7-37.2c27.3-35.9,46-4.5,28,10.4c-19.5,16.2-20.3,12.7-37.7,21.3
	C599.1,1485.1,591.5,1489,591.1,1489.6L591.1,1489.6z"/>
<path class="st1" d="M638.3,1570c6.6-11.6,23.7-32.1,42.1-44.2c50.7-33.3,72.3,27.8,14,35.3c-13.6,1.8-29.6-2.3-42.6,4.1
	C651.8,1565.2,638.4,1569.7,638.3,1570L638.3,1570z"/>
<path class="st1" d="M674.3,1612.7c8.9-10,29.9-26.4,50.4-34.5c56.5-22.1,64.9,42.3,6.4,37.5c-13.7-1.1-28.5-8.4-42.5-4.9
	C688.5,1610.9,674.5,1612.5,674.3,1612.7L674.3,1612.7z"/>
<path class="st5" d="M1512.5,1760.5c115.2-20.9,209.3,37.9,299.9,44.4c-91.4,51-133.2,83.9-271.4,91
	C1400.3,1903.2,1374.8,1785.6,1512.5,1760.5L1512.5,1760.5z"/>
<g>
	<path class="st5" d="M1494.2,664.9c0.4-0.1-0.6,2.9-0.2,2.7c12.7-4,27.8-15.2,42.5-19.6c10-3,45.1-14.3,44.7,1.7
		c-0.3,12.1-22.7,19.8-30.7,29.9c-4.6,5.8-6.5,13.2-14.1,15.8c-9.6,3.4-19-3.7-27.5-5.3c0.5,5.6,0.6,10,0.3,13.4
		c-0.7,8.6-3.8,12.8-9.5,16.4c-19.4,12.4-23.4,5-33.4,9.2c-4.5,1.9-1.7,3.3-7.3,4.1c-2.3-4-2.8-11.3-2.7-17.3
		c0.2-7.2,10-19.2,11.5-25.2c-6.6,4.1-11.7,13.4-19,13.1c-1.1-8.9,12.2-12.9,15.2-18.9c-25.8,11.6-32.5,14.3-42,12.6
		c-5.6-1-6.7-1.3-2.9-6.1c3.1-3.9-1.1-4.8-3.4-13.1c-2.6-9-2.7-14.9,1.2-23.4c9.5-21,18.8-12.6,37.6-9.8c-9-13.3-24.5-10.2-9.2-36.4
		c5.4-9.3,9.1-38.5,21.1-38.3c12.6,0.2,17.5,25.5,19.1,39.5c5.5,47.3-1.3,35.6-0.3,53.6c0.3-0.3,1.3-0.5,2.9-2
		c4.2-3.8,8.4-17.5,8.1-22.9c-2.1-11.8,2.5-9.2,1.8-0.2c-0.6,6.7-5.4,16.4-6.1,20.6c1.2,0,2,0.2,3,1.5c3.3-3.9,14.3-13,15.5-16.4
		c4.2-12.1,7.1-4.1,1.5,1c-4.7,4.3-8.7,7.8-12.9,12.7C1497.1,660.2,1496.3,659.6,1494.2,664.9L1494.2,664.9z"/>
	<path class="st6" d="M618.2,850.1c-9.1,0.4-14.8,0.5-22.9-4.7c-11.9-8.2-9.6,0.2-3.6,2.8c2.9,1.2,6.4,1.4,11.5,2.5
		c6.3,1.3,11.5,2.2,17.6,3.4c1.3,2.2,3.6,3.7,6.3,3.7c1.8,0,3.4-0.6,4.6-1.7c4,1.5,6.4,3.8,11.7,6.5c6.7,3.4,15.4,7.5,22.2,12.9
		c13.9,11,27.5,17.9,37.1,17.6c-2.6-8.8-15.7-16.2-30.9-23.7c35,0.4,92.5,35.2,97.2-6.5c1.6-13.9-7.8-41.8-16.9-53.2
		c-5.1-6.4-14.3-10.9-37.2-7.2c13.1-41-11.5-33-17-72.3c-1.6-11.6-0.2-20.3-5.6-28.8c-18-1.3-38.1,39.3-43.2,60.9
		c-23.7-9.9-24.8-36.6-32.7-48.1c-28-41-48.9,33.7-13.9,90.4c4.8,7.7,32.7,39.6,39.2,46.5c-0.8-0.2-5.7,0.8-6.9-0.9
		c-0.2-0.2-0.3-0.4-0.5-0.6c-0.5-3.6-3.5-6.4-7.3-6.4c-3.5,0-5.4,1.5-6.5,4.3c-9.2-1.1-14.9-1.8-22.2-8.3c-10.4-10-9.5-1.3-4,2.1
		c2.6,1.6,6.1,2.4,11,4.3C609.9,847.2,613.9,848.6,618.2,850.1L618.2,850.1z"/>
</g>
<path class="st7" d="M725.5,1251.5l-40.1,155c-6.6,16.2-13.1,32.3-19.7,48.5c-10.5,49.3-0.4,104,26.8,139.6l122,153.2l41-85.2
	l-65.9-162.2l94-215.5L725.5,1251.5L725.5,1251.5z"/>
<path class="st8" d="M776.6,1036.4l24.8-44l6.8,6.7c20.1,19.6,74.7,238.3,82.7,277.8c8,39.1-15.9,40.5-21,62.6
	c-3.8,1.3-143.5-63.9-162.4-67.8c-0.8-0.2-13.9-5.3-17-7.8L776.6,1036.4L776.6,1036.4z"/>
<path class="st9" d="M798.8,1725l17.8,22.8l41-85.2l-55.8-137.4c2.7,14.3,6.6,18.2,7.8,35c1.9,26.2,9.4,38.1,12.7,57.4
	C826.5,1642,815.8,1708.3,798.8,1725L798.8,1725z"/>
<path class="st8" d="M1020.1,889c31.3-35.1,179.3-37.4,210.4-20.3c21.5,11.8,9.2,30.7,12.7,45c20.3,81.1-172.7,123.5-197.6,12.1
	C1043.5,916.3,1016.8,892.7,1020.1,889L1020.1,889z"/>
<path class="st10" d="M1235.1,531.1c-32,22.8-41.6,54.2-21.5,70.1c20.1,15.9,62.3,10.2,94.2-12.6c32-22.8,41.6-54.2,21.5-70.1
	C1309.2,502.6,1267,508.2,1235.1,531.1L1235.1,531.1z"/>
<path class="st7" d="M1067,786.6c12.1,39.5,3.8,58.2,0.1,84.9c-0.4,7.6-53.7,19.2-47.2,26.6c24.1,27.3,114.6,132.5,259.3,7.3
	c2.6-2.2-14.8,1.2-27.5-10.1c-14.7-13.1-41.2-17.7-39.5-20.6c-7.7-33.6-10.5-47.7,0.4-90.2C1164.1,785.2,1115.5,785.9,1067,786.6
	L1067,786.6z"/>
<path class="st7" d="M1264.9,495.4l-114.2-27.3c-43.2,11.8-86.5,23.6-129.8,35.3c-25.5,39.2-40.2,79.6-17.7,124.1
	c3.7,30.7,7.5,61.5,11.2,92.2c-0.9,45,24.7,65.1,58.8,79.2c56.6,23.3,79.2,19.1,133.7-2.9c14.9-6,28.9-13.5,39.2-27.4
	c8.6-11.5,11.7-29.7,16.6-50.6l16.9-128.7L1264.9,495.4L1264.9,495.4z"/>
<path class="st9" d="M1264.9,495.4l-114.2-27.3l-33.3,9.1c6.4,17.5-2.3,41.1,2.5,50.4c6.8,13.3-3.4,30.9-5.8,45.1
	c-1.5,9.1,4.1,14.9,10.2,21.7c17.3,19.5,14.6,24.7,5.8,48c-5,13.3-12.4,27.5-14.9,40.5c-2.4,12.6,8.7,20.2,19.5,23.5
	c14.3,4.4,0.1,15.4-1.3,27.3c-2.2,18-1.8,12.2,3.6,34.1c1.1,4.4-3.1,11.2-6.1,18.3c-3.2,7.7-5,20.8,6.5,28.2l0.2,0.1
	c20.7-0.3,40.6-6.9,69.4-18.5c14.9-6,28.9-13.5,39.2-27.4c8.6-11.5,11.7-29.7,16.6-50.6l16.9-128.7L1264.9,495.4L1264.9,495.4z"/>
<path class="st9" d="M1072.2,804.6c7.5,4.3,31.3,22.7,61.9,22.9c27.6,0.1,34.5,34.7,39.8,57.9c2.6,11.2,47.6,22.5,53.2,22
	c1.1-0.1,14.1,1.7,16.9,0.7c0.6-2.8-1.2-12.8-3.4-24.9c-29.7-5.5-27.8-0.9-32.2-28c-3.9-23.6-0.9-31.7,1-61.3
	c-14.2,11.4-59.2,23.5-75.3,22.2c-15.3,0.6-58.1-13.3-64.7-20.3L1072.2,804.6L1072.2,804.6z"/>
<path class="st11" d="M1023.6,549.3c13,18-10.5,27.9-9.8,54.9c0.1,2.5-2.7,31.8-4.4,46.3c-0.1,0.6-0.8,5.5-1.3,5.9
	C991,631.9,978,597.8,975.8,568c-4-56.8,19.5-103.5,45.4-79c14.5,13.7,19,38.9,6.3,54.6C1026.2,545.3,1022.8,548.3,1023.6,549.3
	L1023.6,549.3z"/>
<path class="st7" d="M974.5,684.4c6.1,9.7,10.5,19.3,17.3,27.3c10.1,22.3,17.2,20,27.3,3.6c-1.1-18-2.2-35.9-3.3-53.9l-5.5-19.5
	C984.4,594.5,957.4,657,974.5,684.4L974.5,684.4z"/>
<path class="st1" d="M1202.6,420.4c-24.6-41.6-132.7-36.3-177.8,14.5c-46.3,52-11,146,66.4,146c16.9,0,44.1-6.9,64.9-16.6
	c41.3-19.3,84.7-55.2,100.3,6.4c4.9,19.4,8.8,55.1,13.4,77.5c7.5,2.6,6.5-28.4,24.6-2c0.2,0.2,4.8,3.7,7,6.5
	c8-27.7,30.7-52.7,33.9-93.3c5.7-72.7-42.2-177.7-126.8-144.6c-3.6,1.4-3.3,1.2-7,3.8C1201.6,421,1203.4,421.8,1202.6,420.4
	L1202.6,420.4z"/>
<path class="st9" d="M1298.7,635c6.9,5.3,14.7,33.4-0.5,51.5c-19.8,23.6-15.6,56.2-43.9,28.7c2.7-17.8,5.4-35.6,8.2-53.4
	C1275.7,641.8,1279,620,1298.7,635L1298.7,635z"/>
<path class="st12" d="M1128.3,779.4c5.4-4.7,16.3-5.4,22.8-3c0.5,0.1,1.4,0.8,2.5,1c0.3,0.7,1,1,1,1.8c-5.2,1.5-11.3-6-22.8,2.6
	C1128.5,788,1122.8,784.1,1128.3,779.4L1128.3,779.4z"/>
<path class="st12" d="M1178.7,739.7c1.8,1.8,9.1,4.5,5.9-4.4c-5.6-5.5-10.6-1.5-9.2,1.2c-6.7,5.8-30.1,8.8-44.9,8.9
	c-13.8,0.1-30.8-4-40.8-8.2c3.1-3.7-4.8-4.8-7.1-3.3c-5,3.4-1.4,11.4,5,6.8c14.8,5.7,24.8,8.3,42.4,8.5
	C1145.4,749.5,1163.8,748,1178.7,739.7L1178.7,739.7z"/>
<path class="st13" d="M1047.4,907.3c19,24.7,37.7,31.7,88.6,33.1l2.1-0.1l0,0l1.7-0.1c9.1-0.3,17.4-0.9,24.8-1.7
	c30.1-3.5,44.8-12,59.7-31.3l6.4-20.1c-1.2-4.2-5.5-16.1-6.7-20.3c6.9,0.2,19.6,7,26.2,14.6c5.5,13.2,38.4,18.4,54.1,27l132,46.3
	c16.9,11.3,29,23.8,35.8,37.5c-34.1,114.1-74.2,167.7-87.1,283c-4.9,43.6-10.1,98.3-13.2,175.7c-1.2,28.9,25.4,61.1,24.9,97
	c-0.3,27.2,44.8,149.3,19.6,155.7c-15,3.8-44.8,8.7-83.2,13.3c-144.7,31.2-420.2,1.6-477.7-13.3c-25.2-6.5,20-128.6,19.6-155.7
	c-0.5-35.9,26.1-68.1,24.9-97c-3.1-77.3-8.3-132-13.2-175.7c-13-115.4-53-169-87.1-283c6.8-13.7,18.8-26.2,35.8-37.5l132-46.3
	c15.7-8.6,46.7-11.3,52.2-24.5c6.5-7.6,16.1-8.9,23-9.1c-1.2,4.2-2.4,10.6-3.6,14.8L1047.4,907.3L1047.4,907.3z"/>
<path class="st13" d="M1133.6,940.3v790.1c-121.1-2.4-242.2-17.4-278.2-26.7c-25.2-6.5,20-128.6,19.6-155.7
	c-0.5-35.9,26.1-68.1,24.9-97c-3.1-77.3-8.3-132-13.2-175.7c-13-115.4-53-169-87.1-283c6.8-13.7,18.8-26.2,35.8-37.5l132-46.3
	c15.7-8.6,46.7-11.3,52.2-24.5c6.5-7.6,16.1-8.9,23-9.1c-1.2,4.2-2.4,10.6-3.6,14.8l8.3,17.6
	C1066.1,931.5,1084.5,938.7,1133.6,940.3L1133.6,940.3z"/>
<path class="st7" d="M1540.3,1251.5l40.1,155c6.6,16.2,13.1,32.3,19.7,48.5c10.4,49.3,0.4,104-26.8,139.6l-122.1,153.2l-40.9-85.2
	l65.9-162.2l-94.1-215.5L1540.3,1251.5L1540.3,1251.5z"/>
<path class="st9" d="M1469.1,1725l-17.8,22.8l-40.9-85.2l55.8-137.4c-2.7,14.3-6.6,18.2-7.8,35c-1.9,26.2-9.4,38.1-12.7,57.4
	C1441.4,1642,1452.1,1708.3,1469.1,1725L1469.1,1725z"/>
<path class="st8" d="M1489.2,1036.4l-24.8-44l-6.8,6.7c-20.1,19.6-74.7,238.3-82.7,277.8c-8,39.1,15.9,40.5,21,62.6
	c3.8,1.3,143.5-63.9,162.3-67.8c0.8-0.2,13.9-5.3,17-7.8L1489.2,1036.4L1489.2,1036.4z"/>
<path class="st7" d="M869.5,1722.9l2.1-52.9c-10.5-13.8-31.5-13.5-34.5,1.1c-3.1,15.3-15.8,18.2-19.9,51.3
	c-3.7,30.1-23.2,42.8-4.5,74.3c2.3,4,2.2,11.3,1.8,17.9c-0.4,5.6-1,10.7-0.3,12.4c0.4,0.1,7,11.1,19.6,14c2.8,8.2,2,10.7,14.7,13.6
	c5.3,23.2,63.7-1.6,68.3-1.2c25.5,2.2,66.9-34.2,84.9-38.8c23.3-6,26.1-26.7,2.1-26.6c-6.8,0-14.4,0-19.3-8.8
	c-5-5-29.6,0.4-52.9,2.6c-19.9,1.9-38.6,0.3-46.2,0.3l-15.4-21L869.5,1722.9L869.5,1722.9z"/>
<path class="st14" d="M831.2,1684.1c-5,7.8-11.4,16.5-14.1,38.3c-3.7,30.1-23.2,42.8-4.5,74.3c2.3,4,2.2,11.3,1.8,17.9
	c-0.4,5.6-1,10.7-0.3,12.4c0.4,0.1,7,11.1,19.6,14c1.8,5.2,2.1,8.2,5.4,10.3c-0.4-2.1-0.7-4.1-0.4-5.8c1.7-8.5-11.8-16.5-14.9-24.8
	c-4.7-12.6,1.4-15.4-1.5-23.6c-4.9-13.9-10.7-31.6-3.7-45.7c4.7-9.5,7.3-30.1,6.5-40C825.1,1711.5,829.5,1693.3,831.2,1684.1
	L831.2,1684.1z"/>
<path class="st15" d="M889.2,1786.3l-19.1-21.9l-1.1-52.2c-1.4,3.9-4-4.5-3.4,1.4c0.8,8.4-8.8,33.1-10.7,35.5
	c-7.6,9.8-3.1,14.8,17.1,29.9C876.3,1780,889.4,1786.3,889.2,1786.3L889.2,1786.3z"/>
<path class="st16" d="M833.5,1692c0-0.7,0.6-1.3,1.3-1.3s1.3,0.6,1.3,1.3c0,15.5,6,18,14.3,18c2.1,0,4.2-0.1,6.4-0.3
	c3.8-0.2,7.7-0.5,11.7-0.2c0.7,0.1,1.2,0.7,1.2,1.4c-0.1,0.7-0.7,1.2-1.4,1.2c-3.8-0.3-7.7-0.1-11.3,0.2c-2.3,0.2-4.5,0.3-6.6,0.3
	C840.7,1712.6,833.5,1709.8,833.5,1692L833.5,1692z"/>
<path class="st16" d="M842,1811.8c-0.7-0.1-1.2-0.8-1.1-1.5c0.1-0.7,0.8-1.2,1.5-1.1l43.9,6.3h12.3l69.3-17.3l0.1,0l0.1,0
	c1-0.1,1.9-0.3,2.8-0.5c6.5-1.3,10.8-3.8,13.5-6.5c2.5-2.5,3.4-5.3,3.1-7.5c0-0.1,0-0.2,0-0.3c-0.1-0.7,0.3-1.4,1-1.5
	c0.7-0.1,1.4,0.3,1.5,1c0,0.2,0.1,0.3,0.1,0.5c0.4,2.9-0.7,6.5-3.8,9.6c-3,3-7.8,5.7-14.8,7.2c-0.9,0.2-1.9,0.4-2.9,0.5l-69.4,17.4
	l-0.2,0h-0.2h-12.6h-0.1l-0.1,0L842,1811.8L842,1811.8z"/>
<path class="st16" d="M850.6,1841.1c-0.7,0-1.3-0.6-1.3-1.3c0-0.7,0.6-1.3,1.3-1.3h58.6l82.7-21.3c0.7-0.2,1.4,0.2,1.6,0.9
	c0.2,0.7-0.2,1.4-0.9,1.6l-82.9,21.4l-0.2,0.1h-0.1L850.6,1841.1L850.6,1841.1z"/>
<path class="st7" d="M1399,1722.8l-1-53.8c10.5-13.8,27.8-12.6,30.7,2.1c3.1,15.3,15.8,18.2,19.9,51.3c3.7,30.1,23.2,42.8,4.5,74.3
	c-2.3,4-2.2,11.3-1.8,17.9c0.4,5.6,1,10.7,0.3,12.4c-0.4,0.1-7,11.1-19.6,14c-2.8,8.2-2,10.7-14.7,13.6c-5.3,23.2-63.7-1.6-68.3-1.2
	c-25.5,2.2-66.9-34.2-84.9-38.8c-23.3-6-26.1-26.7-2.1-26.6c3.7,0,7.7,0,11.3-1.4c-0.4-7.6,1.3-11.2,25.4-9
	c10.1,0.9,23,3.1,35.6,4.3c19.9,1.9,38.6,0.3,46.2,0.3l17.7-19.7L1399,1722.8L1399,1722.8z"/>
<path class="st15" d="M1400.9,1707.3c4.6,8.4,10.7,33.9,13.6,37.7c7.6,9.8,3.2,14.8-17.1,29.9c-5.9,1.4-7.4,2.4-13.3,3.8
	c0,0,13.2-8.5,14.8-20.2c1.2-9.2,0.3-35.5,0-47.5C1398.7,1706.4,1400.6,1708.1,1400.9,1707.3L1400.9,1707.3z"/>
<path class="st17" d="M1429.7,1692c0-0.7,0.6-1.3,1.3-1.3c0.7,0,1.3,0.6,1.3,1.3c0,8-1.7,13.6-4.3,17.3c-1.5,2.1-3.3,3.6-5.4,4.5
	l0,0c-2,0.9-4.3,1.4-6.6,1.4c-5.7,0-11.9-2.6-17.1-6.3c-0.6-0.4-0.7-1.2-0.3-1.8c0.4-0.6,1.2-0.7,1.8-0.3c4.8,3.5,10.5,5.8,15.6,5.8
	c2,0,3.8-0.3,5.5-1.1l0,0c1.7-0.8,3.2-2,4.4-3.7C1428.2,1704.5,1429.7,1699.4,1429.7,1692L1429.7,1692z"/>
<path class="st16" d="M1423.4,1809.2c0.7-0.1,1.4,0.4,1.5,1.1s-0.4,1.4-1.1,1.5l-44,6.3l-0.1,0h-0.1H1367h-0.2l-0.2,0l-88.1-22
	l-0.4-0.1l-0.3-0.3l-5.4-6.8c-0.4-0.6-0.3-1.4,0.2-1.8c0.6-0.4,1.4-0.3,1.8,0.2l5.1,6.4l87.5,21.9h12.4L1423.4,1809.2L1423.4,1809.2
	z"/>
<path class="st16" d="M1415.2,1838.5c0.7,0,1.3,0.6,1.3,1.3c0,0.7-0.6,1.3-1.3,1.3h-58.7h-0.1l-0.2,0l-72-16.6
	c-1.1-0.5-3.5-1.9-6-3.6c0.3-0.2,0.6-0.3,1-0.2l77.4,17.8L1415.2,1838.5L1415.2,1838.5z"/>
<path class="st14" d="M1433.4,1684.1c5,7.8,11.4,16.5,14.1,38.3c3.7,30.1,23.2,42.8,4.5,74.3c-2.3,4-2.2,11.3-1.8,17.9
	c0.4,5.6,1,10.7,0.3,12.4c-0.4,0.1-7,11.1-19.6,14c-1.8,5.2-2.1,8.2-5.4,10.3c0.4-2.1,0.7-4.1,0.4-5.8c-1.7-8.5,11.8-16.5,14.9-24.8
	c4.7-12.6-1.4-15.4,1.5-23.6c4.9-13.9,10.7-31.6,3.7-45.7c-4.7-9.5-7.3-30.1-6.5-40C1439.5,1711.5,1435.2,1693.3,1433.4,1684.1
	L1433.4,1684.1z"/>
<path class="st18" d="M953.2,1293L953.2,1293c-11.1,2.2-18.3,13-16.1,24.1l21,106.3c2.2,11.1,13,18.3,24.1,16.1l0,0
	c11.1-2.2,18.3-13,16.1-24.1l-21-106.3C975.1,1298,964.3,1290.8,953.2,1293L953.2,1293L953.2,1293z"/>
<path class="st18" d="M907.2,1302.1L907.2,1302.1c-10.4,2.1-17.3,12.3-15.2,22.7l21.5,108.7c2.1,10.4,12.3,17.3,22.7,15.2l0,0
	c10.4-2.1,17.3-12.3,15.2-22.7l-21.5-108.7C927.9,1306.8,917.6,1300,907.2,1302.1L907.2,1302.1L907.2,1302.1z"/>
<path class="st19" d="M887.7,1310l20.2,102.3c4.6,23.4,27.6,38.8,51,34.1l0,0c23.4-4.6,38.8-27.6,34.1-51l-20.2-102.3
	c-4.5-22.9-35.2-62.9-43.5-104.9c-20.1-101.7-56.2-67.2-41.3,8.2C896.3,1238.4,883.2,1287.1,887.7,1310L887.7,1310L887.7,1310z"/>
<path class="st20" d="M891.4,1199c6.9-1.4,33.1-4.9,35.6-7.6c2.6-2.7-8.3-45.4-14.7-49.9c-4.9-3.5-9.5-9.8-19.2-5.6
	c-4.1,1.8-4.2,6.4-5.5,12.1C883.9,1166.2,889.8,1197.2,891.4,1199L891.4,1199L891.4,1199z"/>
<polygon class="st18" points="920.1,1146.4 881.5,1154 876.1,1126.8 914.7,1119.2 "/>
<polygon class="st19" points="916.5,1147.1 905.5,1149.3 900.1,1122 911.1,1119.9 "/>
<polygon class="st19" points="895.7,1151.2 884.6,1153.4 879.2,1126.2 890.3,1124 "/>
<path class="st18" d="M904.3,1309.9c-12,11.8-5.9,37.3,13.6,57c19.4,19.7,44.9,26.1,56.9,14.3c12-11.8,5.9-37.3-13.6-57.1
	C941.7,1304.5,916.3,1298.1,904.3,1309.9L904.3,1309.9L904.3,1309.9z"/>
<path class="st21" d="M1189.9,1609c18.4-1.2-23.4-505.2-27.1-561.9C1144.5,1048.3,1186.2,1552.3,1189.9,1609L1189.9,1609
	L1189.9,1609z"/>
<path class="st21" d="M1194.2,1604c18.4-0.4-1.5-505.8-2.7-562.5C1173.1,1041.9,1193,1547.2,1194.2,1604L1194.2,1604L1194.2,1604z"
	/>
<path class="st22" d="M1191.9,1612.6c7-0.3,1.3-121.2-3.4-206.1c-8.4-152.5-9.7-321.1-11.2-356.2c-9.6,0.4,1.6,177.3,0.3,277.8
	C1175.9,1456.1,1190.8,1585.5,1191.9,1612.6L1191.9,1612.6L1191.9,1612.6z"/>
<path class="st23" d="M1136.6,1049c-7,0.8,6.5,121,16.7,205.5c18.2,151.7,30.4,319.8,34.2,354.8c9.6-1-13-176.8-18.2-277.2
	C1162.7,1204.1,1139.5,1076,1136.6,1049L1136.6,1049L1136.6,1049z"/>
<path class="st23" d="M1201.9,1607.8c18.4-0.4-1-505.8-2.2-562.5C1181.3,1045.7,1200.8,1551,1201.9,1607.8L1201.9,1607.8
	L1201.9,1607.8z"/>
<path class="st22" d="M1196.1,1614.6c-7,0.5-14.8-120.3-19.7-205.2c-8.7-152.5-26.3-320.2-28.8-355.2c9.6-0.7,18.3,176.3,30.9,276.1
	C1194.5,1457.3,1194.2,1587.5,1196.1,1614.6L1196.1,1614.6L1196.1,1614.6z"/>
<polygon class="st24" points="973.1,1127.6 1064.6,1110 1114.7,1316.1 1020.6,1321.4 "/>
<polygon class="st25" points="1069.3,1129.5 1089.8,1213.9 1012.1,1286.7 991.4,1202.3 "/>
<polygon class="st26" points="1105.2,1073.4 1064.2,1110.3 1114.8,1316.7 1150.3,1262.6 "/>
<polygon class="st27" points="1064.8,1110.1 973.5,1127.4 987.1,1059.7 1075.3,1041.2 "/>
<polygon class="st28" points="1064.4,1110.1 1075.5,1041.7 1105.3,1073.7 "/>
<polygon class="st29" points="1064.4,1110.1 1070.5,1072.3 1105.2,1073.6 1105.3,1073.7 "/>
<path class="st30" d="M986,1046.9l84.3-19.3c1.2-0.3,2.4,0.5,2.7,1.7l2.8,11.4l-89,18.7l-2.4-9.9
	C984.1,1048.4,984.8,1047.2,986,1046.9L986,1046.9z"/>
<path class="st31" d="M1030.4,1060.1l-7.2,7.8c-0.8,0.4-1.5,0.8-2.3,1.2c-6,3.6-10.8,9.3-13.1,15.2l-7.9,8.4c3,2.2,9.8,8.2,12.6,9.4
	c4.3,1.9,10,1.2,15.9-2.3c8.1-4.9,16.3-17.6,14.2-26.2c-0.5-2.1-1.5-3.8-2.9-5.1l0.1-0.1L1030.4,1060.1L1030.4,1060.1z"/>
<path class="st32" d="M1022.6,1102.5c1.9-0.6,3.8-1.4,5.8-2.6c2.1-1.3,4.3-3.1,6.2-5.2l-20.2-14.9l-9.5,9.7L1022.6,1102.5
	L1022.6,1102.5z"/>
<polygon class="st33" points="1089.6,1214.5 1069.1,1129.3 1110.3,1091.7 1128.1,1169.2 "/>
<path class="st34" d="M1008.3,1057.7c10.5-6.2,20.7-4,22.9,4.9c2.2,8.9-4.5,21.2-15,27.5s-20.7,4-22.9-4.9
	C991.1,1076.2,997.8,1063.9,1008.3,1057.7L1008.3,1057.7z"/>
<path class="st35" d="M1024.1,1365.5c-9.7-0.2-18.7-0.8-27.2-1.8c-8.5-1-16.5-2.3-24.1-4.1c-1.5-0.3-2.9-0.7-4.4-1.1
	c-1.4-0.4-2.9-0.8-4.3-1.2c-7-2-13.7-4.4-20.3-7.2c-6.6-2.8-13-6-19.5-9.7c-1.1-0.6-2.1-1.2-3.2-1.9c-1.1-0.6-2.2-1.3-3.2-1.9
	c-2.7-1.7-5.4-3.4-8.1-5.2c-2.7-1.8-5.5-3.7-8.3-5.7c-1.9-1.3-3.8-2.7-5.7-4.1c-1.9-1.4-3.8-2.9-5.8-4.4c-1.3-1-3.3-2.9-5.6-5.3
	c-2.1-2.2-4.4-4.9-6.7-7.7c-1.5-1.9-3-3.9-4.4-5.9c-1.3-1.8-2.5-3.6-3.5-5.4c-0.6-1-1.1-1.9-1.5-2.8c-0.5-0.9-0.8-1.8-1.2-2.7
	c-1-2.5-1.8-5.2-2.6-7.8c-0.8-2.6-1.5-5.3-2.2-7.8c-0.8-3.1-1.3-6.1-1.8-8.9c1.6-20.2-22.5-46.1-22.5-48.2
	c6.8-14.1,10.8-18.6,25.2-14.9c4.1-1.6,9.2,37.6,21.7,42.1c4.3,1.6,9.3,4.6,14.4,7.7c4,2.4,8.1,4.8,11.9,6.7
	c8,7.6,17.7,14.1,28.4,19.5c11.3,5.7,23.7,10.2,36,13.1c8,1.9,16.1,3.2,23.8,3.8c7.6,0.6,14.8,0.4,21.5-0.4
	c9.5-1.4,20.2-4.7,31.3-9.3c12.2-5.1,24.8-11.7,36.6-19l1.4-0.9l1.4-0.9c2-1.3,4-2.5,5.9-3.8c2-1.3,3.9-2.6,5.8-3.9l1.7-1.2l1.7-1.2
	l1.8-1.3l1.7-1.3c0.7-0.5,1.3-1,2-1.5c0.7-0.5,1.3-1,1.9-1.5c1.6-0.6,3-0.9,4.3-1.1c1.3-0.2,2.6-0.2,3.7-0.1
	c1.8,0.2,3.3,0.8,4.7,1.4c1.3,0.7,2.5,1.5,3.4,2.3c0.5,0.4,1,0.8,1.4,1.2c0.6,0.5,1.1,1,1.5,1.2l0.3,0.2c1.1,0.8,2,2.2,2.7,3.8
	c0.7,1.7,1.1,3.6,1.4,5.5c0.2,1.2,0.4,2.4,0.5,3.6c0.1,1.1,0.2,2.2,0.2,3.1l0,0.5l-0.2,1.3l-0.4,2.8c-0.5,3.3-1,7.3-1.8,11.6
	l-0.3,1.7l-0.3,1.7c-0.6,3-1.3,6.1-2.1,9.2c-0.8,3.1-1.8,6.1-2.9,8.9c-0.2,0.5-0.4,0.9-0.6,1.4c-0.2,0.4-0.4,0.9-0.6,1.3
	c-0.2,0.4-0.3,0.7-0.5,1.1c-0.2,0.4-0.3,0.7-0.5,1.1l-0.5,1l-0.5,1c-0.6,1.1-1.2,2.1-1.8,3.1s-1.2,2-1.9,2.9l-0.4,0.7l-0.4,0.6
	c-1.8,2.4-3.5,4.6-5.3,6.5s-3.4,3.6-4.9,4.9c-6.4,5.9-13,10.7-19.7,14.7c-6.7,4-13.3,7.1-19.9,9.5c-7.2,2.7-14.2,4.6-20.8,6
	c-6.6,1.4-12.8,2.3-18.4,3l-3.5,0.4c-1.6,0.2-3.1,0.3-4.6,0.5L1024.1,1365.5L1024.1,1365.5z"/>
<path class="st36" d="M1024.1,1365.5c-9.7-0.2-18.7-0.8-27.2-1.8c-8.5-1-16.5-2.3-24.1-4.1c-1.5-0.3-2.9-0.7-4.4-1.1
	c-1.4-0.4-2.9-0.8-4.3-1.2c-7-2-13.7-4.4-20.3-7.2c-6.6-2.8-13-6-19.5-9.7c-1.1-0.6-2.1-1.2-3.2-1.9c-1.1-0.6-2.2-1.3-3.2-1.9
	c-2.7-1.7-5.4-3.4-8.1-5.2c-2.7-1.8-5.5-3.7-8.3-5.7c-1.9-1.3-3.8-2.7-5.7-4.1c-1.9-1.4-3.8-2.9-5.8-4.4c-1.3-1-3.3-2.9-5.6-5.3
	c-2.1-2.2-4.4-4.9-6.7-7.7c-1.5-1.9-3-3.9-4.4-5.9c-1.3-1.8-2.5-3.6-3.5-5.4c-0.6-1-1.1-1.9-1.5-2.8c-0.5-0.9-0.8-1.8-1.2-2.7
	c-1-2.5-1.8-5.2-2.6-7.8l0-0.1c3,0.3,6.5,3.4,11.4,8.4c55.4,57.2,94.7,74.3,148,69.5c52.7-4.8,71.1-25.9,94.2-58.9
	c2-2.9,11-16.5,19.8-27.6l-0.2,1.4c-0.5,3.3-1,7.3-1.8,11.6l-0.3,1.7l-0.3,1.7c-0.6,3-1.3,6.1-2.1,9.2c-0.8,3.1-1.8,6.1-2.9,8.9
	c-0.2,0.5-0.4,0.9-0.6,1.4c-0.2,0.4-0.4,0.9-0.6,1.3c-0.2,0.4-0.3,0.7-0.5,1.1c-0.2,0.4-0.3,0.7-0.5,1.1l-0.5,1l-0.5,1
	c-0.6,1.1-1.2,2.1-1.8,3.1s-1.2,2-1.9,2.9l-0.4,0.7l-0.4,0.6c-1.8,2.4-3.5,4.6-5.3,6.5s-3.4,3.6-4.9,4.9c-6.4,5.9-13,10.7-19.7,14.7
	c-6.7,4-13.3,7.1-19.9,9.5c-7.2,2.7-14.2,4.6-20.8,6c-6.6,1.4-12.8,2.3-18.4,3l-3.5,0.4c-1.6,0.2-3.1,0.3-4.6,0.5L1024.1,1365.5
	L1024.1,1365.5z"/>
<path class="st36" d="M871,1218.6c3.4,10.2,7.8,21.3,14.1,23.5c4.3,1.6,9.3,4.6,14.4,7.7c4,2.4,8.1,4.8,11.9,6.7
	c8,7.6,17.7,14.1,28.4,19.5c11.3,5.7,23.7,10.2,36,13.1c8,1.9,16.1,3.2,23.8,3.8c4.3,0.3,8.5,0.4,12.6,0.3c0.3,1.2-1.5,1.9-6.2,2.2
	c-11.4,0.7-55.3-8.7-64.6-11.9c-11.9-4.1-40-20.8-47.4-27.7C877.9,1240.8,868.5,1236.4,871,1218.6L871,1218.6L871,1218.6z"/>
<path class="st37" d="M1115.6,1247.6c-5.2,1.6,0.5,4.2,2.4,8.7c2.2,5,2.3-1.3,7.9,1.4c8.8,4.2,11.2-1.4,5.2-5.9
	c-3.1-2.3-4.1-5.6-9.7-4.7C1120,1247.3,1117.2,1247,1115.6,1247.6L1115.6,1247.6L1115.6,1247.6z"/>
<path class="st38" d="M1353.1,1436.7c25.2-73.4,46.2-260.4,31.7-343.3c-5.3-30.5-13.8-177.4-67.5-74.2
	c-25.3,48.6-20,249.2-44.9,328.8c-6.2,19.7-19.5,190.7-17.3,211.3c2.8,26.3,12,115.4,48,81
	C1332.9,1611.9,1336.7,1484.7,1353.1,1436.7L1353.1,1436.7L1353.1,1436.7z"/>
<path class="st39" d="M1338.8,1508.5c0.9-6,1.8-11.9,2.7-17.7c-12.7-5.1-66.5,32.8-60.1,44.6
	C1285.1,1545.6,1324.2,1528.8,1338.8,1508.5L1338.8,1508.5L1338.8,1508.5z M1389.4,1148.9c-0.2-8.1-0.5-15.8-1-23.1
	c-14.5,1-53.6,50.2-44.4,59.5C1349.9,1193.4,1378.5,1171,1389.4,1148.9L1389.4,1148.9L1389.4,1148.9z M1387,1231.9
	c0.6-8.5,1.1-16.9,1.5-25.2c-15.8,2.2-56.9,44.4-49,54.4C1344.2,1269.4,1373.1,1251.8,1387,1231.9L1387,1231.9L1387,1231.9z
	 M1378.8,1312.7c1-7.5,2-15.2,2.8-22.8c-17.2,1.3-62.2,34.2-56.3,45C1328.6,1344.1,1362.1,1330.7,1378.8,1312.7L1378.8,1312.7
	L1378.8,1312.7z M1366.5,1385.8c1.6-7.5,3.1-15.4,4.6-23.6c-16.3-0.1-63.4,34-57.4,45C1317,1416.4,1349.6,1403.4,1366.5,1385.8
	L1366.5,1385.8L1366.5,1385.8z M1353.1,1436.7c0.8-2.5,1.7-5.1,2.5-7.8c-16.4,0.1-63.3,34-57.3,45c3.1,8.7,32.1-2.3,49.6-18.3
	C1349.6,1448.5,1351.3,1442.1,1353.1,1436.7L1353.1,1436.7L1353.1,1436.7z"/>
<path class="st39" d="M1382.5,1076.6c-0.8-6.2-1.7-13.2-2.7-20.6c-15,2.3-52.8,50.2-43.8,59.4
	C1342.1,1123.7,1372.6,1099.4,1382.5,1076.6L1382.5,1076.6L1382.5,1076.6z"/>
<path class="st40" d="M1377.6,1064.5l-0.4-3.2c-11.5,5.5-30.3,27.1-38.1,42.8C1350.7,1099.9,1370,1081.8,1377.6,1064.5
	L1377.6,1064.5L1377.6,1064.5z"/>
<path class="st39" d="M1367.3,1001c-9.6-23.6-24.9-30-50,18.2c-25.3,48.6-20,249.2-44.9,328.8c-6.2,19.7-19.5,190.7-17.3,211.3
	c2.8,26.3,12,115.4,48,81c0.9-0.8,1.7-1.8,2.6-2.8c-0.7-2.3-2.2-4-4.5-5c-47.4-20.4-36.7-133.2-33.7-175.7
	c2.8-38.3,21.9-102,28.5-133.7c15.2-73-14.5-281.9,68.2-320.5C1365.4,1002,1366.4,1001.5,1367.3,1001L1367.3,1001L1367.3,1001z"/>
<path class="st40" d="M1386.8,1132.4l-0.4-3.2c-11.5,5.5-30.3,27.1-38.1,42.8C1359.9,1167.9,1379.3,1149.7,1386.8,1132.4
	L1386.8,1132.4L1386.8,1132.4z"/>
<path class="st40" d="M1385.5,1213l-0.4-3.2c-11.5,5.5-30.3,27.1-38.1,42.8C1358.6,1248.5,1378,1230.3,1385.5,1213L1385.5,1213
	L1385.5,1213z"/>
<path class="st40" d="M1379.9,1295.6l0.6-3.2c-12.6,1.6-31.8,14.2-44.1,26.6C1348.8,1318.7,1367.4,1309.6,1379.9,1295.6
	L1379.9,1295.6L1379.9,1295.6z"/>
<path class="st40" d="M1368.3,1368.5l0.6-3.2c-12.6,1.6-31.8,14.2-44.1,26.6C1337.1,1391.6,1355.7,1382.5,1368.3,1368.5
	L1368.3,1368.5L1368.3,1368.5z"/>
<path class="st39" d="M1315.2,1206.3c-8.4,19.5-9.4-2.8-0.6-2.2C1315.4,1204.1,1315.4,1205.9,1315.2,1206.3L1315.2,1206.3
	L1315.2,1206.3z"/>
<path class="st39" d="M1317.6,1147.5c12.8,16.9-7.1,6.8-2.2-0.6C1315.8,1146.2,1317.3,1147.1,1317.6,1147.5L1317.6,1147.5
	L1317.6,1147.5z"/>
<path class="st39" d="M1328.4,1091.1c-8.4,19.5-9.4-2.8-0.6-2.2C1328.7,1088.9,1328.6,1090.7,1328.4,1091.1L1328.4,1091.1
	L1328.4,1091.1z"/>
<path class="st37" d="M1268.5,1375.1c5.2,7.1,4.2,9.4-0.1,10.5c-6.9,1.7-16.7,18.9-22.4,19.6c-0.2,0-5.7-2.7-1-5.9
	c8.3-5.8,19.7-12.6,22.9-22.3C1268,1376.5,1268.3,1374.8,1268.5,1375.1L1268.5,1375.1L1268.5,1375.1z"/>
<path class="st39" d="M1272,1382.2c-0.3-0.8-3.3-2.7-7-0.7c-6.3,3.3-23.6,9.1-26.2,14.2c-0.1,0.1,0.5,6.3,5.2,3
	c8.3-5.8,18.7-14.2,28.8-13.7C1273.4,1384.9,1272.1,1382.5,1272,1382.2L1272,1382.2L1272,1382.2z"/>
<path class="st40" d="M1303.8,1501.3l0.8-3.1c-12.7,1-32.4,12.7-45.2,24.6C1271.6,1523,1290.7,1514.8,1303.8,1501.3L1303.8,1501.3
	L1303.8,1501.3z"/>
<path class="st39" d="M1261.9,1402.9c-9.2,19.1-9.3-3.2-0.5-2.3C1262.2,1400.7,1262.1,1402.5,1261.9,1402.9L1261.9,1402.9
	L1261.9,1402.9z"/>
<path class="st39" d="M1272.1,1345.2c12.1,17.5-7.4,6.4-2.2-0.7C1270.3,1343.8,1271.8,1344.8,1272.1,1345.2L1272.1,1345.2
	L1272.1,1345.2z"/>
<path class="st39" d="M1248.5,1471.7c-9.2,19.1-9.3-3.2-0.5-2.3C1248.8,1469.6,1248.7,1471.3,1248.5,1471.7L1248.5,1471.7
	L1248.5,1471.7z"/>
<path class="st39" d="M1239.6,1550.1c-9.2,19.1-9.3-3.2-0.5-2.3C1239.9,1547.9,1239.8,1549.7,1239.6,1550.1L1239.6,1550.1
	L1239.6,1550.1z"/>
<path class="st39" d="M1292.5,1223.5c12.1,17.5-7.4,6.4-2.2-0.7C1290.8,1222.2,1292.2,1223.2,1292.5,1223.5L1292.5,1223.5
	L1292.5,1223.5z"/>
<path class="st39" d="M1290,1282.8c-9.2,19.1-9.3-3.2-0.5-2.3C1290.3,1280.6,1290.2,1282.4,1290,1282.8L1290,1282.8L1290,1282.8z"/>
<path class="st39" d="M1238,1508.9c-3.6-23-9.8,0.9-1.1,2.3C1237.7,1511.3,1238.1,1509.3,1238,1508.9L1238,1508.9L1238,1508.9z"/>
<path class="st39" d="M1242.2,1590.3c-3.6-23-9.8,0.9-1.1,2.3C1241.9,1592.7,1242.3,1590.8,1242.2,1590.3L1242.2,1590.3
	L1242.2,1590.3z"/>
<path class="st38" d="M1204.6,1209.6c-13.2,76.5-4.3,264.4,23.1,344c10.1,29.3,41.7,173,78.4,62.5c17.3-52-19.7-249.2-7.7-331.8
	c3-20.5-11-191.4-16.4-211.4c-6.9-25.6-30.2-112-60.3-72.4C1196.8,1033.4,1213.3,1159.6,1204.6,1209.6L1204.6,1209.6L1204.6,1209.6z
	"/>
<path class="st39" d="M1207.3,1136.5c0.1,6.1,0.1,12,0.1,17.9c13.3,3,60.5-42.9,52.3-53.5
	C1254.6,1091.4,1218.6,1114.1,1207.3,1136.5L1207.3,1136.5L1207.3,1136.5z M1214.4,1499.6c1.4,7.9,3,15.5,4.6,22.7
	c14.2-3.3,45-58,34.4-65.8C1246.4,1449.4,1221.7,1476.1,1214.4,1499.6L1214.4,1499.6L1214.4,1499.6z M1203.6,1417.2
	c0.8,8.5,1.6,16.9,2.5,25.1c15.3-4.7,49.1-52.9,39.8-61.4C1239.9,1373.4,1214.2,1395.4,1203.6,1417.2L1203.6,1417.2L1203.6,1417.2z
	 M1199,1336.2c0.2,7.6,0.5,15.3,0.8,23c16.7-4,56-43.6,48.5-53.3C1243.5,1297.2,1212.6,1315.7,1199,1336.2L1199,1336.2L1199,1336.2z
	 M1199.5,1262.1c-0.4,7.7-0.6,15.7-0.8,24c16.1-2.5,57.2-43.6,49.5-53.6C1243.6,1224,1213.4,1241.9,1199.5,1262.1L1199.5,1262.1
	L1199.5,1262.1z M1204.6,1209.6c-0.4,2.6-0.9,5.2-1.2,8.1c16.2-2.6,57.1-43.6,49.4-53.5c-4.4-8.1-31.3,7.3-46.1,26
	C1206.2,1197.4,1205.6,1204,1204.6,1209.6L1204.6,1209.6L1204.6,1209.6z"/>
<path class="st39" d="M1232.7,1569.9c1.7,6,3.7,12.8,6,19.9c14.4-4.7,44.2-58,33.8-65.6C1265.1,1516.9,1238.9,1545.8,1232.7,1569.9
	L1232.7,1569.9L1232.7,1569.9z"/>
<path class="st40" d="M1239.5,1581.1l0.9,3.1c10.5-7.2,25.6-31.6,30.8-48.3C1260.4,1541.8,1244.2,1562.8,1239.5,1581.1
	L1239.5,1581.1L1239.5,1581.1z"/>
<path class="st39" d="M1259.7,1642.1c13.2,21.8,29.3,25.7,46.5-25.9c17.3-52-19.7-249.2-7.7-331.8c3-20.5-11-191.4-16.4-211.4
	c-6.9-25.6-30.2-112-60.3-72.4c-0.7,1-1.4,2-2.1,3.2c1.1,2.2,2.8,3.6,5.2,4.2c50.1,12.6,57.4,125.7,61.1,168.2
	c3.4,38.3-5.5,104.2-7,136.6c-3.4,74.5,59,276.1-16.6,327.3C1261.4,1640.8,1260.5,1641.4,1259.7,1642.1L1259.7,1642.1L1259.7,1642.1
	z"/>
<path class="st40" d="M1219.6,1515.4l0.9,3.1c10.5-7.2,25.6-31.6,30.8-48.3C1240.5,1476.2,1224.3,1497.2,1219.6,1515.4
	L1219.6,1515.4L1219.6,1515.4z"/>
<path class="st40" d="M1208.1,1435.6l0.9,3.1c10.5-7.2,25.6-31.6,30.8-48.3C1229,1396.3,1212.8,1417.4,1208.1,1435.6L1208.1,1435.6
	L1208.1,1435.6z"/>
<path class="st40" d="M1200.5,1353.3l-0.1,3.2c12.2-3.6,29.2-19,39.3-33.3C1227.7,1325.5,1210.7,1337.4,1200.5,1353.3L1200.5,1353.3
	L1200.5,1353.3z"/>
<path class="st40" d="M1200.5,1279.4l-0.1,3.2c12.2-3.6,29.2-19,39.3-33.3C1227.6,1251.6,1210.6,1263.5,1200.5,1279.4L1200.5,1279.4
	L1200.5,1279.4z"/>
<path class="st40" d="M1207,1209.8l-0.1,3.2c12.2-3.6,29.2-19,39.3-33.3C1234.1,1182,1217.2,1193.9,1207,1209.8L1207,1209.8
	L1207,1209.8z"/>
<path class="st40" d="M1210.6,1149.9l-0.1,3.2c12.2-3.6,29.2-19,39.3-33.3C1237.7,1122.1,1220.7,1134,1210.6,1149.9L1210.6,1149.9
	L1210.6,1149.9z"/>
<path class="st39" d="M1271.6,1237.7c5.2-20.6,9.7,1.3,0.9,2.1C1271.7,1239.9,1271.4,1238.2,1271.6,1237.7L1271.6,1237.7
	L1271.6,1237.7z"/>
<path class="st39" d="M1273.3,1296.3c-15.3-14.7,5.9-7.8,2.3,0.2C1275.2,1297.3,1273.6,1296.7,1273.3,1296.3L1273.3,1296.3
	L1273.3,1296.3z"/>
<path class="st39" d="M1270.7,1167.6c5.2-20.6,9.7,1.3,0.9,2.1C1270.9,1169.8,1270.6,1168.1,1270.7,1167.6L1270.7,1167.6
	L1270.7,1167.6z"/>
<path class="st39" d="M1263.5,1089.1c5.2-20.6,9.7,1.3,0.9,2.1C1263.7,1091.3,1263.4,1089.5,1263.5,1089.1L1263.5,1089.1
	L1263.5,1089.1z"/>
<path class="st39" d="M1277.9,1419.6c-15.3-14.7,5.9-7.8,2.3,0.2C1279.9,1420.6,1278.2,1419.9,1277.9,1419.6L1277.9,1419.6
	L1277.9,1419.6z"/>
<path class="st39" d="M1282.3,1467.9c5.2-20.6,9.7,1.3,0.9,2.1C1282.4,1470.1,1282.2,1468.3,1282.3,1467.9L1282.3,1467.9
	L1282.3,1467.9z"/>
<path class="st39" d="M1268.4,1361c5.2-20.6,9.7,1.3,0.9,2.1C1268.5,1363.2,1268.2,1361.5,1268.4,1361L1268.4,1361L1268.4,1361z"/>
<path class="st39" d="M1273.4,1129.1c8.2,21.8,9.4-2.9,0.6-2.5C1273.3,1126.7,1273.3,1128.7,1273.4,1129.1L1273.4,1129.1
	L1273.4,1129.1z"/>
<path class="st39" d="M1252.9,1050.2c8.2,21.8,9.4-2.9,0.6-2.5C1252.7,1047.8,1252.7,1049.8,1252.9,1050.2L1252.9,1050.2
	L1252.9,1050.2z"/>
<path class="st41" d="M1183.7,1190.3c-47.4,29.4-99.8,48.3-157,56.9c2.9,3.5,10.9,9.9,16,15.8c8.4,9.6,25.7,32.2,29.5,44.6
	c7,22.9,124.7-19.8,115.4-41.8c-5-12-6.2-40.4-6-53.1C1181.7,1204.8,1183.7,1194.8,1183.7,1190.3L1183.7,1190.3L1183.7,1190.3z"/>
<path class="st42" d="M1181.9,1172.8c2.3,3.1,22.2,16.2,17.1,17.5c-21.3,5.2-9.6-0.8-12.7,10.1c-1.5,5.3-14.7-0.6-18.1,8.4
	c-5.4,14.3-13.2-2-26.4,12.3c-2.4,2.6-10.1,10.9-13.8,8.7c-12.8-8.1-26.5,21.3-32.6,13.7c-5-6.1-17.9,8.3-27.4,11.7
	c-7.3-14.3-18.3,7.8-24.8,2.7c-9.5-7.6-6.7-1.6-14.9,0.3c-4.7,1.1,1.4-11.6-9.7-1.8c-9.7,8.5-7-5.5-4.8-19.1
	c3.9-24.9,52.6-44.1,80.7-56.3C1108.7,1174.8,1169.2,1156.3,1181.9,1172.8L1181.9,1172.8L1181.9,1172.8z"/>
<path class="st43" d="M1161.1,1171c54.7,3-38.9,46.4-53.1,51c-23.6,7.7-49.7,16-67.4,16.8c-19.3,0.8-28.3-6.9-8-22.1
	C1064.6,1198,1126.9,1169.1,1161.1,1171L1161.1,1171L1161.1,1171z"/>
<path class="st20" d="M1160.7,1175.4c52.5,0.7-39,42.1-52.8,46.6c-22.9,7.5-48.3,15.8-65.3,17.1c-18.6,1.4-26.9-5.1-6.9-19.1
	C1067.1,1202.5,1127.9,1175,1160.7,1175.4L1160.7,1175.4L1160.7,1175.4z"/>
<path class="st41" d="M1125.2,1194.2c21.5,0.3-16,17.2-21.6,19.1c-9.4,3.1-19.8,6.5-26.8,7c-7.6,0.6-11-2.1-2.8-7.8
	C1086.8,1205.3,1111.8,1194,1125.2,1194.2L1125.2,1194.2L1125.2,1194.2z"/>
<path class="st20" d="M1160.8,1225.2c-18.4,16.4-67.7,34.4-93.3,34.3l11.9,32.8c25.5,0.1,74.8-17.9,93.3-34.3L1160.8,1225.2
	L1160.8,1225.2z"/>
<path class="st35" d="M1061.1,1334c-9.3-2.7-17.9-5.6-25.8-8.8c-7.9-3.1-15.3-6.5-22.2-10.2c-1.3-0.7-2.6-1.4-3.9-2.2
	c-1.3-0.7-2.6-1.5-3.8-2.2c-6.2-3.7-12.1-7.8-17.7-12.2c-5.6-4.4-11-9.2-16.3-14.4c-0.9-0.9-1.8-1.7-2.6-2.6s-1.8-1.8-2.6-2.7
	c-2.2-2.3-4.3-4.7-6.5-7.1s-4.3-5-6.5-7.7c-1.5-1.8-2.9-3.6-4.4-5.4c-1.5-1.8-2.9-3.7-4.4-5.7c-1-1.3-2.5-3.6-4-6.5
	c-1.5-2.7-3-5.8-4.5-9.2c-1-2.2-1.9-4.5-2.8-6.8c-0.8-2.1-1.4-4.1-2-6.1c-0.3-1.1-0.5-2.1-0.7-3.2s-0.3-2-0.4-2.9
	c-0.3-2.7-0.4-5.4-0.5-8.2c-0.1-2.8-0.1-5.5,0-8.1c0.1-3.2,0.3-6.2,0.6-9c6.8-19.2-9.8-50.3-9.3-52.4c10.2-11.9,15.3-15.2,28.2-7.8
	c4.3-0.4-0.8,38.7,10.1,46.2c3.7,2.6,7.8,6.8,11.9,11.1c3.2,3.3,6.6,6.8,9.8,9.5c5.7,9.3,13.5,18.2,22.4,26.2
	c9.5,8.5,20.3,16,31.4,22c7.3,3.9,14.7,7.2,22,9.8c7.2,2.5,14.2,4.3,20.9,5.2c9.5,1.1,20.8,0.7,32.6-0.9c13.1-1.8,27-4.9,40.3-8.8
	l1.6-0.5l1.6-0.5c2.3-0.7,4.5-1.4,6.7-2.2s4.4-1.5,6.6-2.3l1.9-0.7l1.9-0.7l2-0.8l2-0.8c0.8-0.3,1.6-0.6,2.3-0.9
	c0.8-0.3,1.5-0.6,2.3-0.9c1.7-0.2,3.1-0.1,4.5,0c1.3,0.2,2.5,0.5,3.6,0.9c1.7,0.7,3,1.6,4.1,2.6c1.1,1,2,2.1,2.7,3.1
	c0.4,0.5,0.7,1.1,1.1,1.5c0.4,0.7,0.8,1.2,1.1,1.6l0.2,0.3c0.9,1.1,1.3,2.6,1.6,4.4c0.2,1.8,0.2,3.8,0,5.7c-0.1,1.2-0.3,2.5-0.5,3.6
	c-0.2,1.1-0.4,2.2-0.6,3l-0.1,0.5l-0.5,1.2l-1.1,2.6c-1.3,3.1-2.9,6.8-4.7,10.7l-0.7,1.6l-0.8,1.6c-1.3,2.8-2.8,5.6-4.4,8.3
	c-1.6,2.7-3.3,5.4-5.1,7.8c-0.3,0.4-0.6,0.8-0.9,1.2c-0.3,0.4-0.6,0.8-0.9,1.2c-0.2,0.3-0.5,0.6-0.8,0.9c-0.3,0.3-0.5,0.6-0.8,0.9
	l-0.8,0.8l-0.8,0.8c-0.8,0.9-1.7,1.7-2.5,2.6c-0.9,0.8-1.7,1.6-2.6,2.3l-0.6,0.5l-0.6,0.5c-2.3,1.9-4.6,3.5-6.8,4.9
	c-2.2,1.4-4.2,2.6-6,3.5c-7.7,4-15.3,7-22.8,9.1c-7.5,2.1-14.7,3.4-21.7,4c-7.6,0.7-14.9,0.8-21.6,0.4s-13-1.1-18.5-1.9l-3.5-0.5
	c-1.6-0.2-3.1-0.5-4.6-0.7L1061.1,1334L1061.1,1334z"/>
<path class="st36" d="M1061.1,1334c-9.3-2.7-17.9-5.6-25.8-8.8c-7.9-3.1-15.3-6.5-22.2-10.2c-1.3-0.7-2.6-1.4-3.9-2.2
	c-1.3-0.7-2.6-1.5-3.8-2.2c-6.2-3.7-12.1-7.8-17.7-12.2c-5.6-4.4-11-9.2-16.3-14.4c-0.9-0.9-1.8-1.7-2.6-2.6s-1.8-1.8-2.6-2.7
	c-2.2-2.3-4.3-4.7-6.5-7.1s-4.3-5-6.5-7.7c-1.5-1.8-2.9-3.6-4.4-5.4c-1.5-1.8-2.9-3.7-4.4-5.7c-1-1.3-2.5-3.6-4-6.5
	c-1.5-2.7-3-5.8-4.5-9.2c-1-2.2-1.9-4.5-2.8-6.8c-0.8-2.1-1.4-4.1-2-6.1c-0.3-1.1-0.5-2.1-0.7-3.2s-0.3-2-0.4-2.9
	c-0.3-2.7-0.4-5.4-0.5-8.2v-0.1c2.8,1.1,5.4,4.9,8.8,11.1c38.7,69.6,72.2,96.3,125,105.4c52.2,9.1,75.4-6.6,106.2-32.5
	c2.7-2.3,14.9-13.1,26.3-21.5l-0.6,1.3c-1.3,3.1-2.9,6.8-4.7,10.7l-0.7,1.6l-0.8,1.6c-1.3,2.8-2.8,5.6-4.4,8.3
	c-1.6,2.7-3.3,5.4-5.1,7.8c-0.3,0.4-0.6,0.8-0.9,1.2c-0.3,0.4-0.6,0.8-0.9,1.2c-0.2,0.3-0.5,0.6-0.8,0.9c-0.3,0.3-0.5,0.6-0.8,0.9
	l-0.8,0.8l-0.8,0.8c-0.8,0.9-1.7,1.7-2.5,2.6c-0.9,0.8-1.7,1.6-2.6,2.3l-0.6,0.5l-0.6,0.5c-2.3,1.9-4.6,3.5-6.8,4.9
	c-2.2,1.4-4.2,2.6-6,3.5c-7.7,4-15.3,7-22.8,9.1c-7.5,2.1-14.7,3.4-21.7,4c-7.6,0.7-14.9,0.8-21.6,0.4s-13-1.1-18.5-1.9l-3.5-0.5
	c-1.6-0.2-3.1-0.5-4.6-0.7L1061.1,1334L1061.1,1334z"/>
<path class="st36" d="M951.3,1152.5c0.6,10.8,2,22.6,7.5,26.4c3.7,2.6,7.8,6.8,11.9,11.1c3.2,3.3,6.6,6.8,9.8,9.5
	c5.7,9.3,13.5,18.2,22.4,26.2c9.5,8.5,20.3,16,31.4,22c7.3,3.9,14.7,7.2,22,9.8c4.1,1.4,8.1,2.6,12.1,3.5c-0.1,1.3-1.9,1.4-6.5,0.5
	c-11.2-2.3-51.2-22.7-59.3-28.2c-10.4-7-33.2-30.4-38.6-39C952.2,1175.8,944.2,1169.1,951.3,1152.5L951.3,1152.5L951.3,1152.5z"/>
<path class="st37" d="M1180,1243.8c-5.4,0.2-0.6,4.2,0.1,9c0.8,5.4,2.6-0.6,7.2,3.4c7.4,6.4,11.2,1.6,6.5-4.3c-2.4-3-2.5-6.4-8.1-7
	C1184.3,1244.7,1181.8,1243.7,1180,1243.8L1180,1243.8L1180,1243.8z"/>
<path class="st22" d="M1364.7,1301.7c16.4-24.2,39.8-66.1,42.1-95.8c1-13.3-2.1-22.8-11.2-27c-14.3-6.6-24.2-0.2-34.6,9.6
	c-14.8,14.1-31.4,36.8-36.7,46.6c-11.2,20.8-27.5,45.9-39.8,67.3c-7.8,13.6-11.5,18.8-18.2,32.9c-4,8.3-34.1,88-6.9,89.6
	C1300.3,1427.3,1352.6,1319.6,1364.7,1301.7L1364.7,1301.7L1364.7,1301.7z"/>
<path class="st21" d="M1395.9,1183.1c-2.5-1.8-8.6-3.2-12.5-3c-9.6,0.6-18,6.9-19.5,11.4c-1,3,15.5-9.1,21.7-5.9
	c0.8,0.4-29.5,25.2-35.2,29.4c-2.3,1.7-10.6,8.2,0.2,2.7c5.4-2.8,33.9-29.4,39.3-28.4c0,2.2-20.9,22.6-24.4,29.7
	c-1.1,2.2-12.1,15.8-3,7.3c6.6-6.1,23.5-28.4,29.7-33.1c0.9,1.8-17.9,38.5-18,39.2c-0.7,3.8,6.7-8.7,8-12.4
	c2-5.6,18.9-39.2,13.9-12.6c-0.1,0.4-12.7,46.6-10.3,46.3C1387.5,1253.5,1415.1,1196.8,1395.9,1183.1L1395.9,1183.1L1395.9,1183.1z"
	/>
<path class="st39" d="M980.9,1330.3c-16.5-5.2,1.5-7.8,1.8-0.7C982.7,1330.3,981.2,1330.4,980.9,1330.3L980.9,1330.3L980.9,1330.3z"
	/>
<path class="st44" d="M946.5,1199.2c10.5,23.3,23.2,26.9,39.2,23.4L946.5,1199.2L946.5,1199.2z"/>
<path class="st21" d="M946.5,1199.2c27.7-0.5,36.4,8.7,39.2,23.4L946.5,1199.2L946.5,1199.2z"/>
<path class="st37" d="M971.3,1245c5.8-1.8,14.9-17.5,16.5-23.6c0.5-1.8,3.2-9,2.2-10.2c-7.3-8.7-4.5,0.7-5.6,4.9
	c-1.6,6.4-6.2,17.5-9.9,23.2c-0.4,0.7-3.9,5.2-3.9,5.2C970.8,1244.8,971,1245,971.3,1245L971.3,1245L971.3,1245z"/>
<path class="st45" d="M939.4,1233.1c-33.9,12.4-20.2,78.1,0.5,92.9c11.4,8.2,17.1,8.4,22.9,7.6c5.7-0.8,8.4,2.8,22.8,0
	c30.2-5.8,48.6-41.8,39.2-74.1c-5.7-19.5-15-26.9-31.3-24C966.2,1240.4,952.8,1228.2,939.4,1233.1L939.4,1233.1L939.4,1233.1z"/>
<path class="st19" d="M937.8,1321.9c1.3,1.5,2.7,2.8,4,3.8c10.8,8.1,16.3,8.3,21.8,7.5c5.5-0.8,8,2.8,21.7-0.1
	c28.8-5.9,46.4-42,37.6-74.2c-2.7-9.8-6.2-16.3-11-19.9c3.1,3.8,5.6,9.3,7.6,16.6c8.8,32.2-9.7,65.5-38.5,71.4
	c-13.7,2.8-31,4.1-42.6-4.6C938.2,1322.2,938,1322.1,937.8,1321.9L937.8,1321.9L937.8,1321.9z"/>
<path class="st46" d="M960.5,1241.3c-2.6-4.8-14.8-0.7-17.9,1.3c-4.1,2.7-10.4,9.3-4,12.7C951.5,1261.9,948.8,1242.2,960.5,1241.3
	L960.5,1241.3L960.5,1241.3z"/>
<polygon class="st47" points="869.6,1291.2 1398.9,1291.2 1398.9,1781.7 869.6,1781.7 "/>
<polygon class="st48" points="876.9,1293.2 1406.2,1293.2 1406.2,1783.7 876.9,1783.7 "/>
<path class="st49" d="M1175.9,741.3c-12.4,4.2-29.8,8.9-42.5,8.1c-17.2,0.2-32.1-3.5-45.4-8.6c2.3,6.5,26.5,20.5,44.1,21.5
	C1152.7,760.9,1174.4,747.3,1175.9,741.3L1175.9,741.3z"/>
<path class="st50" d="M1088.3,739.1l1.5,1.3c9.5,8.8,19.1,17.7,41.7,19.7c10.4-0.2,18.9-3,26.3-7.2c7.5-4.2,14-9.8,20.3-15.4
	l2.9,3.2c-6.4,5.8-13.1,11.5-21.1,16c-8,4.5-17.2,7.5-28.5,7.7h-0.2h0c-24.1-2.1-34.3-11.6-44.3-20.9l-1.4-1.3L1088.3,739.1
	L1088.3,739.1z"/>
<polygon class="st51" points="129.9,30.9 2164.4,30.9 2164.4,2030.9 129.9,2030.9 "/>
</svg>
