<?xml version="1.0" encoding="utf-8"?>
<!-- Generator: Adobe Illustrator 25.2.1, SVG Export Plug-In . SVG Version: 6.00 Build 0)  -->
<svg version="1.1" id="Ñëîé_1" xmlns="http://www.w3.org/2000/svg" xmlns:xlink="http://www.w3.org/1999/xlink" x="0px" y="0px"
	 viewBox="0 0 2327.49 2043.57" style="enable-background:new 0 0 2327.49 2043.57;" xml:space="preserve">
<style type="text/css">
	.st0{fill-rule:evenodd;clip-rule:evenodd;fill:#E8EDFF;}
	.st1{fill-rule:evenodd;clip-rule:evenodd;fill:#29297D;}
	.st2{fill-rule:evenodd;clip-rule:evenodd;fill:#F2BF24;}
	.st3{fill-rule:evenodd;clip-rule:evenodd;fill:#29B5C9;}
	.st4{fill:#29297D;}
	.st5{fill-rule:evenodd;clip-rule:evenodd;fill:#FFA8BF;}
	.st6{fill-rule:evenodd;clip-rule:evenodd;fill:#A3CCFC;}
	.st7{fill-rule:evenodd;clip-rule:evenodd;fill:#EDB39E;}
	.st8{fill-rule:evenodd;clip-rule:evenodd;fill:#70ABEB;}
	.st9{fill-rule:evenodd;clip-rule:evenodd;fill:#D69680;}
	.st10{fill-rule:evenodd;clip-rule:evenodd;fill:#EDF0FA;}
	.st11{fill-rule:evenodd;clip-rule:evenodd;fill:#171A5C;}
	.st12{fill-rule:evenodd;clip-rule:evenodd;fill:#AD7554;}
	.st13{fill-rule:evenodd;clip-rule:evenodd;fill:#96C7FF;}
	.st14{fill-rule:evenodd;clip-rule:evenodd;fill:#F7CCBF;}
	.st15{fill-rule:evenodd;clip-rule:evenodd;fill:#C78A73;}
	.st16{fill:#C78A73;}
	.st17{fill:#D69680;}
	.st18{fill-rule:evenodd;clip-rule:evenodd;fill:#590505;}
	.st19{fill-rule:evenodd;clip-rule:evenodd;fill:#940505;}
	.st20{fill-rule:evenodd;clip-rule:evenodd;fill:#E6E6E6;}
	.st21{fill-rule:evenodd;clip-rule:evenodd;fill:#009933;}
	.st22{fill-rule:evenodd;clip-rule:evenodd;fill:#037D2B;}
	.st23{fill-rule:evenodd;clip-rule:evenodd;fill:#0A6E2B;}
	.st24{fill-rule:evenodd;clip-rule:evenodd;fill:#96E3FA;}
	.st25{fill-rule:evenodd;clip-rule:evenodd;fill:#F5F7FA;}
	.st26{fill-rule:evenodd;clip-rule:evenodd;fill:#478FA6;}
	.st27{fill-rule:evenodd;clip-rule:evenodd;fill:#57C7ED;}
	.st28{fill-rule:evenodd;clip-rule:evenodd;fill:#63ABBA;}
	.st29{fill-rule:evenodd;clip-rule:evenodd;fill:#2B7D91;}
	.st30{fill-rule:evenodd;clip-rule:evenodd;fill:#C9EDFF;}
	.st31{fill-rule:evenodd;clip-rule:evenodd;fill:#ABABAB;}
	.st32{fill-rule:evenodd;clip-rule:evenodd;fill:#C7C4C4;}
	.st33{fill-rule:evenodd;clip-rule:evenodd;fill:#ABBDC9;}
	.st34{fill-rule:evenodd;clip-rule:evenodd;fill:#EDEDED;}
	.st35{fill-rule:evenodd;clip-rule:evenodd;fill:#F7C738;}
	.st36{fill-rule:evenodd;clip-rule:evenodd;fill:#E3B521;}
	.st37{fill-rule:evenodd;clip-rule:evenodd;fill:#996633;}
	.st38{fill-rule:evenodd;clip-rule:evenodd;fill:#FCAB2E;}
	.st39{fill-rule:evenodd;clip-rule:evenodd;fill:#F59412;}
	.st40{fill-rule:evenodd;clip-rule:evenodd;fill:#FFC46B;}
	.st41{fill-rule:evenodd;clip-rule:evenodd;fill:#78C4EB;}
	.st42{fill-rule:evenodd;clip-rule:evenodd;fill:#54A3C9;}
	.st43{fill-rule:evenodd;clip-rule:evenodd;fill:#CCCCCC;}
	.st44{fill-rule:evenodd;clip-rule:evenodd;fill:#54AD54;}
	.st45{fill-rule:evenodd;clip-rule:evenodd;fill:#CF300F;}
	.st46{fill-rule:evenodd;clip-rule:evenodd;fill:#F0A394;}
	.st47{fill:none;stroke:#B08C5C;stroke-width:2.5918;stroke-linejoin:round;stroke-miterlimit:22.9256;}
	.st48{fill-rule:evenodd;clip-rule:evenodd;fill:#F0D9B0;}
	.st49{fill:#C70F2B;}
	.st50{fill-rule:evenodd;clip-rule:evenodd;fill:#FCFCFC;}
	.st51{fill:#AD7554;}
	.st52{fill:none;stroke:#FFFFFF;stroke-width:2.0408;stroke-miterlimit:22.9256;}
</style>
<path class="st0" d="M1845.61,1954.77c-132.36,42.05-280.41,26.94-395.64,42.56c-214.55,29.09-384.41-31.07-590.49,27.05
	c-220.21-109.15-378.68-63.75-598.9-172.91C-16.87,1629.17-24.98,1140.67,73.33,803.95c66.29-227.03,181.02-414.05,357.32-369.24
	c53.47,13.59,73.09-73.21,79.98-93.65c101.38-301.1,524.51-427.58,655.84-208.66c69.94,116.58,180.41,180.85,256.19,102.44
	c119.41-95.22,309.1-82.07,350.1,62.57c44.75,157.87,42.88,174.24,191.04,238.77c243.14,105.89,320.14,426.75,308.42,736.04
	C2261.14,1564.42,2101.78,1873.36,1845.61,1954.77L1845.61,1954.77z"/>
<polygon class="st1" points="842.6,1663.74 1421.44,1663.74 1421.44,1853.81 842.6,1853.81 842.6,1663.74 "/>
<path class="st2" d="M1361.06,1580.94c-15.16-6.01-17.52-237.81-135.4-403.91c-55.12-77.66,41.04-144.58,106.96-41.88
	c-9.35-16.98-15.11-33.92-17.9-50.36c-24.77-145.52,182.09-251.94,180.85,3.81c13.12-14.84,24.76-26.17,36.17-34.18
	c47.18-33.18,183.75-8.19,96.43,85.65c-23.89,25.68-56.79,51.92-79.61,75.97C1414.15,1302.13,1427.93,1573.81,1361.06,1580.94
	L1361.06,1580.94z"/>
<path class="st2" d="M1554.72,1721.21c32.49-41.33,77.1-73.47,131.03-134.5c12.86-14.55,2.2,44.33,20.72,44.49
	c10.37,0.09,7.35-53.88,16.13-60.06c28.77-20.27,48.87-23.87,72.95-25.62c17.03-1.23,3.36,41.77,19.36,37.01
	c14.96-4.45,28.03-45.91,42.15-49.16c49.46-11.38,91.41-14.68,109.24-4.92c-107.61,43.27-322.06,180.32-407.6,234.98l-3.94,2.52
	c-9.55,6.09-18.4,12.29-26.53,19.25C1530.27,1754.02,1561.74,1724.72,1554.72,1721.21L1554.72,1721.21z M1971.89,1532.89
	c-12.18,36.63-43.92,89.94-78.8,91.04c-43.31,1.37-53.87,1.37-51.66,4.66c3.17,4.69,32.4,16.1,29.63,47.75
	c-50.66,86.62-58.42,69.27-130.92,30.62c5.98,35.5,25.42,34.86,37.3,60.25c-26.01,54.38-182.04,94.17-229.2,58.06
	c-12.97-9.93-18.6-20.94-19.84-31.96c1.14-1.04,2.29-2.06,3.47-3.07c8.02-6.89,16.76-13.02,26.21-19.06l3.94-2.51
	C1648.33,1713.49,1866.18,1574.27,1971.89,1532.89L1971.89,1532.89z"/>
<path class="st3" d="M1407.35,1842.79c-53.69-49.83-154.92-114.21-143.62-220.35c-7.31-17.4,50.72-308.84,189.6-112.75
	c-103.91-132.67,112.69-403.73,279.61-497.33c155.22-87.04,79.41,136.26,21.29,273.71c-2.13,5.05-3.96,10.91-4.35,13.43
	c1.45-0.07,133.86-88.61,130.12,71.45C1876.13,1537.36,1539.44,1775.09,1407.35,1842.79L1407.35,1842.79z"/>
<path class="st4" d="M1479.93,1617.27c78.1-60.88,128.74-108.48,149.37-152.77c56.19-120.62-51.69-204.78,11.2-375.24
	c12.73-34.5,24.17-71.95,39.89-104.9l4.2,4.22c-11.42,23.96-24.4,75.85-34.27,105.52c-78.92,237.17,148.01,323.18-169.26,536.47
	C1478.39,1632.36,1393.34,1684.76,1479.93,1617.27L1479.93,1617.27z"/>
<path class="st1" d="M1677.97,997.82c7.19-7.58,31.97-32.03,12.32-37.85c-7.4-2.19-12.86,14.94-12.71,23.2
	C1677.04,985.22,1678.1,997.69,1677.97,997.82L1677.97,997.82z"/>
<path class="st1" d="M1669.75,1025.52l2.19-2.22c4.63-4.69,22.69-22.59,29.09-12.82c5.68,8.69-10.47,17.78-19.58,18.67
	c-0.41,0.14-10.98-2.78-12.11-2.61L1669.75,1025.52L1669.75,1025.52z"/>
<path class="st1" d="M1651.81,1069.76c9.77-3.68,16.18-12.21,31.54-17.43c20.96-7.14,25.55,23.77-0.35,23.21
	c-6.31-0.14-14.8,0.78-20.37-4.06C1661.89,1071.68,1652.7,1069.41,1651.81,1069.76L1651.81,1069.76z"/>
<path class="st1" d="M1640.22,1127.29c1.81-0.75,13.77-15,21.3-19.11c33.55-18.35,45.16,17.88,19.37,18.69
	c-13.3,0.42-29.77-4.85-42.04,1.08C1639.43,1127.67,1640.01,1127.38,1640.22,1127.29L1640.22,1127.29z"/>
<path class="st1" d="M1628.72,1183.84c7.8-7.73,24.75-21,39.66-28.31c41-20.1,33,24.36-3.71,25.77c-8.58,0.33-16.58-3.56-26.37,0.05
	C1638.27,1181.37,1628.89,1183.67,1628.72,1183.84L1628.72,1183.84z"/>
<path class="st1" d="M1629.5,1240.45c2.49-1.17,18.19-20.53,28.45-26.65c45.76-27.3,65.01,16.42,28.77,20.81
	c-18.7,2.26-42.3-2.16-59.1,6.85C1628.42,1241.03,1629.21,1240.58,1629.5,1240.45L1629.5,1240.45z"/>
<path class="st1" d="M1638.18,1293.56c11.47-6.49,22-16.31,35.45-21.85c41.29-16.97,41.49,19.29,18.68,22.94
	c-24.76,3.98-23.66,0.62-42.89-0.73C1647.25,1293.76,1638.77,1293.22,1638.18,1293.56L1638.18,1293.56z"/>
<path class="st1" d="M1651.97,1363.69c6.33-8.97,21.98-24.35,38.03-32.8c44.16-23.22,56.95,28.59,8.67,30.04
	c-11.29,0.34-24.04-4.24-35.21-0.08C1663.42,1360.86,1652.11,1363.49,1651.97,1363.69L1651.97,1363.69z"/>
<path class="st1" d="M1642.08,1438.75c7.13-9.78,25.03-25.61,43.73-32.87c51.44-19.94,68.96,46.04,11.64,38.5
	c-13.4-1.76-28.76-9.84-41.84-6.9C1655.57,1437.49,1642.25,1438.53,1642.08,1438.75L1642.08,1438.75z"/>
<path class="st1" d="M1616.02,1504.61c9.23-7.26,30.65-17.37,51.13-19.26c56.35-5.22,60.77,60.81,4.03,38.89
	c-13.27-5.13-27.24-16.63-41.14-17.3C1629.98,1506.93,1616.23,1504.44,1616.02,1504.61L1616.02,1504.61z"/>
<path class="st1" d="M1665.81,1021.18l-0.53-3.08c-1.13-6.49-5.77-31.49-16.59-27.11c-9.62,3.9-1.54,20.57,5.44,26.5
	c0.26,0.36,10.6,3.98,11.44,4.77L1665.81,1021.18L1665.81,1021.18z"/>
<path class="st1" d="M1648.98,1064.83c-4.89-9.23-4.06-19.85-12.12-33.94c-11-19.22-34.89,0.92-15.1,17.63
	c4.82,4.07,10.58,10.38,17.96,10.43C1640.15,1059.61,1648.53,1063.99,1648.98,1064.83L1648.98,1064.83z"/>
<path class="st1" d="M1633.56,1123.95c-1.23-1.53-4.9-19.76-9.53-26.98c-20.64-32.19-48.2-5.97-25.96,7.11
	c11.47,6.75,28.45,10.02,36.38,21.11C1634.07,1124.66,1633.7,1124.12,1633.56,1123.95L1633.56,1123.95z"/>
<path class="st1" d="M1629.5,1177.31c-6.83-8.59-22.1-23.77-36.04-32.79c-38.34-24.8-35.64,20.3,0.64,26.03
	c8.49,1.35,16.89-1.58,26.18,3.16C1620.31,1173.73,1629.34,1177.12,1629.5,1177.31L1629.5,1177.31z"/>
<path class="st1" d="M1636.91,1293.5c-2.33-1.46-15.64-22.53-25.12-29.82c-42.22-32.51-66.49,8.64-31.02,17.27
	c18.3,4.45,42.25,2.84,57.88,13.77C1637.91,1294.2,1637.18,1293.67,1636.91,1293.5L1636.91,1293.5z"/>
<path class="st1" d="M1625.99,1233.65c-10.63-7.8-19.92-18.8-32.63-25.87c-39-21.73-43.47,14.25-21.26,20.58
	c24.12,6.88,23.42,3.4,42.68,4.33C1616.96,1232.79,1625.45,1233.25,1625.99,1233.65L1625.99,1233.65z"/>
<path class="st1" d="M1651.73,1362.36c-5.23-9.66-18.95-26.78-33.89-37.06c-41.12-28.27-59.92,21.67-12.15,28.8
	c11.17,1.67,24.37-1.37,34.97,4.07C1640.69,1358.2,1651.61,1362.14,1651.73,1362.36L1651.73,1362.36z"/>
<path class="st1" d="M1642.11,1439.26c0.23-12.09-4.48-35.53-15-52.6c-28.96-46.96-82.78-4.96-32.54,23.65
	c11.75,6.69,28.86,9.53,37.52,19.78C1632.13,1430.11,1642.12,1438.99,1642.11,1439.26L1642.11,1439.26z"/>
<path class="st1" d="M1614.76,1504.87c0.87-11.71-2.69-35.12-12.54-53.18c-27.11-49.67-84.38-16.5-34.52,18.36
	c11.66,8.16,29,13.32,37.31,24.49C1605.04,1494.58,1614.78,1504.61,1614.76,1504.87L1614.76,1504.87z"/>
<path class="st1" d="M1552.62,1575.82c9.22-7.26,30.64-17.36,51.12-19.27c56.35-5.22,60.78,60.82,4.03,38.89
	c-13.27-5.12-27.25-16.63-41.15-17.3C1566.59,1578.15,1552.83,1575.66,1552.62,1575.82L1552.62,1575.82z"/>
<path class="st1" d="M1551.36,1576.08c0.87-11.71-2.69-35.12-12.54-53.18c-27.11-49.67-84.38-16.5-34.52,18.36
	c11.66,8.16,29.01,13.33,37.31,24.49C1541.64,1565.8,1551.38,1575.82,1551.36,1576.08L1551.36,1576.08z"/>
<path class="st2" d="M547.03,1526.03c-69.96-93.93-212.91-109.33-283.55-166.43c32.02,99.59,40.07,152.23,136.32,251.77
	C497.71,1712.62,630.65,1638.31,547.03,1526.03L547.03,1526.03z"/>
<path class="st2" d="M936.92,1855.73c-133.64-127.67-191.28-150.61-429.33-136.14c-45.55,2.77-85.09,6.17-96.95,8.95
	c18.54,0.7,43.5,25.9,72.9,55.13c81.46,80.97,184.28,144.86,314.79,113.79C846.05,1886.09,893.16,1867.83,936.92,1855.73
	L936.92,1855.73z"/>
<path class="st3" d="M834.71,1804.27c-115.06,27.76-238.04,12.56-347.3-55.37c-177.04-110.07-166.94-286.22,11.05-183.09
	c35.84,20.77,100.29-8.8,18.43-37.93l-28.14-10.02c-44.91-15.98-31.19-13.16-74.87-38.99c-144.78-85.63-84.97-293.39,32.67-163.44
	c114.54,127.39,12-0.72-37.12-81.24c-101.04-323.22,113.43-322.86,124.55-173.57c1.09,14.61,26.39,202.07,63.27,38.44
	c26.11-115.83,88.31-145.63,137.43,26.32c29.47,103.17-71.53,486.55,120.93,144.67c86.79-92.9,137.81,333.11,89.76,433.08
	C905.82,1785.41,899.77,1744.18,834.71,1804.27L834.71,1804.27z"/>
<path class="st5" d="M1155.29,1482.53l-286.82-3.34l-12.74-29.89c-59.19-45.13-136.15-209.34-176.23-298.67
	c-10.1-84.91-20.6-163.1,108.34-165.14c19.23-0.3,63.3,41.03,91.18,97.5c34.72,70.31,35.69,4.96,4.82-101.91
	c-9.9-34.28-30.66-132.44-14.69-155.48c99.91-144.05,203.76,115.12,189.54,230.7c-2.71,22.01,2.2,16.16,5.08,46.08
	c18.73-143.33,185.35-221.75,185.35,90.35C1249.13,1292.47,1212.64,1405.33,1155.29,1482.53L1155.29,1482.53z"/>
<path class="st6" d="M821.37,1771.18c-34.86-29.88-5.49-10.55-62-54.17c-66.82-51.57-302.73-92.75-324.15-59.23
	c16.85,27.89,53.71,69.32,82.93,65.25c42.67-5.93,34.42-8.03,80.68-6.96c-8.71-0.2-8.46-1.48-16.57,1.61
	c-1.75,8-35.76,42.67-36.09,44.86c58.34,64.09,73.53,37.22,127.81,0.57c1.33,28.53-26.96,42.2-32.43,63.24
	c31.73,40.73,170.65,58.93,203.99,26.43C883,1816.24,813.75,1776.03,821.37,1771.18L821.37,1771.18z"/>
<path class="st4" d="M811.05,1790.8c0-44.79-15.62-72.99-37.88-95.65c-54.97-55.94-98.03-74.58-152.75-147
	c-77.51-102.61-70.15-151.53-58.27-230.41c5.18-34.36,11.22-74.51,11.22-127.6h8.87c0,53.7-6.1,94.24-11.33,128.91
	c-11.66,77.42-18.84,125.14,59.43,227.51c51.07,66.79,132.26,114.93,165.42,161.13c14.73,20.52,24.15,46.33,24.15,83.1H811.05
	L811.05,1790.8z"/>
<path class="st1" d="M577.33,1201.22c4.65-9.47,21.17-40.51,0.46-40.21c-7.79,0.12-7.89,18.28-5.26,26.2
	C572.64,1189.35,577.41,1201.05,577.33,1201.22L577.33,1201.22z"/>
<path class="st1" d="M575.71,1216.13l-1.29-2.88c-2.72-6.08-13.47-29.41-22.98-22.43c-8.45,6.21,3.6,20.52,11.91,24.6
	c0.34,0.28,11.37,1.27,12.38,1.83L575.71,1216.13L575.71,1216.13z"/>
<path class="st1" d="M571.75,1254.38c-7.94-6.95-10.98-17.28-23.67-27.67c-17.3-14.17-32.59,13.44-7.89,22.08
	c6.02,2.11,13.73,5.98,20.7,3.37C561.54,1252.62,571.02,1253.74,571.75,1254.38L571.75,1254.38z"/>
<path class="st1" d="M566.64,1298.97c-1.45-1.35-7.72-19.06-13.38-25.62c-25.24-29.24-49.06,0.92-24.95,10.82
	c12.44,5.1,29.88,5.95,39.4,15.91C567.25,1299.61,566.8,1299.13,566.64,1298.97L566.64,1298.97z"/>
<path class="st1" d="M556.2,1374.2c-5.62-6.9-19.11-18.47-32.55-24.4c-36.98-16.32-44.44,26.26-5.34,24.75
	c9.15-0.35,19.19-4.76,28.45-2.02C546.79,1372.55,556.08,1374.04,556.2,1374.2L556.2,1374.2z"/>
<path class="st1" d="M559.5,1332.96c-9.65-7.32-18.02-17.56-29.59-24.25c-35.51-20.53-40.14,12.45-19.83,18.59
	c22.05,6.66,21.46,3.47,39.14,4.61C551.22,1332.03,559.01,1332.58,559.5,1332.96L559.5,1332.96z"/>
<path class="st1" d="M556.85,1411.19c-12.76-3.2-22.01-12.94-41.99-17.26c-27.26-5.9-28.54,33.44,3.79,29
	c7.88-1.08,18.64-1.16,24.9-8.03C544.51,1415.05,555.68,1410.9,556.85,1411.19L556.85,1411.19z"/>
<path class="st1" d="M576.27,1463.6c-2.69-0.68-21.99-16.78-33.34-20.84c-50.59-18.11-61.12,28.9-24.42,26.19
	c18.94-1.4,41.43-10.37,59.81-4.72C577.45,1463.96,576.58,1463.68,576.27,1463.6L576.27,1463.6z"/>
<path class="st1" d="M614.51,1539.38c-10.15-4.47-31.71-9.64-50-8.59c-50.32,2.9-34.41,54.4,8.14,30.51
	c9.95-5.59,18.6-16.19,30.43-18.4C603.12,1542.9,614.28,1539.28,614.51,1539.38L614.51,1539.38z"/>
<path class="st1" d="M585.18,1494.46c-14.87-2.64-29.99-9.25-46.63-10.1c-51.09-2.61-37.48,36.64-11.45,31.9
	c28.27-5.13,25.8-8.35,46.06-17.14C575.46,1498.14,584.42,1494.32,585.18,1494.46L585.18,1494.46z"/>
<path class="st1" d="M648.61,1568.71c-13.05-2.83-39.71-3.76-61.03,1.86c-58.66,15.48-27.54,72.41,16.92,34.03
	c10.4-8.97,18.06-23.55,31.48-29C636.02,1575.59,648.31,1568.65,648.61,1568.71L648.61,1568.71z"/>
<path class="st1" d="M683.68,1610.03c-13.35-0.06-39.62,4.58-59.31,14.52c-54.15,27.34-11.87,76.55,23.63,29.77
	c8.3-10.94,12.76-26.79,24.76-34.92C672.79,1619.37,683.38,1610.03,683.68,1610.03L683.68,1610.03z"/>
<path class="st1" d="M584.46,1217.92l2.08-2.37c4.39-5.01,21.53-24.13,28.56-14.66c6.25,8.42-9.49,18.55-18.63,20
	c-0.41,0.17-11.24-2.14-12.37-1.91L584.46,1217.92L584.46,1217.92z"/>
<path class="st1" d="M576.97,1255.64c9.64-4.3,15.59-13.28,30.77-19.46c20.71-8.44,27.19,22.45,1.03,23.43
	c-6.37,0.24-14.88,1.67-20.78-2.88C587.25,1256.97,577.86,1255.24,576.97,1255.64L576.97,1255.64z"/>
<path class="st1" d="M568.72,1299.76c1.78-0.87,12.99-15.95,20.34-20.54c32.74-20.51,46.61,15.34,20.65,17.69
	c-13.39,1.22-30.31-3.11-42.33,3.6C567.95,1300.19,568.51,1299.86,568.72,1299.76L568.72,1299.76z"/>
<path class="st1" d="M556.52,1374.72c7.4-8.26,23.7-22.66,38.3-30.92c40.15-22.72,34.73,22.6-2.2,26.21
	c-8.64,0.85-16.94-2.6-26.59,1.62C566,1371.66,556.68,1374.53,556.52,1374.72L556.52,1374.72z"/>
<path class="st1" d="M561.43,1330.25c11.38-6.35,22.4-15.79,35.42-21.28c39.98-16.87,34.69,17.04,13.47,21.01
	c-23.04,4.32-21.54,1.14-38.76,0.34C569.61,1330.22,562.01,1329.92,561.43,1330.25L561.43,1330.25z"/>
<path class="st1" d="M555.21,1414.7c12.63-9.02,18.47-20.77,38.56-34.41c27.41-18.6,46.43,8.39,8.8,22.4
	c-9.17,3.41-21.06,9.07-31.04,7.55C570.53,1410.87,556.37,1413.87,555.21,1414.7L555.21,1414.7z"/>
<path class="st1" d="M573.54,1458.21c1.55-1.76,7.28-22.22,13.24-30.49c26.56-36.85,56.42-9.15,29.55,6.55
	c-13.86,8.1-33.82,12.62-43.92,25.36C572.9,1459.03,573.36,1458.41,573.54,1458.21L573.54,1458.21z"/>
<path class="st1" d="M621.2,1542.08c-0.47-11.08,2.55-33.04,10.18-49.7c20.99-45.83,63.19-12.28,25.46,18.68
	c-8.82,7.25-21.84,11.45-28.21,21.66C628.61,1532.74,621.19,1541.83,621.2,1542.08L621.2,1542.08z"/>
<path class="st1" d="M591.12,1489.6c6.66-11.53,10.8-25.47,19.68-37.18c27.26-35.93,46-4.46,28.02,10.4
	c-19.52,16.15-20.29,12.66-37.72,21.33C599.13,1485.14,591.46,1489.02,591.12,1489.6L591.12,1489.6z"/>
<path class="st1" d="M638.26,1569.96c6.6-11.6,23.71-32.07,42.13-44.19c50.69-33.33,72.29,27.84,14.04,35.31
	c-13.62,1.75-29.59-2.28-42.61,4.07C651.78,1565.18,638.41,1569.7,638.26,1569.96L638.26,1569.96z"/>
<path class="st1" d="M674.26,1612.74c8.87-9.98,29.87-26.43,50.41-34.46c56.51-22.06,64.92,42.28,6.38,37.46
	c-13.69-1.12-28.47-8.38-42.52-4.88C688.48,1610.87,674.46,1612.51,674.26,1612.74L674.26,1612.74z"/>
<path class="st5" d="M1512.53,1760.53c115.24-20.94,209.29,37.91,299.89,44.36c-91.36,50.96-133.16,83.95-271.44,91.04
	C1400.33,1903.16,1374.8,1785.55,1512.53,1760.53L1512.53,1760.53z"/>
<g>
	<path class="st5" d="M1494.18,664.9c0.39-0.12-0.6,2.87-0.21,2.74c12.72-4.02,27.75-15.23,42.49-19.64
		c9.96-2.98,45.13-14.32,44.74,1.73c-0.29,12.13-22.74,19.77-30.7,29.92c-4.55,5.8-6.5,13.16-14.05,15.81
		c-9.61,3.37-19-3.73-27.49-5.34c0.48,5.63,0.59,9.95,0.31,13.37c-0.71,8.6-3.84,12.84-9.48,16.43c-19.39,12.36-23.4,5.03-33.4,9.24
		c-4.48,1.89-1.7,3.35-7.28,4.08c-2.28-3.97-2.8-11.34-2.68-17.27c0.15-7.16,9.98-19.2,11.54-25.15
		c-6.55,4.11-11.71,13.37-19.02,13.06c-1.1-8.91,12.17-12.94,15.24-18.86c-25.8,11.62-32.51,14.32-42.03,12.57
		c-5.63-1.04-6.71-1.31-2.92-6.07c3.1-3.89-1.05-4.77-3.41-13.09c-2.55-8.98-2.69-14.93,1.15-23.44c9.47-21,18.8-12.63,37.6-9.85
		c-9.02-13.31-24.52-10.16-9.22-36.41c5.42-9.28,9.13-38.45,21.14-38.31c12.6,0.15,17.52,25.53,19.14,39.53
		c5.46,47.28-1.34,35.6-0.31,53.64c0.29-0.35,1.33-0.55,2.88-2.04c4.19-3.84,8.45-17.48,8.05-22.87c-2.05-11.76,2.52-9.22,1.76-0.23
		c-0.57,6.71-5.39,16.39-6.09,20.61c1.17-0.03,1.97,0.25,2.97,1.55c3.27-3.92,14.32-13.02,15.5-16.38c4.2-12.06,7.13-4.13,1.52,1.02
		c-4.71,4.33-8.68,7.84-12.9,12.72C1497.09,660.18,1496.35,659.56,1494.18,664.9L1494.18,664.9z"/>
	<path class="st6" d="M618.18,850.14c-9.06,0.38-14.8,0.46-22.91-4.68c-11.86-8.2-9.57,0.24-3.64,2.75
		c2.86,1.21,6.37,1.42,11.5,2.49c6.33,1.32,11.45,2.17,17.6,3.36c1.27,2.18,3.64,3.65,6.35,3.65c1.76,0,3.37-0.62,4.63-1.65
		c3.97,1.51,6.4,3.76,11.73,6.46c6.72,3.4,15.42,7.49,22.21,12.89c13.88,11.04,27.45,17.91,37.13,17.57
		c-2.56-8.85-15.7-16.18-30.89-23.71c35.03,0.39,92.48,35.2,97.19-6.47c1.58-13.92-7.81-41.79-16.9-53.2
		c-5.1-6.41-14.26-10.9-37.2-7.15c13.13-41.02-11.5-33-16.99-72.33c-1.62-11.58-0.22-20.34-5.64-28.83
		c-18.05-1.27-38.11,39.31-43.24,60.9c-23.68-9.94-24.83-36.59-32.68-48.1c-27.98-41.03-48.93,33.68-13.86,90.39
		c4.75,7.68,32.7,39.62,39.2,46.5c-0.75-0.15-5.67,0.8-6.89-0.9c-0.15-0.22-0.33-0.43-0.52-0.64c-0.46-3.61-3.54-6.41-7.28-6.41
		c-3.47,0-5.37,1.46-6.54,4.28c-9.19-1.07-14.92-1.84-22.2-8.27c-10.42-9.97-9.48-1.27-4.03,2.14c2.63,1.64,6.07,2.41,10.97,4.28
		C609.93,847.23,613.91,848.62,618.18,850.14L618.18,850.14z"/>
</g>
<path class="st7" d="M725.5,1251.52l-40.14,155.02c-6.56,16.17-13.12,32.33-19.68,48.5c-10.45,49.33-0.4,103.98,26.76,139.56
	l122.05,153.19l40.95-85.23l-65.86-162.19l94.05-215.48L725.5,1251.52L725.5,1251.52z"/>
<path class="st8" d="M776.56,1036.36l24.85-43.97l6.83,6.66c20.06,19.57,74.66,238.32,82.71,277.82
	c7.97,39.09-15.93,40.48-21.03,62.6c-3.81,1.3-143.45-63.94-162.35-67.8c-0.81-0.16-13.94-5.27-17.04-7.81L776.56,1036.36
	L776.56,1036.36z"/>
<path class="st9" d="M798.84,1725.04l17.77,22.75l40.95-85.23l-55.79-137.39c2.67,14.29,6.61,18.21,7.83,34.96
	c1.89,26.16,9.4,38.08,12.7,57.38C826.48,1642.01,815.78,1708.31,798.84,1725.04L798.84,1725.04z"/>
<path class="st8" d="M1020.13,889.03c31.28-35.1,179.27-37.39,210.4-20.33c21.47,11.77,9.16,30.73,12.71,44.95
	c20.28,81.12-172.67,123.51-197.59,12.12C1043.52,916.26,1016.82,892.73,1020.13,889.03L1020.13,889.03z"/>
<path class="st10" d="M1235.08,531.08c-31.98,22.84-41.61,54.22-21.53,70.08c20.09,15.87,62.27,10.22,94.23-12.61
	c31.96-22.85,41.6-54.22,21.51-70.09C1309.22,502.6,1267.03,508.24,1235.08,531.08L1235.08,531.08z"/>
<path class="st7" d="M1066.99,786.64c12.13,39.5,3.85,58.22,0.13,84.89c-0.36,7.63-53.7,19.16-47.15,26.58
	c24.1,27.29,114.63,132.49,259.31,7.26c2.56-2.21-14.77,1.23-27.5-10.12c-14.7-13.11-41.24-17.67-39.51-20.61
	c-7.72-33.61-10.47-47.74,0.37-90.15C1164.08,785.21,1115.54,785.93,1066.99,786.64L1066.99,786.64z"/>
<path class="st7" d="M1264.88,495.43l-114.21-27.28c-43.25,11.78-86.51,23.56-129.75,35.34c-25.49,39.19-40.19,79.58-17.69,124.1
	c3.74,30.72,7.46,61.45,11.19,92.17c-0.88,45.01,24.73,65.12,58.82,79.17c56.55,23.3,79.16,19.06,133.7-2.89
	c14.87-5.98,28.89-13.47,39.23-27.36c8.58-11.53,11.7-29.72,16.55-50.61l16.86-128.69L1264.88,495.43L1264.88,495.43z"/>
<path class="st9" d="M1264.88,495.43l-114.21-27.28l-33.3,9.07c6.4,17.55-2.29,41.12,2.46,50.44c6.78,13.29-3.43,30.89-5.81,45.08
	c-1.52,9.07,4.14,14.86,10.19,21.7c17.3,19.53,14.56,24.67,5.81,48.04c-4.98,13.31-12.45,27.53-14.86,40.46
	c-2.36,12.64,8.7,20.17,19.52,23.48c14.33,4.4,0.14,15.4-1.33,27.35c-2.22,18.05-1.78,12.15,3.6,34.13
	c1.07,4.37-3.12,11.22-6.08,18.35c-3.2,7.69-4.99,20.8,6.51,28.19l0.15,0.09c20.7-0.26,40.6-6.91,69.41-18.5
	c14.87-5.98,28.89-13.47,39.23-27.36c8.58-11.53,11.7-29.72,16.55-50.61l16.86-128.69L1264.88,495.43L1264.88,495.43z"/>
<path class="st9" d="M1072.22,804.63c7.48,4.27,31.28,22.7,61.86,22.86c27.62,0.14,34.46,34.66,39.82,57.86
	c2.59,11.2,47.61,22.54,53.17,22.02c1.09-0.1,14.1,1.65,16.93,0.67c0.58-2.79-1.2-12.75-3.45-24.93
	c-29.68-5.51-27.79-0.94-32.24-28.03c-3.88-23.6-0.88-31.72,1.02-61.27c-14.17,11.41-59.15,23.49-75.34,22.25
	c-15.34,0.57-58.1-13.31-64.67-20.26L1072.22,804.63L1072.22,804.63z"/>
<path class="st11" d="M1023.56,549.35c12.98,18.02-10.53,27.86-9.75,54.94c0.07,2.5-2.65,31.75-4.43,46.31
	c-0.08,0.59-0.84,5.55-1.26,5.94c-17.16-24.62-30.14-58.79-32.27-88.56c-4.05-56.77,19.48-103.46,45.39-79.01
	c14.48,13.67,18.97,38.87,6.32,54.58C1026.16,545.28,1022.79,548.29,1023.56,549.35L1023.56,549.35z"/>
<path class="st7" d="M974.48,684.38c6.11,9.74,10.48,19.29,17.27,27.35c10.14,22.27,17.16,20,27.32,3.6
	c-1.12-17.96-2.23-35.93-3.35-53.89l-5.54-19.49C984.42,594.46,957.37,657.05,974.48,684.38L974.48,684.38z"/>
<path class="st1" d="M1202.56,420.44c-24.6-41.57-132.66-36.28-177.85,14.45c-46.33,52.02-10.96,145.97,66.45,145.97
	c16.93,0,44.05-6.87,64.95-16.62c41.34-19.27,84.65-55.23,100.32,6.4c4.94,19.4,8.79,55.12,13.42,77.47
	c7.46,2.58,6.54-28.41,24.56-2.03c0.16,0.23,4.77,3.72,7,6.5c8-27.72,30.69-52.7,33.88-93.3c5.71-72.73-42.22-177.68-126.78-144.59
	c-3.61,1.41-3.29,1.16-6.97,3.82C1201.55,420.95,1203.39,421.84,1202.56,420.44L1202.56,420.44z"/>
<path class="st9" d="M1298.7,635.02c6.92,5.28,14.73,33.38-0.48,51.53c-19.78,23.61-15.55,56.18-43.92,28.65
	c2.71-17.79,5.43-35.59,8.15-53.38C1275.74,641.8,1278.97,619.95,1298.7,635.02L1298.7,635.02z"/>
<path class="st12" d="M1128.32,779.39c5.43-4.67,16.32-5.41,22.77-2.95c0.53,0.09,1.41,0.78,2.48,1c0.3,0.69,1.03,1,0.99,1.85
	c-5.23,1.48-11.29-6.01-22.84,2.62C1128.53,788.05,1122.84,784.12,1128.32,779.39L1128.32,779.39z"/>
<path class="st12" d="M1178.72,739.74c1.78,1.75,9.05,4.51,5.89-4.36c-5.63-5.55-10.61-1.47-9.23,1.24
	c-6.66,5.75-30.11,8.75-44.87,8.88c-13.8,0.11-30.81-3.96-40.82-8.18c3.14-3.66-4.82-4.79-7.06-3.26c-4.97,3.4-1.43,11.38,4.99,6.75
	c14.78,5.74,24.85,8.29,42.38,8.49C1145.4,749.46,1163.75,747.99,1178.72,739.74L1178.72,739.74z"/>
<path class="st13" d="M1047.39,907.26c18.99,24.65,37.73,31.67,88.64,33.12l2.09-0.07v0l1.68-0.06c9.13-0.35,17.37-0.92,24.8-1.72
	c30.11-3.48,44.82-11.97,59.69-31.27l6.36-20.09c-1.18-4.2-5.52-16.12-6.7-20.33c6.91,0.18,19.64,6.96,26.19,14.59
	c5.52,13.23,38.41,18.39,54.14,26.96l132.04,46.31c16.95,11.32,28.98,23.81,35.77,37.55c-34.13,114.08-74.18,167.66-87.14,283.04
	c-4.9,43.64-10.11,98.33-13.22,175.68c-1.17,28.95,25.37,61.09,24.92,97c-0.34,27.15,44.82,149.26,19.64,155.74
	c-14.99,3.85-44.77,8.72-83.17,13.26c-144.7,31.24-420.15,1.55-477.7-13.26c-25.18-6.48,19.98-128.59,19.64-155.74
	c-0.46-35.92,26.09-68.05,24.92-97c-3.12-77.35-8.32-132.04-13.22-175.68c-12.96-115.38-53-168.96-87.14-283.04
	c6.79-13.74,18.82-26.23,35.77-37.55l132.03-46.31c15.73-8.57,46.66-11.27,52.18-24.51c6.55-7.62,16.13-8.9,23.04-9.07
	c-1.18,4.21-2.37,10.62-3.55,14.82L1047.39,907.26L1047.39,907.26z"/>
<path class="st13" d="M1133.55,940.31v790.09c-121.09-2.38-242.18-17.45-278.15-26.7c-25.18-6.48,19.98-128.59,19.64-155.74
	c-0.46-35.92,26.09-68.05,24.92-97c-3.12-77.35-8.32-132.04-13.22-175.68c-12.96-115.38-53-168.96-87.14-283.04
	c6.79-13.74,18.82-26.23,35.77-37.55l132.03-46.31c15.73-8.57,46.66-11.27,52.18-24.51c6.55-7.62,16.13-8.9,23.04-9.07
	c-1.18,4.21-2.37,10.62-3.55,14.82l8.32,17.64C1066.07,931.51,1084.51,938.7,1133.55,940.31L1133.55,940.31z"/>
<path class="st7" d="M1540.28,1251.52l40.14,155.02c6.56,16.17,13.12,32.33,19.68,48.5c10.45,49.33,0.4,103.98-26.76,139.56
	l-122.05,153.19l-40.95-85.23l65.87-162.19l-94.05-215.48L1540.28,1251.52L1540.28,1251.52z"/>
<path class="st9" d="M1469.06,1725.04l-17.77,22.75l-40.95-85.23l55.8-137.39c-2.67,14.29-6.62,18.21-7.83,34.96
	c-1.89,26.16-9.4,38.08-12.7,57.38C1441.43,1642.01,1452.13,1708.31,1469.06,1725.04L1469.06,1725.04z"/>
<path class="st8" d="M1489.22,1036.36l-24.85-43.97l-6.83,6.66c-20.05,19.57-74.66,238.32-82.71,277.82
	c-7.97,39.09,15.92,40.48,21.03,62.6c3.81,1.3,143.46-63.94,162.35-67.8c0.8-0.16,13.93-5.27,17.04-7.81L1489.22,1036.36
	L1489.22,1036.36z"/>
<path class="st7" d="M869.45,1722.88l2.09-52.89c-10.51-13.79-31.52-13.5-34.51,1.14c-3.11,15.26-15.84,18.16-19.92,51.28
	c-3.7,30.05-23.2,42.79-4.46,74.35c2.35,3.96,2.19,11.32,1.76,17.88c-0.38,5.63-0.96,10.66-0.35,12.44
	c0.44,0.09,6.99,11.09,19.56,13.99c2.83,8.17,1.96,10.69,14.68,13.63c5.35,23.17,63.71-1.62,68.33-1.23
	c25.46,2.18,66.9-34.16,84.92-38.79c23.35-6.01,26.06-26.66,2.1-26.64c-6.85,0.01-14.44,0.02-19.35-8.82
	c-4.99-5.04-29.63,0.41-52.92,2.63c-19.93,1.91-38.58,0.33-46.2,0.33l-15.4-20.99L869.45,1722.88L869.45,1722.88z"/>
<path class="st14" d="M831.23,1684.09c-4.98,7.77-11.43,16.47-14.12,38.32c-3.7,30.05-23.2,42.79-4.46,74.35
	c2.35,3.96,2.19,11.32,1.76,17.88c-0.38,5.63-0.96,10.66-0.35,12.44c0.44,0.09,6.99,11.09,19.56,13.99
	c1.81,5.23,2.11,8.15,5.42,10.34c-0.4-2.08-0.73-4.12-0.38-5.81c1.73-8.49-11.8-16.48-14.87-24.76c-4.68-12.61,1.4-15.45-1.47-23.58
	c-4.89-13.86-10.68-31.64-3.69-45.73c4.72-9.53,7.34-30.11,6.5-39.97C825.12,1711.54,829.47,1693.32,831.23,1684.09L831.23,1684.09z
	"/>
<path class="st15" d="M889.18,1786.31l-19.14-21.92l-1.12-52.25c-1.37,3.91-3.97-4.46-3.44,1.45c0.76,8.44-8.81,33.09-10.68,35.5
	c-7.61,9.82-3.14,14.82,17.14,29.87C876.3,1780,889.41,1786.31,889.18,1786.31L889.18,1786.31z"/>
<path class="st16" d="M833.55,1692.01c0-0.72,0.58-1.3,1.3-1.3c0.72,0,1.3,0.58,1.3,1.3c0,15.52,6.03,18.02,14.26,18.02
	c2.06,0,4.2-0.14,6.43-0.28c3.75-0.24,7.71-0.5,11.67-0.16c0.71,0.06,1.24,0.69,1.18,1.4c-0.06,0.71-0.68,1.24-1.4,1.18
	c-3.8-0.32-7.65-0.07-11.3,0.16c-2.3,0.15-4.53,0.29-6.59,0.29C840.68,1712.62,833.55,1709.76,833.55,1692.01L833.55,1692.01z"/>
<path class="st16" d="M842,1811.76c-0.71-0.1-1.2-0.75-1.1-1.46c0.1-0.71,0.76-1.2,1.46-1.1l43.93,6.27h12.35l69.32-17.33l0.06-0.02
	l0.07-0.01c0.99-0.14,1.93-0.31,2.81-0.5c6.47-1.35,10.85-3.78,13.5-6.48c2.5-2.54,3.43-5.28,3.11-7.46
	c-0.02-0.12-0.04-0.23-0.05-0.31c-0.14-0.7,0.3-1.38,1-1.53c0.7-0.14,1.38,0.31,1.53,1.01c0.04,0.17,0.06,0.33,0.08,0.47
	c0.42,2.91-0.71,6.46-3.83,9.64c-2.97,3.02-7.79,5.73-14.81,7.2c-0.94,0.19-1.91,0.37-2.9,0.51l-69.43,17.36l-0.16,0.04h-0.15
	h-12.58h-0.08l-0.11-0.01L842,1811.76L842,1811.76z"/>
<path class="st16" d="M850.57,1841.13c-0.71,0-1.29-0.58-1.29-1.3c0-0.72,0.58-1.3,1.29-1.3h58.57l82.7-21.31
	c0.69-0.18,1.39,0.24,1.57,0.93c0.18,0.69-0.24,1.39-0.93,1.57l-82.88,21.36l-0.18,0.05h-0.14H850.57L850.57,1841.13z"/>
<path class="st7" d="M1399.01,1722.79l-0.99-53.75c10.51-13.79,27.75-12.56,30.73,2.08c3.11,15.26,15.85,18.16,19.92,51.28
	c3.7,30.05,23.2,42.79,4.46,74.35c-2.35,3.96-2.19,11.32-1.76,17.88c0.38,5.63,0.96,10.66,0.35,12.44
	c-0.44,0.09-6.99,11.09-19.56,13.99c-2.83,8.17-1.96,10.69-14.68,13.63c-5.35,23.17-63.71-1.62-68.32-1.23
	c-25.46,2.18-66.9-34.16-84.92-38.79c-23.35-6.01-26.06-26.66-2.09-26.64c3.74,0,7.71,0.01,11.33-1.43
	c-0.36-7.58,1.29-11.24,25.37-9.02c10.05,0.92,23.01,3.06,35.57,4.26c19.93,1.91,38.59,0.33,46.2,0.33l17.73-19.71L1399.01,1722.79
	L1399.01,1722.79z"/>
<path class="st15" d="M1400.91,1707.29c4.6,8.41,10.66,33.86,13.62,37.67c7.62,9.82,3.15,14.82-17.14,29.87
	c-5.94,1.4-7.39,2.36-13.33,3.75c-0.03-0.02,13.2-8.52,14.8-20.23c1.25-9.21,0.3-35.48-0.02-47.53
	C1398.72,1706.36,1400.6,1708.12,1400.91,1707.29L1400.91,1707.29z"/>
<path class="st17" d="M1429.65,1692.01c0-0.72,0.58-1.3,1.29-1.3c0.72,0,1.3,0.58,1.3,1.3c0,8-1.66,13.59-4.33,17.28
	c-1.52,2.08-3.35,3.56-5.4,4.52l0,0c-2.04,0.95-4.27,1.38-6.59,1.38c-5.65,0-11.88-2.57-17.08-6.35c-0.58-0.42-0.7-1.23-0.29-1.81
	c0.42-0.58,1.23-0.71,1.81-0.29c4.79,3.49,10.47,5.85,15.56,5.85c1.96,0,3.83-0.35,5.49-1.13v0c1.66-0.78,3.16-1.98,4.4-3.69
	C1428.18,1704.51,1429.65,1699.42,1429.65,1692.01L1429.65,1692.01z"/>
<path class="st16" d="M1423.42,1809.2c0.71-0.1,1.36,0.39,1.46,1.1c0.1,0.71-0.39,1.36-1.1,1.46l-44.03,6.29l-0.11,0.01h-0.08
	h-12.58h-0.16l-0.16-0.04l-88.07-22.02l-0.42-0.11l-0.27-0.34l-5.41-6.79c-0.44-0.56-0.35-1.38,0.21-1.82
	c0.56-0.44,1.37-0.35,1.82,0.21l5.13,6.44l87.48,21.87h12.36L1423.42,1809.2L1423.42,1809.2z"/>
<path class="st16" d="M1415.21,1838.54c0.72,0,1.3,0.58,1.3,1.29c0,0.72-0.58,1.3-1.3,1.3h-58.71h-0.13l-0.16-0.04l-72.04-16.55
	c-1.07-0.48-3.51-1.95-5.96-3.62c0.28-0.18,0.64-0.26,0.99-0.18l77.42,17.79H1415.21L1415.21,1838.54z"/>
<path class="st14" d="M1433.39,1684.09c4.98,7.77,11.43,16.47,14.12,38.32c3.7,30.05,23.21,42.79,4.46,74.35
	c-2.35,3.96-2.19,11.32-1.75,17.88c0.37,5.63,0.96,10.66,0.34,12.44c-0.44,0.09-6.99,11.09-19.56,13.99
	c-1.81,5.23-2.11,8.15-5.42,10.34c0.4-2.08,0.73-4.12,0.38-5.81c-1.73-8.49,11.8-16.48,14.87-24.76c4.68-12.61-1.4-15.45,1.47-23.58
	c4.89-13.86,10.69-31.64,3.69-45.73c-4.72-9.53-7.34-30.11-6.5-39.97C1439.5,1711.54,1435.15,1693.32,1433.39,1684.09
	L1433.39,1684.09z"/>
<path class="st18" d="M953.19,1292.96L953.19,1292.96c-11.07,2.19-18.33,13.03-16.14,24.1l21.04,106.35
	c2.19,11.06,13.03,18.33,24.1,16.14l0,0c11.06-2.19,18.33-13.04,16.14-24.1l-21.04-106.35
	C975.1,1298.03,964.26,1290.76,953.19,1292.96L953.19,1292.96L953.19,1292.96z"/>
<path class="st18" d="M907.2,1302.05L907.2,1302.05c-10.43,2.06-17.28,12.29-15.21,22.72l21.5,108.65
	c2.06,10.44,12.28,17.29,22.72,15.22l0,0c10.43-2.06,17.28-12.29,15.22-22.72l-21.5-108.66
	C927.86,1306.83,917.63,1299.99,907.2,1302.05L907.2,1302.05L907.2,1302.05z"/>
<path class="st19" d="M887.71,1309.97l20.24,102.33c4.63,23.39,27.56,38.75,50.96,34.12l0,0c23.39-4.63,38.75-27.56,34.12-50.96
	l-20.24-102.33c-4.53-22.89-35.18-62.9-43.49-104.9c-20.12-101.68-56.24-67.18-41.32,8.18
	C896.29,1238.41,883.18,1287.09,887.71,1309.97L887.71,1309.97L887.71,1309.97z"/>
<path class="st20" d="M891.44,1199.02c6.88-1.36,33.09-4.95,35.59-7.58c2.56-2.7-8.3-45.41-14.66-49.93
	c-4.88-3.47-9.51-9.81-19.16-5.55c-4.14,1.84-4.25,6.41-5.46,12.11C883.93,1166.21,889.83,1197.18,891.44,1199.02L891.44,1199.02
	L891.44,1199.02z"/>
<polygon class="st18" points="920.07,1146.38 881.52,1154 876.13,1126.78 914.69,1119.15 920.07,1146.38 "/>
<polygon class="st19" points="916.49,1147.08 905.46,1149.27 900.07,1122.04 911.11,1119.86 916.49,1147.08 "/>
<polygon class="st19" points="895.66,1151.21 884.62,1153.39 879.24,1126.16 890.27,1123.98 895.66,1151.21 "/>
<path class="st18" d="M904.32,1309.93c-11.96,11.8-5.89,37.34,13.56,57.04c19.44,19.7,44.91,26.09,56.86,14.29
	c11.96-11.82,5.89-37.35-13.56-57.05C941.73,1304.52,916.27,1298.13,904.32,1309.93L904.32,1309.93L904.32,1309.93z"/>
<path class="st21" d="M1189.9,1609.01c18.37-1.22-23.36-505.22-27.05-561.88C1144.47,1048.35,1186.22,1552.35,1189.9,1609.01
	L1189.9,1609.01L1189.9,1609.01z"/>
<path class="st21" d="M1194.2,1603.99c18.41-0.43-1.47-505.76-2.69-562.52C1173.1,1041.89,1192.97,1547.22,1194.2,1603.99
	L1194.2,1603.99L1194.2,1603.99z"/>
<path class="st22" d="M1191.92,1612.58c7.01-0.31,1.28-121.17-3.42-206.13c-8.44-152.51-9.73-321.1-11.24-356.21
	c-9.6,0.43,1.56,177.26,0.28,277.85C1175.91,1456.1,1190.76,1585.47,1191.92,1612.58L1191.92,1612.58L1191.92,1612.58z"/>
<path class="st23" d="M1136.6,1048.98c-6.98,0.76,6.53,121,16.69,205.48c18.24,151.65,30.39,319.8,34.16,354.75
	c9.55-1.04-12.98-176.79-18.18-277.25C1162.66,1204.12,1139.51,1075.96,1136.6,1048.98L1136.6,1048.98L1136.6,1048.98z"/>
<path class="st23" d="M1201.93,1607.81c18.4-0.41-1-505.76-2.18-562.52C1181.34,1045.7,1200.75,1551.04,1201.93,1607.81
	L1201.93,1607.81L1201.93,1607.81z"/>
<path class="st22" d="M1196.1,1614.6c-7,0.48-14.85-120.26-19.7-205.21c-8.71-152.5-26.32-320.17-28.75-355.22
	c9.59-0.65,18.31,176.31,30.86,276.13C1194.47,1457.31,1194.22,1587.53,1196.1,1614.6L1196.1,1614.6L1196.1,1614.6z"/>
<polygon class="st24" points="973.06,1127.58 1064.56,1110.04 1114.68,1316.07 1020.58,1321.44 973.06,1127.58 "/>
<polygon class="st25" points="1069.28,1129.46 1089.83,1213.92 1012.06,1286.67 991.39,1202.32 1069.28,1129.46 "/>
<polygon class="st26" points="1105.23,1073.37 1064.23,1110.26 1114.83,1316.7 1150.28,1262.6 1105.23,1073.37 "/>
<polygon class="st27" points="1064.76,1110.09 973.5,1127.42 987.11,1059.68 1075.33,1041.21 1064.76,1110.09 "/>
<polygon class="st28" points="1064.39,1110.07 1075.46,1041.65 1105.27,1073.66 1064.39,1110.07 "/>
<polygon class="st29" points="1064.39,1110.07 1070.49,1072.34 1105.25,1073.63 1105.27,1073.66 1064.39,1110.07 "/>
<path class="st30" d="M986,1046.91l84.34-19.27c1.17-0.27,2.37,0.48,2.66,1.66l2.81,11.45l-88.99,18.66l-2.42-9.86
	C984.1,1048.36,984.83,1047.18,986,1046.91L986,1046.91z"/>
<path class="st31" d="M1030.36,1060.13l-7.25,7.75c-0.76,0.37-1.52,0.77-2.29,1.23c-6.05,3.6-10.78,9.35-13.09,15.21l-7.9,8.45
	c2.95,2.19,9.77,8.21,12.61,9.45c4.28,1.86,10.05,1.24,15.94-2.29c8.1-4.87,16.32-17.64,14.24-26.15c-0.52-2.11-1.51-3.83-2.86-5.13
	l0.07-0.08L1030.36,1060.13L1030.36,1060.13z"/>
<path class="st32" d="M1022.58,1102.52c1.89-0.55,3.84-1.4,5.8-2.58c2.12-1.28,4.26-3.1,6.21-5.25l-20.2-14.87l-9.54,9.67
	L1022.58,1102.52L1022.58,1102.52z"/>
<polygon class="st33" points="1089.62,1214.48 1069.13,1129.33 1110.33,1091.7 1128.11,1169.15 1089.62,1214.48 "/>
<path class="st34" d="M1008.26,1057.67c10.45-6.23,20.7-4.03,22.89,4.91c2.19,8.94-4.5,21.24-14.95,27.47
	c-10.45,6.23-20.7,4.03-22.89-4.91C991.11,1076.2,997.81,1063.9,1008.26,1057.67L1008.26,1057.67z"/>
<path class="st35" d="M1024.09,1365.47c-9.7-0.23-18.72-0.81-27.2-1.78c-8.5-0.96-16.47-2.32-24.09-4.09
	c-1.46-0.34-2.91-0.7-4.36-1.08c-1.44-0.37-2.87-0.77-4.29-1.17c-6.97-1.99-13.68-4.37-20.27-7.18c-6.58-2.8-13.04-6.03-19.5-9.71
	c-1.07-0.61-2.14-1.23-3.22-1.87c-1.08-0.64-2.16-1.29-3.23-1.94c-2.69-1.65-5.4-3.39-8.14-5.21c-2.73-1.82-5.48-3.72-8.26-5.7
	c-1.87-1.34-3.75-2.7-5.65-4.12c-1.88-1.41-3.81-2.86-5.75-4.36c-1.32-1-3.31-2.87-5.59-5.27c-2.09-2.2-4.42-4.86-6.71-7.69
	c-1.53-1.9-3.04-3.88-4.43-5.86c-1.27-1.81-2.45-3.62-3.46-5.37c-0.56-0.97-1.08-1.92-1.53-2.85c-0.45-0.92-0.84-1.82-1.17-2.67
	c-0.95-2.54-1.83-5.15-2.63-7.76c-0.81-2.63-1.53-5.26-2.15-7.84c-0.75-3.1-1.34-6.1-1.75-8.86c1.58-20.25-22.52-46.08-22.54-48.18
	c6.77-14.1,10.85-18.63,25.23-14.86c4.07-1.55,9.24,37.63,21.7,42.07c4.26,1.59,9.27,4.58,14.4,7.65c4.01,2.39,8.09,4.83,11.94,6.68
	c7.96,7.55,17.73,14.11,28.39,19.52c11.34,5.74,23.7,10.19,36.01,13.12c8.04,1.91,16.07,3.18,23.76,3.75
	c7.57,0.56,14.83,0.44,21.49-0.41c9.5-1.39,20.22-4.73,31.26-9.34c12.22-5.1,24.84-11.73,36.6-18.96l1.41-0.87l1.42-0.89
	c2.01-1.26,3.99-2.54,5.95-3.84c1.96-1.3,3.89-2.62,5.78-3.93l1.68-1.18l1.65-1.18l1.76-1.28l1.72-1.27
	c0.68-0.51,1.35-1.01,2.01-1.52c0.66-0.5,1.3-0.99,1.94-1.49c1.55-0.58,2.99-0.94,4.32-1.11c1.34-0.18,2.57-0.18,3.71-0.05
	c1.78,0.21,3.33,0.75,4.67,1.42c1.34,0.68,2.48,1.49,3.42,2.26c0.51,0.42,0.98,0.82,1.4,1.2c0.59,0.52,1.09,0.96,1.5,1.22l0.3,0.2
	c1.13,0.83,1.99,2.21,2.65,3.85c0.67,1.65,1.13,3.57,1.45,5.47c0.21,1.22,0.36,2.45,0.48,3.58c0.11,1.14,0.18,2.18,0.24,3.07
	l0.03,0.54l-0.19,1.33l-0.39,2.77c-0.46,3.31-1.02,7.31-1.76,11.59l-0.3,1.7l-0.33,1.73c-0.58,3.02-1.27,6.11-2.08,9.16
	c-0.81,3.05-1.76,6.06-2.86,8.89c-0.18,0.48-0.37,0.93-0.56,1.39c-0.19,0.45-0.39,0.91-0.58,1.35c-0.16,0.36-0.33,0.73-0.51,1.12
	c-0.18,0.38-0.35,0.74-0.53,1.1l-0.5,1l-0.52,0.98c-0.58,1.08-1.18,2.12-1.8,3.13c-0.62,1.01-1.25,1.98-1.89,2.92l-0.45,0.65
	l-0.45,0.63c-1.75,2.43-3.54,4.61-5.27,6.52c-1.73,1.91-3.39,3.56-4.87,4.94c-6.39,5.89-13,10.71-19.65,14.67
	c-6.66,3.96-13.35,7.06-19.91,9.51c-7.17,2.68-14.18,4.58-20.78,5.99c-6.61,1.4-12.82,2.31-18.38,2.99l-3.48,0.41
	c-1.57,0.18-3.14,0.34-4.63,0.51L1024.09,1365.47L1024.09,1365.47z"/>
<path class="st36" d="M1024.09,1365.47c-9.7-0.23-18.72-0.81-27.2-1.78c-8.5-0.96-16.47-2.32-24.09-4.09
	c-1.46-0.34-2.91-0.7-4.36-1.08c-1.44-0.37-2.87-0.77-4.29-1.17c-6.97-1.99-13.68-4.37-20.27-7.18c-6.58-2.8-13.04-6.03-19.5-9.71
	c-1.07-0.61-2.14-1.23-3.22-1.87c-1.08-0.64-2.16-1.29-3.23-1.94c-2.69-1.65-5.4-3.39-8.14-5.21c-2.73-1.82-5.48-3.72-8.26-5.7
	c-1.87-1.34-3.75-2.7-5.65-4.12c-1.88-1.41-3.81-2.86-5.75-4.36c-1.32-1-3.31-2.87-5.59-5.27c-2.09-2.2-4.42-4.86-6.71-7.69
	c-1.53-1.9-3.04-3.88-4.43-5.86c-1.27-1.81-2.45-3.62-3.46-5.37c-0.56-0.97-1.08-1.92-1.53-2.85c-0.45-0.92-0.84-1.82-1.17-2.67
	c-0.95-2.54-1.83-5.15-2.63-7.76l-0.04-0.12c3.03,0.35,6.53,3.37,11.39,8.39c55.42,57.23,94.68,74.3,148.04,69.48
	c52.74-4.77,71.11-25.89,94.21-58.91c2.02-2.89,11.01-16.52,19.85-27.61l-0.2,1.42c-0.46,3.31-1.02,7.31-1.76,11.59l-0.3,1.7
	l-0.33,1.73c-0.58,3.02-1.27,6.11-2.08,9.16c-0.81,3.05-1.76,6.06-2.86,8.89c-0.18,0.48-0.37,0.93-0.56,1.39
	c-0.19,0.45-0.39,0.91-0.58,1.35c-0.16,0.36-0.33,0.73-0.51,1.12c-0.18,0.38-0.35,0.74-0.53,1.1l-0.5,1l-0.52,0.98
	c-0.58,1.08-1.18,2.12-1.8,3.13c-0.62,1.01-1.25,1.98-1.89,2.92l-0.45,0.65l-0.45,0.63c-1.75,2.43-3.54,4.61-5.27,6.52
	c-1.73,1.91-3.39,3.56-4.87,4.94c-6.39,5.89-13,10.71-19.65,14.67c-6.66,3.96-13.35,7.06-19.91,9.51
	c-7.17,2.68-14.18,4.58-20.78,5.99c-6.61,1.4-12.82,2.31-18.38,2.99l-3.48,0.41c-1.57,0.18-3.14,0.34-4.63,0.51L1024.09,1365.47
	L1024.09,1365.47z"/>
<path class="st36" d="M871,1218.58c3.36,10.23,7.79,21.3,14.08,23.54c4.26,1.59,9.27,4.58,14.4,7.65c4.01,2.39,8.09,4.83,11.94,6.68
	c7.96,7.55,17.73,14.11,28.39,19.52c11.34,5.74,23.7,10.19,36.01,13.12c8.04,1.91,16.07,3.18,23.76,3.75
	c4.31,0.32,8.52,0.42,12.58,0.28c0.27,1.25-1.48,1.88-6.15,2.16c-11.39,0.67-55.32-8.72-64.63-11.9
	c-11.88-4.06-39.96-20.8-47.43-27.71C877.91,1240.84,868.49,1236.44,871,1218.58L871,1218.58L871,1218.58z"/>
<path class="st37" d="M1115.6,1247.56c-5.17,1.61,0.5,4.23,2.45,8.7c2.19,4.99,2.31-1.27,7.89,1.43c8.79,4.25,11.23-1.41,5.18-5.87
	c-3.09-2.29-4.06-5.55-9.65-4.7C1120.01,1247.34,1117.25,1247.04,1115.6,1247.56L1115.6,1247.56L1115.6,1247.56z"/>
<path class="st38" d="M1353.14,1436.72c25.21-73.44,46.2-260.39,31.72-343.29c-5.33-30.49-13.76-177.41-67.53-74.18
	c-25.32,48.61-20.02,249.19-44.94,328.79c-6.18,19.74-19.48,190.74-17.32,211.31c2.77,26.33,12.04,115.41,48.04,81.02
	C1332.88,1611.92,1336.66,1484.72,1353.14,1436.72L1353.14,1436.72L1353.14,1436.72z"/>
<path class="st39" d="M1338.85,1508.52c0.91-6,1.81-11.91,2.72-17.65c-12.71-5.07-66.52,32.78-60.11,44.57
	C1285.08,1545.57,1324.23,1528.85,1338.85,1508.52L1338.85,1508.52L1338.85,1508.52z M1389.45,1148.89
	c-0.18-8.05-0.49-15.77-0.97-23.1c-14.5,1.01-53.61,50.17-44.4,59.51C1349.89,1193.37,1378.52,1170.97,1389.45,1148.89
	L1389.45,1148.89L1389.45,1148.89z M1387,1231.91c0.59-8.49,1.1-16.91,1.5-25.21c-15.81,2.2-56.9,44.44-49,54.37
	C1344.24,1269.4,1373.1,1251.81,1387,1231.91L1387,1231.91L1387,1231.91z M1378.75,1312.65c1.01-7.53,1.96-15.17,2.85-22.85
	c-17.16,1.27-62.2,34.15-56.3,44.99C1328.62,1344.11,1362.05,1330.69,1378.75,1312.65L1378.75,1312.65L1378.75,1312.65z
	 M1366.48,1385.76c1.57-7.53,3.1-15.44,4.57-23.61c-16.29-0.09-63.37,33.96-57.36,45.03
	C1316.97,1416.38,1349.57,1403.44,1366.48,1385.76L1366.48,1385.76L1366.48,1385.76z M1353.14,1436.72
	c0.84-2.46,1.68-5.05,2.51-7.75c-16.37,0.05-63.26,33.98-57.26,45.04c3.08,8.65,32.1-2.28,49.61-18.33
	C1349.59,1448.52,1351.28,1442.11,1353.14,1436.72L1353.14,1436.72L1353.14,1436.72z"/>
<path class="st39" d="M1382.54,1076.58c-0.77-6.17-1.66-13.22-2.71-20.63c-14.98,2.33-52.85,50.24-43.77,59.44
	C1342.08,1123.74,1372.6,1099.38,1382.54,1076.58L1382.54,1076.58L1382.54,1076.58z"/>
<path class="st40" d="M1377.58,1064.47l-0.4-3.2c-11.5,5.47-30.31,27.13-38.05,42.81
	C1350.68,1099.94,1370.04,1081.76,1377.58,1064.47L1377.58,1064.47L1377.58,1064.47z"/>
<path class="st39" d="M1367.31,1001c-9.64-23.59-24.87-29.98-49.99,18.25c-25.32,48.61-20.02,249.19-44.94,328.79
	c-6.18,19.74-19.48,190.74-17.32,211.31c2.77,26.33,12.04,115.41,48.04,81.02c0.88-0.84,1.74-1.78,2.57-2.78
	c-0.72-2.3-2.17-4.03-4.51-5.04c-47.43-20.39-36.73-133.2-33.68-175.72c2.75-38.33,21.92-102.03,28.51-133.74
	c15.19-73.04-14.5-281.93,68.25-320.52C1365.36,1002.05,1366.37,1001.53,1367.31,1001L1367.31,1001L1367.31,1001z"/>
<path class="st40" d="M1386.82,1132.4l-0.39-3.2c-11.5,5.46-30.31,27.13-38.05,42.8C1359.92,1167.86,1379.29,1149.69,1386.82,1132.4
	L1386.82,1132.4L1386.82,1132.4z"/>
<path class="st40" d="M1385.51,1213.04l-0.4-3.19c-11.49,5.46-30.3,27.12-38.05,42.8
	C1358.61,1248.5,1377.97,1230.32,1385.51,1213.04L1385.51,1213.04L1385.51,1213.04z"/>
<path class="st40" d="M1379.94,1295.56l0.62-3.16c-12.62,1.6-31.82,14.16-44.08,26.63
	C1348.75,1318.7,1367.39,1309.62,1379.94,1295.56L1379.94,1295.56L1379.94,1295.56z"/>
<path class="st40" d="M1368.3,1368.47l0.62-3.16c-12.63,1.6-31.83,14.16-44.08,26.63C1337.1,1391.62,1355.74,1382.54,1368.3,1368.47
	L1368.3,1368.47L1368.3,1368.47z"/>
<path class="st39" d="M1315.19,1206.32c-8.36,19.51-9.4-2.83-0.59-2.24C1315.39,1204.13,1315.36,1205.91,1315.19,1206.32
	L1315.19,1206.32L1315.19,1206.32z"/>
<path class="st39" d="M1317.6,1147.47c12.83,16.91-7.12,6.78-2.23-0.59C1315.8,1146.21,1317.33,1147.12,1317.6,1147.47
	L1317.6,1147.47L1317.6,1147.47z"/>
<path class="st39" d="M1328.45,1091.08c-8.36,19.51-9.41-2.84-0.59-2.24C1328.65,1088.89,1328.62,1090.67,1328.45,1091.08
	L1328.45,1091.08L1328.45,1091.08z"/>
<path class="st37" d="M1268.52,1375.14c5.18,7.1,4.16,9.41-0.14,10.47c-6.93,1.72-16.66,18.95-22.39,19.64
	c-0.15,0.02-5.71-2.68-1.02-5.95c8.3-5.79,19.74-12.61,22.88-22.33C1268.01,1376.47,1268.27,1374.8,1268.52,1375.14L1268.52,1375.14
	L1268.52,1375.14z"/>
<path class="st39" d="M1271.99,1382.15c-0.31-0.8-3.31-2.69-6.99-0.73c-6.31,3.34-23.55,9.07-26.18,14.22
	c-0.06,0.12,0.54,6.28,5.24,3.01c8.3-5.79,18.65-14.15,28.85-13.73C1273.45,1384.92,1272.14,1382.53,1271.99,1382.15
	L1271.99,1382.15L1271.99,1382.15z"/>
<path class="st40" d="M1303.83,1501.31l0.76-3.13c-12.69,1.03-32.44,12.72-45.23,24.63
	C1271.62,1523.03,1290.66,1514.81,1303.83,1501.31L1303.83,1501.31L1303.83,1501.31z"/>
<path class="st39" d="M1261.89,1402.9c-9.23,19.12-9.28-3.25-0.49-2.26C1262.19,1400.73,1262.08,1402.49,1261.89,1402.9
	L1261.89,1402.9L1261.89,1402.9z"/>
<path class="st39" d="M1272.08,1345.17c12.06,17.47-7.41,6.45-2.21-0.69C1270.34,1343.83,1271.83,1344.8,1272.08,1345.17
	L1272.08,1345.17L1272.08,1345.17z"/>
<path class="st39" d="M1248.5,1471.72c-9.22,19.12-9.27-3.25-0.49-2.26C1248.81,1469.56,1248.69,1471.33,1248.5,1471.72
	L1248.5,1471.72L1248.5,1471.72z"/>
<path class="st39" d="M1239.64,1550.12c-9.22,19.12-9.27-3.25-0.49-2.26C1239.95,1547.94,1239.84,1549.72,1239.64,1550.12
	L1239.64,1550.12L1239.64,1550.12z"/>
<path class="st39" d="M1292.49,1223.52c12.06,17.47-7.41,6.45-2.21-0.69C1290.76,1222.18,1292.24,1223.16,1292.49,1223.52
	L1292.49,1223.52L1292.49,1223.52z"/>
<path class="st39" d="M1290,1282.81c-9.23,19.11-9.27-3.25-0.49-2.26C1290.3,1280.64,1290.19,1282.41,1290,1282.81L1290,1282.81
	L1290,1282.81z"/>
<path class="st39" d="M1238.03,1508.87c-3.62-22.99-9.83,0.92-1.1,2.29C1237.72,1511.28,1238.1,1509.35,1238.03,1508.87
	L1238.03,1508.87L1238.03,1508.87z"/>
<path class="st39" d="M1242.2,1590.32c-3.62-22.98-9.83,0.93-1.1,2.28C1241.88,1592.72,1242.27,1590.8,1242.2,1590.32
	L1242.2,1590.32L1242.2,1590.32z"/>
<path class="st38" d="M1204.62,1209.63c-13.25,76.5-4.34,264.43,23.09,343.98c10.1,29.26,41.7,172.98,78.43,62.54
	c17.3-52.01-19.72-249.22-7.73-331.76c2.97-20.47-11-191.42-16.39-211.38c-6.91-25.55-30.18-112.04-60.28-72.38
	C1196.85,1033.44,1213.27,1159.63,1204.62,1209.63L1204.62,1209.63L1204.62,1209.63z"/>
<path class="st39" d="M1207.33,1136.47c0.06,6.07,0.11,12.04,0.12,17.86c13.35,2.99,60.48-42.9,52.29-53.53
	C1254.57,1091.38,1218.55,1114.08,1207.33,1136.47L1207.33,1136.47L1207.33,1136.47z M1214.38,1499.58
	c1.45,7.91,2.98,15.49,4.62,22.65c14.16-3.29,44.97-58.04,34.41-65.79C1246.39,1449.4,1221.68,1476.06,1214.38,1499.58
	L1214.38,1499.58L1214.38,1499.58z M1203.64,1417.22c0.76,8.48,1.6,16.87,2.52,25.13c15.26-4.67,49.13-52.9,39.76-61.45
	C1239.92,1373.43,1214.21,1395.37,1203.64,1417.22L1203.64,1417.22L1203.64,1417.22z M1198.99,1336.19
	c0.2,7.6,0.47,15.29,0.81,23.02c16.74-3.97,56-43.58,48.47-53.35C1243.5,1297.19,1212.62,1315.73,1198.99,1336.19L1198.99,1336.19
	L1198.99,1336.19z M1199.52,1262.07c-0.36,7.7-0.62,15.73-0.77,24.04c16.09-2.49,57.19-43.57,49.5-53.55
	C1243.55,1223.99,1213.41,1241.93,1199.52,1262.07L1199.52,1262.07L1199.52,1262.07z M1204.62,1209.63
	c-0.44,2.56-0.86,5.25-1.25,8.05c16.16-2.64,57.07-43.58,49.4-53.54c-4.42-8.05-31.34,7.34-46.09,25.96
	C1206.24,1197.42,1205.59,1204.01,1204.62,1209.63L1204.62,1209.63L1204.62,1209.63z"/>
<path class="st39" d="M1232.66,1569.89c1.74,5.97,3.74,12.79,5.96,19.95c14.41-4.68,44.21-57.98,33.79-65.63
	C1265.14,1516.9,1238.86,1545.8,1232.66,1569.89L1232.66,1569.89L1232.66,1569.89z"/>
<path class="st40" d="M1239.48,1581.05l0.9,3.09c10.49-7.22,25.63-31.59,30.78-48.29
	C1260.42,1541.77,1244.18,1562.79,1239.48,1581.05L1239.48,1581.05L1239.48,1581.05z"/>
<path class="st39" d="M1259.68,1642.09c13.25,21.77,29.3,25.66,46.46-25.94c17.3-52.01-19.72-249.22-7.73-331.76
	c2.97-20.47-11-191.42-16.39-211.38c-6.91-25.55-30.18-112.04-60.28-72.38c-0.73,0.97-1.43,2.03-2.1,3.16
	c1.08,2.15,2.78,3.63,5.25,4.25c50.07,12.62,57.38,125.7,61.12,168.16c3.36,38.28-5.48,104.21-6.96,136.57
	c-3.42,74.53,59,276.07-16.59,327.29C1261.44,1640.75,1260.52,1641.43,1259.68,1642.09L1259.68,1642.09L1259.68,1642.09z"/>
<path class="st40" d="M1219.59,1515.44l0.9,3.09c10.48-7.21,25.62-31.58,30.78-48.29
	C1240.53,1476.17,1224.29,1497.18,1219.59,1515.44L1219.59,1515.44L1219.59,1515.44z"/>
<path class="st40" d="M1208.1,1435.62l0.9,3.09c10.48-7.22,25.62-31.59,30.78-48.3C1229.04,1396.35,1212.8,1417.36,1208.1,1435.62
	L1208.1,1435.62L1208.1,1435.62z"/>
<path class="st40" d="M1200.52,1353.26l-0.11,3.22c12.21-3.58,29.18-19.03,39.3-33.28
	C1227.66,1325.46,1210.69,1337.38,1200.52,1353.26L1200.52,1353.26L1200.52,1353.26z"/>
<path class="st40" d="M1200.46,1279.42l-0.11,3.22c12.22-3.58,29.18-19.02,39.31-33.28
	C1227.6,1251.63,1210.63,1263.54,1200.46,1279.42L1200.46,1279.42L1200.46,1279.42z"/>
<path class="st40" d="M1206.99,1209.82l-0.11,3.22c12.22-3.58,29.18-19.03,39.3-33.28
	C1234.13,1182.03,1217.16,1193.95,1206.99,1209.82L1206.99,1209.82L1206.99,1209.82z"/>
<path class="st40" d="M1210.55,1149.87l-0.12,3.21c12.22-3.58,29.19-19.02,39.31-33.28
	C1237.68,1122.07,1220.72,1133.99,1210.55,1149.87L1210.55,1149.87L1210.55,1149.87z"/>
<path class="st39" d="M1271.56,1237.74c5.16-20.59,9.73,1.31,0.94,2.12C1271.7,1239.94,1271.45,1238.18,1271.56,1237.74
	L1271.56,1237.74L1271.56,1237.74z"/>
<path class="st39" d="M1273.28,1296.34c-15.35-14.66,5.94-7.82,2.3,0.23C1275.24,1297.3,1273.6,1296.65,1273.28,1296.34
	L1273.28,1296.34L1273.28,1296.34z"/>
<path class="st39" d="M1270.72,1167.63c5.16-20.59,9.73,1.31,0.94,2.12C1270.86,1169.82,1270.61,1168.06,1270.72,1167.63
	L1270.72,1167.63L1270.72,1167.63z"/>
<path class="st39" d="M1263.51,1089.07c5.16-20.59,9.73,1.31,0.94,2.12C1263.65,1091.26,1263.4,1089.51,1263.51,1089.07
	L1263.51,1089.07L1263.51,1089.07z"/>
<path class="st39" d="M1277.93,1419.6c-15.35-14.66,5.95-7.82,2.3,0.23C1279.9,1420.56,1278.25,1419.91,1277.93,1419.6
	L1277.93,1419.6L1277.93,1419.6z"/>
<path class="st39" d="M1282.31,1467.92c5.16-20.59,9.73,1.31,0.94,2.12C1282.45,1470.11,1282.2,1468.35,1282.31,1467.92
	L1282.31,1467.92L1282.31,1467.92z"/>
<path class="st39" d="M1268.36,1361.04c5.16-20.59,9.74,1.31,0.94,2.12C1268.51,1363.23,1268.25,1361.47,1268.36,1361.04
	L1268.36,1361.04L1268.36,1361.04z"/>
<path class="st39" d="M1273.45,1129.13c8.2,21.77,9.44-2.9,0.62-2.46C1273.27,1126.71,1273.28,1128.68,1273.45,1129.13
	L1273.45,1129.13L1273.45,1129.13z"/>
<path class="st39" d="M1252.87,1050.23c8.2,21.77,9.43-2.9,0.61-2.46C1252.69,1047.8,1252.69,1049.77,1252.87,1050.23
	L1252.87,1050.23L1252.87,1050.23z"/>
<path class="st41" d="M1183.65,1190.29c-47.39,29.39-99.76,48.31-157.03,56.95c2.88,3.52,10.86,9.89,15.98,15.76
	c8.37,9.61,25.67,32.2,29.46,44.6c6.98,22.87,124.7-19.82,115.4-41.85c-5.04-11.96-6.24-40.38-5.97-53.12
	C1181.66,1204.84,1183.7,1194.84,1183.65,1190.29L1183.65,1190.29L1183.65,1190.29z"/>
<path class="st42" d="M1181.88,1172.83c2.33,3.05,22.19,16.21,17.05,17.46c-21.3,5.19-9.57-0.82-12.69,10.1
	c-1.53,5.35-14.74-0.59-18.14,8.38c-5.41,14.27-13.15-2.01-26.4,12.32c-2.39,2.59-10.12,10.95-13.75,8.66
	c-12.81-8.09-26.49,21.29-32.61,13.74c-4.97-6.13-17.9,8.28-27.39,11.73c-7.35-14.31-18.35,7.8-24.79,2.68
	c-9.54-7.58-6.69-1.61-14.94,0.27c-4.69,1.07,1.44-11.6-9.73-1.77c-9.69,8.53-6.98-5.46-4.85-19.05
	c3.89-24.88,52.61-44.05,80.72-56.29C1108.67,1174.82,1169.24,1156.31,1181.88,1172.83L1181.88,1172.83L1181.88,1172.83z"/>
<path class="st43" d="M1161.1,1170.99c54.73,3.01-38.94,46.4-53.09,50.99c-23.55,7.65-49.72,16.01-67.38,16.76
	c-19.33,0.83-28.3-6.92-7.97-22.1C1064.63,1197.99,1126.9,1169.11,1161.1,1170.99L1161.1,1170.99L1161.1,1170.99z"/>
<path class="st20" d="M1160.73,1175.42c52.46,0.74-39.02,42.06-52.77,46.59c-22.88,7.53-48.31,15.77-65.31,17.05
	c-18.6,1.4-26.94-5.1-6.88-19.12C1067.12,1202.46,1127.94,1174.96,1160.73,1175.42L1160.73,1175.42L1160.73,1175.42z"/>
<path class="st41" d="M1125.19,1194.22c21.49,0.31-15.99,17.23-21.62,19.08c-9.38,3.09-19.79,6.46-26.75,6.98
	c-7.62,0.57-11.04-2.08-2.82-7.83C1086.84,1205.3,1111.76,1194.04,1125.19,1194.22L1125.19,1194.22L1125.19,1194.22z"/>
<path class="st20" d="M1160.77,1225.17c-18.42,16.39-67.74,34.44-93.27,34.34l11.89,32.78c25.53,0.11,74.85-17.94,93.27-34.34
	L1160.77,1225.17L1160.77,1225.17z"/>
<path class="st35" d="M1061.12,1334c-9.31-2.73-17.87-5.62-25.82-8.76c-7.95-3.13-15.31-6.5-22.21-10.19
	c-1.32-0.71-2.63-1.43-3.94-2.17c-1.29-0.73-2.57-1.48-3.84-2.24c-6.22-3.73-12.09-7.77-17.71-12.18
	c-5.63-4.41-11.03-9.2-16.33-14.43c-0.88-0.86-1.75-1.74-2.63-2.64c-0.88-0.9-1.75-1.8-2.61-2.71c-2.18-2.29-4.34-4.68-6.51-7.14
	c-2.17-2.46-4.33-5.01-6.5-7.65c-1.46-1.78-2.92-3.59-4.4-5.44c-1.46-1.85-2.94-3.74-4.43-5.7c-1.01-1.3-2.45-3.63-4.03-6.54
	c-1.45-2.67-3.02-5.83-4.49-9.17c-0.98-2.23-1.93-4.54-2.76-6.81c-0.76-2.07-1.43-4.13-1.96-6.08c-0.29-1.08-0.54-2.14-0.74-3.15
	c-0.2-1.01-0.35-1.98-0.43-2.89c-0.26-2.7-0.44-5.45-0.54-8.17c-0.1-2.75-0.11-5.48-0.05-8.13c0.08-3.19,0.28-6.23,0.6-9.01
	c6.77-19.15-9.82-50.34-9.3-52.38c10.19-11.86,15.3-15.19,28.21-7.81c4.34-0.44-0.82,38.74,10.07,46.25
	c3.7,2.64,7.77,6.82,11.92,11.11c3.25,3.35,6.56,6.76,9.81,9.54c5.74,9.35,13.47,18.22,22.37,26.21c9.46,8.48,20.26,15.98,31.39,22
	c7.27,3.93,14.69,7.23,21.98,9.78c7.17,2.5,14.21,4.26,20.87,5.16c9.53,1.12,20.76,0.67,32.61-0.92
	c13.13-1.76,27.03-4.91,40.26-8.84l1.59-0.47l1.6-0.5c2.27-0.7,4.51-1.42,6.74-2.17c2.23-0.75,4.44-1.51,6.6-2.3l1.93-0.7l1.9-0.72
	l2.03-0.77l1.99-0.78c0.79-0.32,1.56-0.63,2.33-0.95c0.77-0.31,1.52-0.62,2.26-0.93c1.65-0.17,3.12-0.14,4.46,0.04
	c1.33,0.18,2.52,0.5,3.59,0.92c1.67,0.67,3.02,1.59,4.14,2.58c1.12,1,2.01,2.08,2.72,3.08c0.39,0.53,0.74,1.05,1.05,1.51
	c0.44,0.65,0.81,1.2,1.14,1.57l0.24,0.28c0.87,1.1,1.35,2.64,1.56,4.39c0.22,1.77,0.17,3.75-0.01,5.66
	c-0.11,1.24-0.28,2.46-0.46,3.58c-0.19,1.13-0.39,2.16-0.57,3.03l-0.11,0.53l-0.54,1.24l-1.09,2.58c-1.3,3.07-2.87,6.8-4.7,10.74
	l-0.73,1.57l-0.76,1.59c-1.34,2.76-2.8,5.57-4.38,8.3c-1.58,2.74-3.27,5.4-5.07,7.85c-0.3,0.42-0.6,0.81-0.9,1.2
	c-0.3,0.39-0.61,0.78-0.91,1.16c-0.25,0.3-0.51,0.62-0.79,0.95c-0.27,0.32-0.53,0.63-0.79,0.92l-0.75,0.83l-0.76,0.81
	c-0.84,0.89-1.69,1.74-2.54,2.56c-0.86,0.81-1.72,1.59-2.58,2.33l-0.6,0.51l-0.6,0.49c-2.32,1.9-4.62,3.54-6.78,4.93
	c-2.16,1.4-4.2,2.56-5.98,3.5c-7.7,4.04-15.33,6.99-22.78,9.09c-7.46,2.1-14.73,3.36-21.7,4.03c-7.62,0.73-14.88,0.76-21.62,0.4
	c-6.74-0.36-12.98-1.09-18.53-1.87l-3.46-0.51c-1.56-0.23-3.12-0.48-4.61-0.7L1061.12,1334L1061.12,1334z"/>
<path class="st36" d="M1061.12,1334c-9.31-2.73-17.87-5.62-25.82-8.76c-7.95-3.13-15.31-6.5-22.21-10.19
	c-1.32-0.71-2.63-1.43-3.94-2.17c-1.29-0.73-2.57-1.48-3.84-2.24c-6.22-3.73-12.09-7.77-17.71-12.18
	c-5.63-4.41-11.03-9.2-16.33-14.43c-0.88-0.86-1.75-1.74-2.63-2.64c-0.88-0.9-1.75-1.8-2.61-2.71c-2.18-2.29-4.34-4.68-6.51-7.14
	c-2.17-2.46-4.33-5.01-6.5-7.65c-1.46-1.78-2.92-3.59-4.4-5.44c-1.46-1.85-2.94-3.74-4.43-5.7c-1.01-1.3-2.45-3.63-4.03-6.54
	c-1.45-2.67-3.02-5.83-4.49-9.17c-0.98-2.23-1.93-4.54-2.76-6.81c-0.76-2.07-1.43-4.13-1.96-6.08c-0.29-1.08-0.54-2.14-0.74-3.15
	c-0.2-1.01-0.35-1.98-0.43-2.89c-0.26-2.7-0.44-5.45-0.54-8.17l0-0.13c2.84,1.13,5.43,4.95,8.83,11.05
	c38.71,69.62,72.21,96.28,125,105.44c52.17,9.05,75.39-6.61,106.25-32.51c2.7-2.27,14.91-13.11,26.32-21.54l-0.56,1.32
	c-1.3,3.07-2.87,6.8-4.7,10.74l-0.73,1.57l-0.76,1.59c-1.34,2.76-2.8,5.57-4.38,8.3c-1.58,2.74-3.27,5.4-5.07,7.85
	c-0.3,0.42-0.6,0.81-0.9,1.2c-0.3,0.39-0.61,0.78-0.91,1.16c-0.25,0.3-0.51,0.62-0.79,0.95c-0.27,0.32-0.53,0.63-0.79,0.92
	l-0.75,0.83l-0.76,0.81c-0.84,0.89-1.69,1.74-2.54,2.56c-0.86,0.81-1.72,1.59-2.58,2.33l-0.6,0.51l-0.6,0.49
	c-2.32,1.9-4.62,3.54-6.78,4.93c-2.16,1.4-4.2,2.56-5.98,3.5c-7.7,4.04-15.33,6.99-22.78,9.09c-7.46,2.1-14.73,3.36-21.7,4.03
	c-7.62,0.73-14.88,0.76-21.62,0.4c-6.74-0.36-12.98-1.09-18.53-1.87l-3.46-0.51c-1.56-0.23-3.12-0.48-4.61-0.7L1061.12,1334
	L1061.12,1334z"/>
<path class="st36" d="M951.28,1152.49c0.6,10.75,2.01,22.59,7.51,26.38c3.7,2.64,7.77,6.82,11.92,11.11
	c3.25,3.35,6.56,6.76,9.81,9.54c5.74,9.35,13.47,18.22,22.37,26.21c9.46,8.48,20.26,15.98,31.39,22c7.27,3.93,14.69,7.23,21.98,9.78
	c4.08,1.42,8.12,2.61,12.08,3.53c-0.07,1.27-1.92,1.43-6.5,0.49c-11.17-2.3-51.17-22.74-59.34-28.22
	c-10.42-7-33.21-30.44-38.64-39.04C952.19,1175.78,944.23,1169.09,951.28,1152.49L951.28,1152.49L951.28,1152.49z"/>
<path class="st37" d="M1180.03,1243.8c-5.41,0.21-0.62,4.22,0.12,9.04c0.82,5.39,2.55-0.63,7.25,3.42
	c7.39,6.38,11.21,1.55,6.53-4.32c-2.4-3.01-2.48-6.41-8.11-7.04C1184.35,1244.74,1181.77,1243.73,1180.03,1243.8L1180.03,1243.8
	L1180.03,1243.8z"/>
<path class="st22" d="M1364.66,1301.74c16.43-24.25,39.81-66.11,42.1-95.8c1.02-13.29-2.06-22.79-11.25-26.98
	c-14.33-6.55-24.23-0.24-34.62,9.61c-14.84,14.08-31.45,36.78-36.7,46.58c-11.17,20.84-27.49,45.88-39.83,67.33
	c-7.83,13.61-11.47,18.79-18.24,32.95c-3.97,8.3-34.09,88.04-6.88,89.55C1300.33,1427.26,1352.58,1319.58,1364.66,1301.74
	L1364.66,1301.74L1364.66,1301.74z"/>
<path class="st21" d="M1395.9,1183.09c-2.51-1.79-8.56-3.22-12.53-3c-9.58,0.56-17.96,6.92-19.49,11.41
	c-1.02,3.02,15.53-9.05,21.74-5.91c0.77,0.39-29.54,25.24-35.18,29.39c-2.3,1.7-10.58,8.23,0.23,2.69
	c5.43-2.79,33.92-29.45,39.3-28.4c0.03,2.18-20.92,22.64-24.38,29.67c-1.08,2.18-12.12,15.79-3.01,7.33
	c6.57-6.09,23.49-28.43,29.74-33.12c0.88,1.77-17.87,38.53-17.99,39.25c-0.65,3.76,6.7-8.66,8.01-12.37
	c1.99-5.61,18.88-39.24,13.87-12.62c-0.08,0.42-12.68,46.59-10.26,46.27C1387.53,1253.48,1415.13,1196.8,1395.9,1183.09
	L1395.9,1183.09L1395.9,1183.09z"/>
<path class="st39" d="M980.89,1330.32c-16.49-5.2,1.53-7.85,1.76-0.66C982.68,1330.31,981.24,1330.43,980.89,1330.32L980.89,1330.32
	L980.89,1330.32z"/>
<path class="st44" d="M946.52,1199.19c10.45,23.34,23.25,26.89,39.23,23.43L946.52,1199.19L946.52,1199.19z"/>
<path class="st21" d="M946.52,1199.19c27.73-0.53,36.39,8.74,39.23,23.43L946.52,1199.19L946.52,1199.19z"/>
<path class="st37" d="M971.27,1244.96c5.81-1.81,14.9-17.46,16.53-23.57c0.48-1.83,3.19-8.98,2.15-10.24
	c-7.3-8.73-4.55,0.73-5.61,4.91c-1.63,6.39-6.17,17.5-9.89,23.24c-0.42,0.66-3.87,5.18-3.86,5.2
	C970.79,1244.81,970.99,1245.04,971.27,1244.96L971.27,1244.96L971.27,1244.96z"/>
<path class="st45" d="M939.38,1233.08c-33.94,12.4-20.25,78.05,0.54,92.91c11.42,8.18,17.14,8.37,22.88,7.56
	c5.74-0.82,8.38,2.79,22.8,0.02c30.25-5.81,48.6-41.78,39.21-74.08c-5.66-19.47-14.97-26.91-31.27-23.97
	C966.25,1240.43,952.85,1228.16,939.38,1233.08L939.38,1233.08L939.38,1233.08z"/>
<path class="st19" d="M937.82,1321.89c1.3,1.5,2.65,2.8,4.03,3.83c10.83,8.12,16.28,8.3,21.75,7.46c5.46-0.84,7.95,2.75,21.69-0.07
	c28.8-5.93,46.4-41.96,37.6-74.21c-2.67-9.78-6.17-16.27-10.97-19.93c3.12,3.83,5.58,9.3,7.57,16.6
	c8.8,32.25-9.65,65.51-38.45,71.42c-13.73,2.82-31.02,4.08-42.58-4.59C938.24,1322.23,938.03,1322.06,937.82,1321.89L937.82,1321.89
	L937.82,1321.89z"/>
<path class="st46" d="M960.52,1241.26c-2.58-4.75-14.77-0.7-17.89,1.3c-4.13,2.65-10.41,9.29-4,12.65
	C951.48,1261.95,948.75,1242.2,960.52,1241.26L960.52,1241.26L960.52,1241.26z"/>
<polygon class="st47" points="869.59,1291.18 1398.89,1291.18 1398.89,1781.69 869.59,1781.69 869.59,1291.18 "/>
<polygon class="st48" points="876.92,1293.23 1406.23,1293.23 1406.23,1783.74 876.92,1783.74 876.92,1293.23 "/>
<g>
	<path class="st49" d="M937.84,1559h17.88c4.03,0,7.11,0.32,9.22,0.95c2.84,0.86,5.28,2.39,7.3,4.59c2.03,2.2,3.57,4.89,4.63,8.07
		c1.06,3.18,1.59,7.11,1.59,11.77c0,4.1-0.5,7.63-1.49,10.6c-1.21,3.62-2.94,6.56-5.19,8.8c-1.7,1.7-3.99,3.02-6.87,3.97
		c-2.16,0.7-5.04,1.05-8.66,1.05h-18.41V1559z M947.62,1567.42v32.99h7.3c2.73,0,4.7-0.16,5.92-0.47c1.59-0.41,2.9-1.1,3.95-2.07
		c1.05-0.97,1.9-2.58,2.56-4.81c0.66-2.23,0.99-5.27,0.99-9.12c0-3.85-0.33-6.81-0.99-8.87c-0.66-2.06-1.59-3.67-2.78-4.82
		c-1.19-1.16-2.7-1.94-4.53-2.34c-1.37-0.32-4.04-0.48-8.03-0.48H947.62z"/>
	<path class="st49" d="M984.77,1584.2c0-5.07,0.74-9.33,2.21-12.77c1.1-2.54,2.61-4.81,4.51-6.83c1.91-2.01,3.99-3.51,6.26-4.49
		c3.02-1.31,6.5-1.97,10.44-1.97c7.14,0,12.85,2.27,17.13,6.83c4.29,4.55,6.43,10.88,6.43,18.99c0,8.04-2.13,14.33-6.38,18.87
		c-4.25,4.54-9.94,6.81-17.05,6.81c-7.2,0-12.93-2.26-17.18-6.78C986.89,1598.35,984.77,1592.13,984.77,1584.2z M994.85,1583.86
		c0,5.64,1.27,9.92,3.8,12.83c2.53,2.91,5.75,4.36,9.65,4.36c3.9,0,7.1-1.44,9.6-4.33c2.5-2.89,3.75-7.22,3.75-13
		c0-5.71-1.22-9.96-3.65-12.77c-2.43-2.81-5.67-4.21-9.7-4.21c-4.03,0-7.28,1.42-9.75,4.26
		C996.08,1573.85,994.85,1578.13,994.85,1583.86z"/>
	<path class="st49" d="M1039.49,1608.8V1559h9.52l19.83,33.26V1559h9.09v49.81h-9.81l-19.53-32.48v32.48H1039.49z"/>
	<path class="st49" d="M1131.96,1608.8h-10.64l-4.23-11.31h-19.36l-4,11.31h-10.38l18.87-49.81h10.34L1131.96,1608.8z
		 M1113.95,1589.1l-6.68-18.48l-6.54,18.48H1113.95z"/>
</g>
<g>
	<path class="st49" d="M1143.06,1608.8v-41.38h-14.38V1559h38.5v8.42h-14.34v41.38H1143.06z"/>
	<path class="st49" d="M1173.2,1608.8V1559h9.78v49.81H1173.2z"/>
	<path class="st49" d="M1190.32,1584.2c0-5.07,0.74-9.33,2.21-12.77c1.1-2.54,2.6-4.81,4.51-6.83c1.91-2.01,3.99-3.51,6.26-4.49
		c3.02-1.31,6.5-1.97,10.44-1.97c7.14,0,12.85,2.27,17.13,6.83c4.29,4.55,6.43,10.88,6.43,18.99c0,8.04-2.13,14.33-6.38,18.87
		c-4.25,4.54-9.93,6.81-17.05,6.81c-7.2,0-12.93-2.26-17.18-6.78C1192.44,1598.35,1190.32,1592.13,1190.32,1584.2z M1200.4,1583.86
		c0,5.64,1.27,9.92,3.8,12.83c2.53,2.91,5.75,4.36,9.65,4.36c3.9,0,7.1-1.44,9.6-4.33c2.5-2.89,3.75-7.22,3.75-13
		c0-5.71-1.22-9.96-3.65-12.77c-2.43-2.81-5.67-4.21-9.7-4.21c-4.03,0-7.28,1.42-9.75,4.26
		C1201.63,1573.85,1200.4,1578.13,1200.4,1583.86z"/>
	<path class="st49" d="M1245.04,1608.8V1559h9.52l19.83,33.26V1559h9.09v49.81h-9.81l-19.53-32.48v32.48H1245.04z"/>
	<path class="st49" d="M1291.35,1592.6l9.52-0.95c0.57,3.29,1.74,5.7,3.49,7.24c1.75,1.54,4.11,2.31,7.09,2.31
		c3.15,0,5.53-0.69,7.12-2.06c1.6-1.37,2.4-2.97,2.4-4.8c0-1.18-0.34-2.18-1.01-3.01c-0.67-0.83-1.85-1.55-3.52-2.16
		c-1.15-0.41-3.76-1.13-7.83-2.18c-5.25-1.34-8.92-2.98-11.04-4.93c-2.97-2.74-4.46-6.08-4.46-10.02c0-2.54,0.7-4.91,2.1-7.12
		c1.4-2.21,3.41-3.89,6.05-5.04c2.63-1.16,5.81-1.73,9.53-1.73c6.08,0,10.66,1.37,13.73,4.11c3.08,2.74,4.69,6.4,4.84,10.97
		l-9.78,0.44c-0.42-2.56-1.32-4.4-2.69-5.52c-1.38-1.12-3.44-1.68-6.2-1.68c-2.84,0-5.07,0.6-6.68,1.8
		c-1.03,0.77-1.55,1.8-1.55,3.09c0,1.18,0.49,2.19,1.46,3.03c1.23,1.07,4.23,2.17,8.99,3.33c4.76,1.15,8.28,2.35,10.56,3.58
		c2.28,1.24,4.06,2.92,5.35,5.06c1.29,2.14,1.93,4.79,1.93,7.93c0,2.85-0.77,5.53-2.31,8.02c-1.54,2.49-3.72,4.35-6.54,5.55
		c-2.82,1.21-6.33,1.82-10.54,1.82c-6.12,0-10.83-1.46-14.11-4.37C1293.94,1602.41,1291.98,1598.17,1291.35,1592.6z"/>
</g>
<g>
	<path class="st49" d="M941.38,1450.11h71.35v20.06h-42.37v16.31h36.19v18.86h-36.19v38.16h-28.99V1450.11z"/>
	<path class="st49" d="M1024.64,1496.87c0-15.25,4.25-27.12,12.74-35.61c8.49-8.49,20.32-12.74,35.49-12.74
		c15.54,0,27.52,4.17,35.93,12.52c8.41,8.35,12.62,20.03,12.62,35.07c0,10.92-1.84,19.87-5.51,26.85
		c-3.67,6.99-8.98,12.42-15.93,16.31c-6.94,3.88-15.6,5.83-25.96,5.83c-10.54,0-19.25-1.68-26.15-5.03
		c-6.9-3.35-12.5-8.66-16.79-15.92C1026.79,1516.88,1024.64,1507.79,1024.64,1496.87z M1053.5,1497c0,9.43,1.75,16.21,5.26,20.32
		c3.5,4.12,8.27,6.18,14.3,6.18c6.2,0,11-2.01,14.4-6.05c3.4-4.04,5.1-11.28,5.1-21.73c0-8.79-1.77-15.22-5.32-19.27
		c-3.55-4.06-8.36-6.09-14.43-6.09c-5.82,0-10.49,2.06-14.02,6.18C1055.27,1480.67,1053.5,1487.49,1053.5,1497z"/>
	<path class="st49" d="M1133.33,1496.87c0-15.25,4.25-27.12,12.74-35.61c8.49-8.49,20.32-12.74,35.49-12.74
		c15.54,0,27.52,4.17,35.93,12.52c8.41,8.35,12.61,20.03,12.61,35.07c0,10.92-1.83,19.87-5.51,26.85
		c-3.68,6.99-8.99,12.42-15.93,16.31c-6.95,3.88-15.6,5.83-25.96,5.83c-10.54,0-19.25-1.68-26.15-5.03
		c-6.9-3.35-12.5-8.66-16.79-15.92C1135.48,1516.88,1133.33,1507.79,1133.33,1496.87z M1162.19,1497c0,9.43,1.75,16.21,5.26,20.32
		c3.5,4.12,8.27,6.18,14.3,6.18c6.2,0,11-2.01,14.4-6.05c3.4-4.04,5.1-11.28,5.1-21.73c0-8.79-1.78-15.22-5.32-19.27
		c-3.55-4.06-8.36-6.09-14.43-6.09c-5.82,0-10.49,2.06-14.02,6.18C1163.95,1480.67,1162.19,1487.49,1162.19,1497z"/>
	<path class="st49" d="M1246.03,1450.11h42.88c8.45,0,15.28,1.15,20.48,3.44c5.2,2.29,9.5,5.59,12.9,9.88
		c3.4,4.29,5.86,9.28,7.39,14.97s2.29,11.72,2.29,18.09c0,9.98-1.14,17.72-3.41,23.22c-2.27,5.5-5.43,10.11-9.46,13.83
		c-4.04,3.72-8.37,6.19-13,7.42c-6.33,1.7-12.06,2.55-17.2,2.55h-42.88V1450.11z M1274.89,1471.26v51.03h7.07
		c6.03,0,10.32-0.67,12.87-2.01c2.55-1.34,4.55-3.67,5.99-7.01c1.45-3.34,2.17-8.74,2.17-16.22c0-9.9-1.61-16.67-4.84-20.32
		c-3.23-3.65-8.58-5.48-16.05-5.48H1274.89z"/>
</g>
<path class="st50" d="M1175.94,741.3c-12.45,4.19-29.82,8.87-42.52,8.14c-17.23,0.16-32.06-3.54-45.36-8.63
	c2.33,6.52,26.52,20.55,44.06,21.53C1152.67,760.89,1174.43,747.28,1175.94,741.3L1175.94,741.3z"/>
<path class="st51" d="M1088.31,739.11l1.46,1.35c9.46,8.79,19.1,17.74,41.73,19.72c10.4-0.22,18.91-3.04,26.33-7.16
	c7.54-4.19,14.04-9.79,20.29-15.4l2.89,3.21c-6.43,5.77-13.14,11.54-21.09,15.96c-8.02,4.46-17.23,7.5-28.53,7.71l-0.18,0l-0.04,0
	c-24.13-2.1-34.33-11.56-44.34-20.87l-1.45-1.35L1088.31,739.11L1088.31,739.11z"/>
<polygon class="st52" points="129.86,30.91 2164.42,30.91 2164.42,2030.91 129.86,2030.91 129.86,30.91 "/>
</svg>
